<?xml version="1.0" standalone="no"?>
<!DOCTYPE svg PUBLIC "-//W3C//DTD SVG 1.1//EN" "http://www.w3.org/Graphics/SVG/1.1/DTD/svg11.dtd" >
<svg xmlns="http://www.w3.org/2000/svg">
<metadata></metadata>
<defs>
<font id="american_purpose_stripe_1Rg" horiz-adv-x="1583" >
<font-face units-per-em="2048" ascent="1536" descent="-512" />
<missing-glyph horiz-adv-x="409" />
<glyph horiz-adv-x="2048" />
<glyph horiz-adv-x="2048" />
<glyph unicode="&#xd;" horiz-adv-x="2048" />
<glyph unicode=" "  horiz-adv-x="409" />
<glyph unicode="&#x09;" horiz-adv-x="409" />
<glyph unicode="&#xa0;" horiz-adv-x="409" />
<glyph unicode="!" horiz-adv-x="477" d="M2 1331q-2 25 1 52.5t17.5 63t39.5 63t73 46.5t111 19t110.5 -19t72 -46t38.5 -63t17.5 -62t2.5 -52q-5 -185 -49 -512q-2 -16 -9 -66t-9.5 -71t-8 -67t-8 -78t-5 -77t-3.5 -89h-98q79 -19 129.5 -82t50.5 -144q0 -95 -67.5 -164t-163.5 -69t-164 69t-68 164 q0 81 50.5 144t127.5 82h-100q-2 178 -39 448q-43 313 -49 510z" />
<glyph unicode="&#x22;" horiz-adv-x="671" d="M-4 1569h680l-43 -721h-260l-35 590l-39 -590h-258z" />
<glyph unicode="#" d="M68 731q0 196 97 363t263.5 264.5t362.5 97.5t363 -97.5t264.5 -264.5t97.5 -363t-97.5 -363t-264.5 -264.5t-363 -97.5t-362.5 97.5t-263.5 264.5t-97 363zM164 731q0 -169 84.5 -313.5t229 -229t313.5 -84.5q128 0 244 50t199 134t132 200t49 243t-49 242.5t-132 199.5 t-199 133.5t-244 49.5q-169 0 -313.5 -84t-229 -228t-84.5 -313zM207 731q0 157 79 290t213.5 210.5t291.5 77.5t291 -77.5t212 -210.5t78 -290q0 -119 -46.5 -227t-124.5 -186t-185 -124.5t-225 -46.5t-225.5 46.5t-186.5 124.5t-125.5 186.5t-46.5 226.5zM330 664 l112 -177q346 -79 699 0l110 177h-921zM451 1063l151 -189q7 -8 38.5 7.5t29.5 21.5q-15 29 -45.5 111t-55.5 119q-7 9 -38.5 -6t-58 -36.5t-21.5 -27.5zM463 457q23 -39 52.5 -74t70.5 -69.5t94 -55t111 -20.5q57 0 110 20.5t94 55t70.5 69.5t52.5 74q-319 -84 -655 0z M715 731h155l-77 187zM918 903q-7 -4 19 -19q35 -19 46 -10l147 189q5 6 -21 27.5t-57 36.5t-38 6q-30 -39 -61 -129.5t-35 -100.5zM1290 102v23h84v-23h-31v-77h-22v77h-31zM1384 25v100h31l19 -78l18 78h29v-100h-19v77l-20 -77h-19l-20 77v-77h-19z" />
<glyph unicode="$" horiz-adv-x="915" d="M-10 342l262 182q34 21 47 11q7 -4 11.5 -27t8.5 -31q21 -42 59 -65t73 -25q26 -2 46.5 7.5t26.5 29.5q8 28 -3 52.5t-38 42.5t-51.5 29.5t-56 23.5t-39.5 16q-64 27 -105.5 48.5t-89.5 57.5t-75.5 76.5t-46.5 102t-19 137.5q0 349 309 403l-6 127h307l-6 -125 q193 -35 303 -188l-235 -242q-16 -16 -35 -16q-12 2 -18 8t-10.5 23.5t-6.5 21.5q-21 46 -55.5 65t-69.5 19q-42 0 -70.5 -23t-27.5 -63q7 -85 151 -141q22 -9 76.5 -28.5t88.5 -35.5t65 -39q156 -118 153 -323q-2 -140 -84.5 -246t-220.5 -129l8 -129h-307l8 129 q-94 19 -179.5 83.5t-147.5 180.5z" />
<glyph unicode="%" d="M68 731q0 196 97 363t263.5 264.5t362.5 97.5t363 -97.5t264.5 -264.5t97.5 -363t-97.5 -363t-264.5 -264.5t-363 -97.5t-362.5 97.5t-263.5 264.5t-97 363zM164 731q0 -169 84.5 -313.5t229 -229t313.5 -84.5q128 0 244 50t199 134t132 200t49 243t-49 242.5t-132 199.5 t-199 133.5t-244 49.5q-169 0 -313.5 -84t-229 -228t-84.5 -313zM207 731q0 157 79 290t213.5 210.5t291.5 77.5t291 -77.5t212 -210.5t78 -290q0 -119 -46.5 -227t-124.5 -186t-185 -124.5t-225 -46.5t-225.5 46.5t-186.5 124.5t-125.5 186.5t-46.5 226.5zM330 664 l112 -177q346 -79 699 0l110 177h-921zM451 1063l151 -189q7 -8 38.5 7.5t29.5 21.5q-15 29 -45.5 111t-55.5 119q-7 9 -38.5 -6t-58 -36.5t-21.5 -27.5zM463 457q23 -39 52.5 -74t70.5 -69.5t94 -55t111 -20.5q57 0 110 20.5t94 55t70.5 69.5t52.5 74q-319 -84 -655 0z M715 731h155l-77 187zM918 903q-7 -4 19 -19q35 -19 46 -10l147 189q5 6 -21 27.5t-57 36.5t-38 6q-30 -39 -61 -129.5t-35 -100.5zM1290 102v23h84v-23h-31v-77h-22v77h-31zM1384 25v100h31l19 -78l18 78h29v-100h-19v77l-20 -77h-19l-20 77v-77h-19z" />
<glyph unicode="&#x26;" horiz-adv-x="1349" d="M20 313q-28 176 38.5 319.5t217.5 227.5q-99 156 -88 318q7 102 50.5 181.5t112 128t154 71.5t179.5 18q193 -17 300.5 -148.5t96.5 -330.5q-8 -127 -71 -210.5t-172 -144.5q62 -78 102 -118q24 32 109 153l297 -231q-103 -141 -132 -178q118 -114 199 -183l-256 -272 q-136 118 -182 162q-83 -77 -197 -116.5t-241 -39.5q-92 0 -176.5 24t-155.5 70.5t-120 123.5t-65 175zM412 422q3 -63 44.5 -98t106.5 -35q87 0 142 43q-114 108 -213 243q-39 -22 -60.5 -62.5t-19.5 -90.5zM565 1120q3 -41 18.5 -81t39.5 -62q49 17 78.5 57t31.5 88 q2 44 -21 71.5t-61 27.5q-45 0 -67 -28t-19 -73z" />
<glyph unicode="'" horiz-adv-x="342" d="M-4 1569h350l-47 -721h-258z" />
<glyph unicode="(" d="M68 731q0 196 97 363t263.5 264.5t362.5 97.5t363 -97.5t264.5 -264.5t97.5 -363t-97.5 -363t-264.5 -264.5t-363 -97.5t-362.5 97.5t-263.5 264.5t-97 363zM164 731q0 -169 84.5 -313.5t229 -229t313.5 -84.5q128 0 244 50t199 134t132 200t49 243t-49 242.5t-132 199.5 t-199 133.5t-244 49.5q-169 0 -313.5 -84t-229 -228t-84.5 -313zM207 731q0 157 79 290t213.5 210.5t291.5 77.5t291 -77.5t212 -210.5t78 -290q0 -119 -46.5 -227t-124.5 -186t-185 -124.5t-225 -46.5t-225.5 46.5t-186.5 124.5t-125.5 186.5t-46.5 226.5zM330 664 l112 -177q346 -79 699 0l110 177h-921zM451 1063l151 -189q7 -8 38.5 7.5t29.5 21.5q-15 29 -45.5 111t-55.5 119q-7 9 -38.5 -6t-58 -36.5t-21.5 -27.5zM463 457q23 -39 52.5 -74t70.5 -69.5t94 -55t111 -20.5q57 0 110 20.5t94 55t70.5 69.5t52.5 74q-319 -84 -655 0z M715 731h155l-77 187zM918 903q-7 -4 19 -19q35 -19 46 -10l147 189q5 6 -21 27.5t-57 36.5t-38 6q-30 -39 -61 -129.5t-35 -100.5zM1290 102v23h84v-23h-31v-77h-22v77h-31zM1384 25v100h31l19 -78l18 78h29v-100h-19v77l-20 -77h-19l-20 77v-77h-19z" />
<glyph unicode=")" d="M68 731q0 196 97 363t263.5 264.5t362.5 97.5t363 -97.5t264.5 -264.5t97.5 -363t-97.5 -363t-264.5 -264.5t-363 -97.5t-362.5 97.5t-263.5 264.5t-97 363zM164 731q0 -169 84.5 -313.5t229 -229t313.5 -84.5q128 0 244 50t199 134t132 200t49 243t-49 242.5t-132 199.5 t-199 133.5t-244 49.5q-169 0 -313.5 -84t-229 -228t-84.5 -313zM207 731q0 157 79 290t213.5 210.5t291.5 77.5t291 -77.5t212 -210.5t78 -290q0 -119 -46.5 -227t-124.5 -186t-185 -124.5t-225 -46.5t-225.5 46.5t-186.5 124.5t-125.5 186.5t-46.5 226.5zM330 664 l112 -177q346 -79 699 0l110 177h-921zM451 1063l151 -189q7 -8 38.5 7.5t29.5 21.5q-15 29 -45.5 111t-55.5 119q-7 9 -38.5 -6t-58 -36.5t-21.5 -27.5zM463 457q23 -39 52.5 -74t70.5 -69.5t94 -55t111 -20.5q57 0 110 20.5t94 55t70.5 69.5t52.5 74q-319 -84 -655 0z M715 731h155l-77 187zM918 903q-7 -4 19 -19q35 -19 46 -10l147 189q5 6 -21 27.5t-57 36.5t-38 6q-30 -39 -61 -129.5t-35 -100.5zM1290 102v23h84v-23h-31v-77h-22v77h-31zM1384 25v100h31l19 -78l18 78h29v-100h-19v77l-20 -77h-19l-20 77v-77h-19z" />
<glyph unicode="*" d="M68 731q0 196 97 363t263.5 264.5t362.5 97.5t363 -97.5t264.5 -264.5t97.5 -363t-97.5 -363t-264.5 -264.5t-363 -97.5t-362.5 97.5t-263.5 264.5t-97 363zM164 731q0 -169 84.5 -313.5t229 -229t313.5 -84.5q128 0 244 50t199 134t132 200t49 243t-49 242.5t-132 199.5 t-199 133.5t-244 49.5q-169 0 -313.5 -84t-229 -228t-84.5 -313zM207 731q0 157 79 290t213.5 210.5t291.5 77.5t291 -77.5t212 -210.5t78 -290q0 -119 -46.5 -227t-124.5 -186t-185 -124.5t-225 -46.5t-225.5 46.5t-186.5 124.5t-125.5 186.5t-46.5 226.5zM330 664 l112 -177q346 -79 699 0l110 177h-921zM451 1063l151 -189q7 -8 38.5 7.5t29.5 21.5q-15 29 -45.5 111t-55.5 119q-7 9 -38.5 -6t-58 -36.5t-21.5 -27.5zM463 457q23 -39 52.5 -74t70.5 -69.5t94 -55t111 -20.5q57 0 110 20.5t94 55t70.5 69.5t52.5 74q-319 -84 -655 0z M715 731h155l-77 187zM918 903q-7 -4 19 -19q35 -19 46 -10l147 189q5 6 -21 27.5t-57 36.5t-38 6q-30 -39 -61 -129.5t-35 -100.5zM1290 102v23h84v-23h-31v-77h-22v77h-31zM1384 25v100h31l19 -78l18 78h29v-100h-19v77l-20 -77h-19l-20 77v-77h-19z" />
<glyph unicode="+" d="M68 731q0 196 97 363t263.5 264.5t362.5 97.5t363 -97.5t264.5 -264.5t97.5 -363t-97.5 -363t-264.5 -264.5t-363 -97.5t-362.5 97.5t-263.5 264.5t-97 363zM164 731q0 -169 84.5 -313.5t229 -229t313.5 -84.5q128 0 244 50t199 134t132 200t49 243t-49 242.5t-132 199.5 t-199 133.5t-244 49.5q-169 0 -313.5 -84t-229 -228t-84.5 -313zM207 731q0 157 79 290t213.5 210.5t291.5 77.5t291 -77.5t212 -210.5t78 -290q0 -119 -46.5 -227t-124.5 -186t-185 -124.5t-225 -46.5t-225.5 46.5t-186.5 124.5t-125.5 186.5t-46.5 226.5zM330 664 l112 -177q346 -79 699 0l110 177h-921zM451 1063l151 -189q7 -8 38.5 7.5t29.5 21.5q-15 29 -45.5 111t-55.5 119q-7 9 -38.5 -6t-58 -36.5t-21.5 -27.5zM463 457q23 -39 52.5 -74t70.5 -69.5t94 -55t111 -20.5q57 0 110 20.5t94 55t70.5 69.5t52.5 74q-319 -84 -655 0z M715 731h155l-77 187zM918 903q-7 -4 19 -19q35 -19 46 -10l147 189q5 6 -21 27.5t-57 36.5t-38 6q-30 -39 -61 -129.5t-35 -100.5zM1290 102v23h84v-23h-31v-77h-22v77h-31zM1384 25v100h31l19 -78l18 78h29v-100h-19v77l-20 -77h-19l-20 77v-77h-19z" />
<glyph unicode="," horiz-adv-x="485" d="M10 145q0 103 67 168.5t165 65.5q94 0 163.5 -69t69.5 -165q0 -40 -5.5 -74t-22.5 -84.5t-59.5 -107.5t-106.5 -115h-175q25 22 50.5 64t31.5 70q-1 9 1 13.5t-3.5 7.5t-7.5 4t-11.5 2.5t-14.5 2.5q-67 15 -104.5 75t-37.5 142z" />
<glyph unicode="-" horiz-adv-x="649" d="M31 473v371h587v-371h-587z" />
<glyph unicode="." horiz-adv-x="483" d="M10 145q0 97 68.5 165.5t165.5 68.5q95 0 162 -68.5t67 -165.5t-67 -164t-162 -67q-97 0 -165.5 67.5t-68.5 163.5z" />
<glyph unicode="/" d="M68 731q0 196 97 363t263.5 264.5t362.5 97.5t363 -97.5t264.5 -264.5t97.5 -363t-97.5 -363t-264.5 -264.5t-363 -97.5t-362.5 97.5t-263.5 264.5t-97 363zM164 731q0 -169 84.5 -313.5t229 -229t313.5 -84.5q128 0 244 50t199 134t132 200t49 243t-49 242.5t-132 199.5 t-199 133.5t-244 49.5q-169 0 -313.5 -84t-229 -228t-84.5 -313zM207 731q0 157 79 290t213.5 210.5t291.5 77.5t291 -77.5t212 -210.5t78 -290q0 -119 -46.5 -227t-124.5 -186t-185 -124.5t-225 -46.5t-225.5 46.5t-186.5 124.5t-125.5 186.5t-46.5 226.5zM330 664 l112 -177q346 -79 699 0l110 177h-921zM451 1063l151 -189q7 -8 38.5 7.5t29.5 21.5q-15 29 -45.5 111t-55.5 119q-7 9 -38.5 -6t-58 -36.5t-21.5 -27.5zM463 457q23 -39 52.5 -74t70.5 -69.5t94 -55t111 -20.5q57 0 110 20.5t94 55t70.5 69.5t52.5 74q-319 -84 -655 0z M715 731h155l-77 187zM918 903q-7 -4 19 -19q35 -19 46 -10l147 189q5 6 -21 27.5t-57 36.5t-38 6q-30 -39 -61 -129.5t-35 -100.5zM1290 102v23h84v-23h-31v-77h-22v77h-31zM1384 25v100h31l19 -78l18 78h29v-100h-19v77l-20 -77h-19l-20 77v-77h-19z" />
<glyph unicode="0" horiz-adv-x="1216" d="M-4 750q0 87 7.5 167.5t27 165t50 155.5t78.5 135.5t110.5 109t149 70.5t189.5 26t189.5 -26t149 -70.5t111 -108.5t79 -135.5t50 -156t27 -165t7.5 -167.5t-7.5 -167.5t-27 -165t-50 -156t-79 -135.5t-111 -109t-149 -71t-189.5 -26t-189.5 26t-149 71t-110.5 109 t-78.5 135.5t-50 156t-27 165t-7.5 167.5zM446 750q0 -461 162 -461t162 461q0 222 -39.5 321.5t-122.5 99.5t-122.5 -99.5t-39.5 -321.5z" />
<glyph unicode="1" horiz-adv-x="610" d="M-53 1157l248 383h385v-1591h-443v1208h-190z" />
<glyph unicode="2" horiz-adv-x="1009" d="M-33 1362q111 104 250 162t293 57q257 -3 380.5 -131.5t123.5 -347.5q0 -129 -39 -262q-71 -245 -277 -498h295v-393h-934v307q72 61 144 134.5t142 159t127.5 180.5t88.5 183q19 53 19 121q0 70 -33.5 110t-110.5 30q-55 -6 -103.5 -49.5t-76.5 -123.5q-7 -29 -37 -37.5 t-49 23.5z" />
<glyph unicode="3" horiz-adv-x="983" d="M-8 68l57 352q9 48 39 51q28 3 51 -33q43 -65 116.5 -105t139.5 -40q71 0 116 33.5t44 101.5q-4 88 -57.5 119t-165.5 31h-201v348h131q49 0 92 6.5t86 22.5t69.5 48.5t27.5 79.5q0 53 -33.5 80t-89.5 27q-100 0 -217 -90q-9 -7 -25 -23t-26.5 -22t-22.5 -6q-35 0 -41 38 l-70 369q206 123 488 123q228 0 348.5 -119t120.5 -330q0 -235 -154 -344q89 -44 133.5 -147t44.5 -223q0 -226 -116 -348q-138 -144 -426 -148q-121 0 -243 38.5t-216 109.5z" />
<glyph unicode="4" horiz-adv-x="1091" d="M-4 254v313l418 973h565v-917h117v-369h-117v-305h-420v305h-563zM420 623h139v344z" />
<glyph unicode="5" horiz-adv-x="1026" d="M2 588l117 952h782v-383h-430l-20 -213q67 17 149 17q193 0 310.5 -129t123.5 -340q7 -269 -137.5 -414.5t-421.5 -157.5q-262 -3 -446 117l20 383q2 29 18 40.5t35 5t31 -25.5q75 -99 143.5 -135.5t139.5 -36.5q65 0 112.5 37t57.5 107q12 89 -27.5 142t-124.5 46 q-105 -10 -209 -108z" />
<glyph unicode="6" horiz-adv-x="1097" d="M-4 666q0 184 45.5 357t128.5 292q190 264 506 264q74 0 155 -30.5t146 -86.5l-41 -415q-2 -21 -20.5 -32.5t-39.5 -6.5t-30 26q-27 66 -70 99.5t-94 33.5q-84 0 -143 -67t-80 -158q86 48 200 51q200 3 319.5 -128.5t123.5 -372.5q1 -79 -16.5 -169t-43.5 -141 q-35 -69 -87.5 -120.5t-115.5 -82t-130.5 -45t-141.5 -14.5q-125 0 -224 41t-163 110t-106.5 166.5t-60 203t-17.5 225.5zM420 461q0 -72 33.5 -124.5t97.5 -53.5q73 -1 109 44.5t36 129.5q0 182 -139 182q-68 0 -102.5 -50t-34.5 -128z" />
<glyph unicode="7" horiz-adv-x="944" d="M0 1157v383h944v-280l-471 -1311h-465l457 1208h-465z" />
<glyph unicode="8" horiz-adv-x="1110" d="M-2 418q0 114 40 210t124 150q-121 104 -117 330q4 225 140.5 349t367.5 122q234 2 371 -122t141 -349q4 -226 -111 -328q83 -49 121.5 -145.5t38.5 -210.5q0 -111 -25 -200t-92 -156q-75 -73 -190.5 -110.5t-253.5 -37.5q-252 0 -403 121q-152 124 -152 377zM420 446 q4 -74 39.5 -114.5t93.5 -40.5q61 0 97.5 40.5t37.5 114.5q1 85 -37.5 127.5t-97.5 42.5q-58 0 -96 -42.5t-37 -127.5zM436 1053q2 -48 33 -88.5t84 -40.5q55 0 86 41t33 90q0 61 -31 101t-88 40q-56 0 -87.5 -41.5t-29.5 -101.5z" />
<glyph unicode="9" horiz-adv-x="1134" d="M-2 956q-1 109 23.5 216t64.5 174q139 235 471 235q183 0 316 -88.5t200 -269.5q66 -192 66 -455q0 -94 -7 -176.5t-25.5 -170t-48 -158.5t-77.5 -135.5t-110.5 -108.5t-150 -70.5t-194.5 -28.5q-243 -3 -426 117l23 364q1 35 19.5 48.5t40 5t30.5 -28.5 q101 -152 264 -152q96 0 153.5 63.5t69.5 154.5q-61 -46 -144.5 -67t-160.5 -15q-124 11 -217.5 85t-136.5 197q-39 107 -43 264zM416 997q-3 -103 31 -159t112 -52q69 4 104.5 68t32.5 139q-2 55 -15.5 98t-44 73t-75.5 30q-68 0 -105.5 -59.5t-39.5 -137.5z" />
<glyph unicode=":" horiz-adv-x="483" d="M10 145q0 97 67.5 165.5t162.5 68.5q97 0 165 -68.5t68 -165.5t-68 -164t-165 -67q-96 0 -163 67t-67 164zM10 877q0 97 67 164t163 67q97 0 165 -67t68 -164t-68 -165.5t-165 -68.5q-95 0 -162.5 68.5t-67.5 165.5z" />
<glyph unicode=";" horiz-adv-x="485" d="M10 145q0 103 67 168.5t165 65.5q94 0 163.5 -69t69.5 -165q0 -40 -5.5 -74t-22.5 -84.5t-59.5 -107.5t-106.5 -115h-175q25 22 50.5 64t31.5 70q-1 9 1 13.5t-3.5 7.5t-7.5 4t-11.5 2.5t-14.5 2.5q-67 15 -104.5 75t-37.5 142zM10 877q0 97 67.5 164t164.5 67 q95 0 164 -67.5t69 -163.5t-69.5 -165t-163.5 -69q-97 0 -164.5 68.5t-67.5 165.5z" />
<glyph unicode="&#x3c;" d="M68 731q0 196 97 363t263.5 264.5t362.5 97.5t363 -97.5t264.5 -264.5t97.5 -363t-97.5 -363t-264.5 -264.5t-363 -97.5t-362.5 97.5t-263.5 264.5t-97 363zM164 731q0 -169 84.5 -313.5t229 -229t313.5 -84.5q128 0 244 50t199 134t132 200t49 243t-49 242.5t-132 199.5 t-199 133.5t-244 49.5q-169 0 -313.5 -84t-229 -228t-84.5 -313zM207 731q0 157 79 290t213.5 210.5t291.5 77.5t291 -77.5t212 -210.5t78 -290q0 -119 -46.5 -227t-124.5 -186t-185 -124.5t-225 -46.5t-225.5 46.5t-186.5 124.5t-125.5 186.5t-46.5 226.5zM330 664 l112 -177q346 -79 699 0l110 177h-921zM451 1063l151 -189q7 -8 38.5 7.5t29.5 21.5q-15 29 -45.5 111t-55.5 119q-7 9 -38.5 -6t-58 -36.5t-21.5 -27.5zM463 457q23 -39 52.5 -74t70.5 -69.5t94 -55t111 -20.5q57 0 110 20.5t94 55t70.5 69.5t52.5 74q-319 -84 -655 0z M715 731h155l-77 187zM918 903q-7 -4 19 -19q35 -19 46 -10l147 189q5 6 -21 27.5t-57 36.5t-38 6q-30 -39 -61 -129.5t-35 -100.5zM1290 102v23h84v-23h-31v-77h-22v77h-31zM1384 25v100h31l19 -78l18 78h29v-100h-19v77l-20 -77h-19l-20 77v-77h-19z" />
<glyph unicode="=" d="M68 731q0 196 97 363t263.5 264.5t362.5 97.5t363 -97.5t264.5 -264.5t97.5 -363t-97.5 -363t-264.5 -264.5t-363 -97.5t-362.5 97.5t-263.5 264.5t-97 363zM164 731q0 -169 84.5 -313.5t229 -229t313.5 -84.5q128 0 244 50t199 134t132 200t49 243t-49 242.5t-132 199.5 t-199 133.5t-244 49.5q-169 0 -313.5 -84t-229 -228t-84.5 -313zM207 731q0 157 79 290t213.5 210.5t291.5 77.5t291 -77.5t212 -210.5t78 -290q0 -119 -46.5 -227t-124.5 -186t-185 -124.5t-225 -46.5t-225.5 46.5t-186.5 124.5t-125.5 186.5t-46.5 226.5zM330 664 l112 -177q346 -79 699 0l110 177h-921zM451 1063l151 -189q7 -8 38.5 7.5t29.5 21.5q-15 29 -45.5 111t-55.5 119q-7 9 -38.5 -6t-58 -36.5t-21.5 -27.5zM463 457q23 -39 52.5 -74t70.5 -69.5t94 -55t111 -20.5q57 0 110 20.5t94 55t70.5 69.5t52.5 74q-319 -84 -655 0z M715 731h155l-77 187zM918 903q-7 -4 19 -19q35 -19 46 -10l147 189q5 6 -21 27.5t-57 36.5t-38 6q-30 -39 -61 -129.5t-35 -100.5zM1290 102v23h84v-23h-31v-77h-22v77h-31zM1384 25v100h31l19 -78l18 78h29v-100h-19v77l-20 -77h-19l-20 77v-77h-19z" />
<glyph unicode="&#x3e;" d="M68 731q0 196 97 363t263.5 264.5t362.5 97.5t363 -97.5t264.5 -264.5t97.5 -363t-97.5 -363t-264.5 -264.5t-363 -97.5t-362.5 97.5t-263.5 264.5t-97 363zM164 731q0 -169 84.5 -313.5t229 -229t313.5 -84.5q128 0 244 50t199 134t132 200t49 243t-49 242.5t-132 199.5 t-199 133.5t-244 49.5q-169 0 -313.5 -84t-229 -228t-84.5 -313zM207 731q0 157 79 290t213.5 210.5t291.5 77.5t291 -77.5t212 -210.5t78 -290q0 -119 -46.5 -227t-124.5 -186t-185 -124.5t-225 -46.5t-225.5 46.5t-186.5 124.5t-125.5 186.5t-46.5 226.5zM330 664 l112 -177q346 -79 699 0l110 177h-921zM451 1063l151 -189q7 -8 38.5 7.5t29.5 21.5q-15 29 -45.5 111t-55.5 119q-7 9 -38.5 -6t-58 -36.5t-21.5 -27.5zM463 457q23 -39 52.5 -74t70.5 -69.5t94 -55t111 -20.5q57 0 110 20.5t94 55t70.5 69.5t52.5 74q-319 -84 -655 0z M715 731h155l-77 187zM918 903q-7 -4 19 -19q35 -19 46 -10l147 189q5 6 -21 27.5t-57 36.5t-38 6q-30 -39 -61 -129.5t-35 -100.5zM1290 102v23h84v-23h-31v-77h-22v77h-31zM1384 25v100h31l19 -78l18 78h29v-100h-19v77l-20 -77h-19l-20 77v-77h-19z" />
<glyph unicode="?" horiz-adv-x="968" d="M-20 1393q224 188 507 182q222 -8 355.5 -123t136.5 -322q0 -166 -74 -292q-31 -54 -82 -105q-21 -21 -88 -70.5t-98 -87.5q-62 -76 -47 -202h-123q79 -19 129.5 -82t50.5 -144q0 -95 -67.5 -164t-163.5 -69q-95 0 -162.5 69.5t-67.5 163.5q0 81 51 144t128 82h-115 q-29 208 51 340q18 30 51 65.5t64.5 66t61.5 65t48.5 74t18.5 79.5q0 44 -28.5 71t-80.5 27q-123 0 -221 -125q-24 -34 -53 -34t-45 38z" />
<glyph unicode="@" horiz-adv-x="1654" d="M2 662q0 176 43 329q50 180 162 312t254 192q197 84 450 84q158 0 291 -37q139 -41 250.5 -131t159.5 -207q43 -110 43 -254q0 -184 -64 -354q-59 -148 -192 -260l33 -168q-106 -121 -279 -185t-365 -67q-311 -3 -509 117q-144 91 -210.5 259.5t-66.5 369.5zM342 625 q0 -125 39 -234q27 -64 77.5 -111t116 -72.5t134 -37.5t143.5 -12q150 0 289 65q-112 0 -168 78q-49 -43 -116.5 -65.5t-133.5 -22.5q-92 0 -161.5 34t-110 92.5t-60.5 130.5t-20 155q0 124 32 219q59 174 175 267.5t258 88.5q59 0 116 -26q2 8 2 18l273 -31q-68 57 -207 76 q-72 10 -131 10q-124 0 -229.5 -36t-165.5 -115q-72 -93 -112 -218t-40 -253zM721 612q0 -106 57 -106q42 0 60 23t26 71l49 324q-6 12 -32 12q-25 0 -62 -23q-43 -36 -70.5 -127.5t-27.5 -173.5zM1182 477q1 -7 18.5 6.5t36.5 32.5q90 92 90 342q0 156 -41 234z" />
<glyph unicode="A" horiz-adv-x="1110" d="M-31 -51l283 1591h606l283 -1591h-447l-35 282h-204l-29 -282h-457zM508 604h102l-51 426z" />
<glyph unicode="B" horiz-adv-x="1122" d="M31 -53v1589q144 10 213 18q204 19 274 19q258 0 377 -103q145 -128 145 -350q0 -191 -143 -297q115 -39 175 -147q58 -103 58 -240v-14q0 -116 -47 -217.5t-131 -167.5q-129 -100 -387 -100q-50 0 -159 8t-173 8q-55 0 -202 -6zM453 319q54 -6 65 -6q68 -1 102 37 q32 35 31 98v7q-2 77 -38 118t-119 41q-13 0 -41 -4v-291zM453 932q19 -2 35 -2q54 0 84 24q38 30 38 109q0 125 -96 125q-28 0 -61 -10v-246z" />
<glyph unicode="C" horiz-adv-x="950" d="M-2 737v24q0 121 18 231q20 121 70 230t124.5 187.5t186.5 124.5q110 45 246 45h6q75 0 155 -29.5t148 -91.5l-45 -405q-3 -30 -23 -42.5t-42 -5t-31 28.5q-65 122 -152 127q-56 -2 -101 -45t-70 -110q-26 -67 -38 -142q-11 -65 -10 -129v-20q0 -72 11.5 -140.5t33 -128 t58 -99.5t82.5 -48q10 -2 21 -2q86 0 179 125q9 20 30.5 28.5t40 -5t19.5 -48.5l9 -389q-164 -88 -310 -88h-5q-147 0 -263 59q-118 60 -192.5 170t-114 258.5t-41.5 329.5z" />
<glyph unicode="D" horiz-adv-x="1107" d="M31 -53v1591q63 3 229 20q148 15 259 15h26q156 -2 288 -75t197 -212q37 -83 57.5 -223t20.5 -297q0 -151 -18.5 -286.5t-51.5 -217.5q-73 -182 -189.5 -252.5t-303.5 -70.5q-47 0 -149.5 7t-162.5 7q-55 0 -202 -6zM453 307q28 -4 43 -4q40 0 71 14t43 39q58 134 58 426 q0 59 -4 133q-14 267 -158 267q-29 0 -53 -8v-867z" />
<glyph unicode="E" horiz-adv-x="804" d="M31 -51v1591h774v-383h-344v-223h327v-369h-327v-223h344v-393h-774z" />
<glyph unicode="F" horiz-adv-x="827" d="M31 -51v1591h796v-383h-368v-223h352v-369h-352v-616h-428z" />
<glyph unicode="G" horiz-adv-x="1146" d="M-4 748q0 343 151 571q93 135 221.5 197.5t305.5 62.5q89 0 189 -29t186 -94l-66 -422q-3 -30 -23 -42t-42 -4.5t-31 28.5q-39 63 -80.5 104t-73.5 45q-10 1 -19 1q-43 0 -80 -16q-44 -18 -74.5 -50.5t-54 -80t-37 -95.5t-22.5 -103q-6 -35 -6 -123q0 -67 6 -128 t21.5 -126t48.5 -104.5t80 -40.5h3q35 0 61 19q27 21 41 57.5t20 75.5t6 84q0 16 1.5 23t-1.5 17h-147v367h546q21 -254 21 -346q0 -348 -133 -516q-138 -160 -404 -160q-45 0 -65 2q-123 11 -219.5 64.5t-157.5 132t-100.5 184.5t-55.5 214.5t-16 230.5z" />
<glyph unicode="H" horiz-adv-x="1077" d="M20 -51v1591h435v-596h168v596h434v-1591h-434v626h-168v-626h-435z" />
<glyph unicode="I" horiz-adv-x="509" d="M37 -51v1591h436v-1591h-436z" />
<glyph unicode="J" horiz-adv-x="878" d="M-10 20l8 365q0 54 37 61q4 1 9 1q27 0 44 -35q94 -136 213 -136q54 0 85 22.5t32 86.5v1155h430v-1192q0 -94 -27.5 -168.5t-73.5 -122.5t-111 -79.5t-136 -44.5t-152 -13q-207 0 -358 100z" />
<glyph unicode="K" horiz-adv-x="1073" d="M31 -51v1591h434v-375l199 375h475l-357 -659l328 -932h-467l-170 508l-8 -17v-491h-434z" />
<glyph unicode="L" horiz-adv-x="823" d="M31 -51v1591h426v-1198h362v-393h-788z" />
<glyph unicode="M" horiz-adv-x="1267" d="M31 -51v1591h430l174 -547l172 547h430v-1591h-426v467l-176 -498l-178 498v-467h-426z" />
<glyph unicode="N" horiz-adv-x="1069" d="M31 -51v1591h362l228 -534v534h417v-1591h-346l-239 536v-536h-422z" />
<glyph unicode="O" horiz-adv-x="1243" d="M-2 750q0 125 19 239.5t65.5 224t115.5 189.5q70 81 179 129q107 48 240 47h6q98 0 182.5 -25t147 -69t112.5 -106.5t83 -134.5t55 -155.5t31 -167t9 -171.5q0 -127 -18 -241t-63 -224t-114 -189.5t-178 -127.5q-107 -48 -241 -48h-6h-6q-136 0 -242 48q-109 48 -178 127 t-114.5 189.5t-64.5 224.5t-20 241zM444 745q0 -77 8 -149t26.5 -143.5t56 -116t88.5 -47.5q51 3 87.5 47.5t54.5 116t26 143.5t8 149q0 74 -8 141t-26 132.5t-54.5 106.5t-87.5 46q-52 -5 -89.5 -46t-55.5 -107t-26 -132t-8 -141z" />
<glyph unicode="P" horiz-adv-x="1067" d="M31 -51v1589q95 2 245 18.5t269 16.5q150 0 275 -77.5t186 -213.5q69 -156 69 -360q0 -198 -61 -336q-64 -141 -175.5 -217t-248.5 -76q-70 0 -137 18v-362h-422zM453 696q30 -20 58 -20q9 0 17 2q52 11 86 79q31 62 31 160v17q-5 258 -141 258q-21 0 -51 -6v-490z" />
<glyph unicode="Q" horiz-adv-x="1267" d="M-2 752q0 127 19.5 242.5t67 224t118.5 187t181.5 126t248.5 47.5q139 0 250 -48t182 -127t118 -188.5t67 -225.5q18 -109 18 -230v-12q-1 -124 -21.5 -238t-63.5 -221t-118.5 -191t-177.5 -131q6 -44 6 -86q-3 -79 -46.5 -138.5t-108.5 -88.5t-140 -29q-91 0 -179.5 52 t-133.5 135l108 149q-107 41 -186 124.5t-123.5 193t-65 227t-20.5 246.5zM440 748q0 -149 29 -271v12q0 149 94 227q98 82 264 85q-1 97 -18.5 174.5t-63 134.5t-114.5 61q-52 -3 -91 -42.5t-60 -103.5t-30.5 -133t-9.5 -144zM774 365q36 120 43 157q-21 -9 -31 -41 t-11 -53t-1 -63z" />
<glyph unicode="R" horiz-adv-x="1048" d="M31 -51v1591q96 0 211 14q185 19 217 19q98 0 177 -12t152 -50q270 -138 270 -561q0 -25 -1 -51q-15 -183 -71 -288t-157 -156l258 -506h-464l-170 352v-352h-422zM453 741q21 -6 41 -6q70 0 105.5 67.5t35.5 170.5q0 88 -31.5 150.5t-97.5 62.5q-21 0 -53 -4v-441z" />
<glyph unicode="S" horiz-adv-x="937" d="M-10 1012q0 166 47 258q66 148 201 233q122 77 299 77q19 0 38 -1q61 -2 145.5 -32.5t145.5 -82.5l-51 -436q-3 -23 -20.5 -32.5t-36 -4t-25.5 20.5q-77 136 -164 145q-63 0 -101.5 -38.5t-43.5 -102.5q-1 -7 -1 -14q-1 -46 23 -76q26 -34 86 -60q158 -64 221 -106 q128 -84 170 -231q14 -49 21 -107q3 -26 3 -52q-1 -60 -15 -122q-20 -90 -58 -152q-61 -92 -167.5 -134t-225.5 -42q-103 0 -219.5 32.5t-191.5 84.5l20 364q1 28 13 44t28 16q18 0 30 -10.5t31.5 -37.5t38.5 -46q95 -95 197 -95q33 0 56.5 17t27.5 47q2 12 2 23 q0 34 -14 67q-18 44 -54 70q-41 29 -135 63q-47 19 -70 29t-63.5 33t-64.5 46t-50.5 60.5t-42.5 83.5q-30 80 -30 201z" />
<glyph unicode="T" horiz-adv-x="1001" d="M-14 1157l30 383h965l35 -383h-289v-1208h-438v1208h-303z" />
<glyph unicode="U" horiz-adv-x="1105" d="M31 410v1130h430v-1110q0 -27 1 -42.5t6 -35t14.5 -29.5t27 -17t43.5 -7t43.5 7t27 17t14.5 29.5t6 35t1 42.5v1110h430v-1130q0 -490 -522 -490t-522 490z" />
<glyph unicode="V" horiz-adv-x="1089" d="M-31 1540h451l127 -840l125 840h448l-329 -1591h-490z" />
<glyph unicode="W" horiz-adv-x="1476" d="M-31 1540h447l57 -590l98 590h332l96 -590l58 590h450l-290 -1591h-394l-86 563l-84 -563h-395z" />
<glyph unicode="X" horiz-adv-x="1085" d="M-49 -51l317 819l-303 772h459l119 -391l119 391h458l-303 -772l318 -819h-469l-123 407l-123 -407h-469z" />
<glyph unicode="Y" horiz-adv-x="1173" d="M-49 1540h473l164 -522l157 522h480l-424 -1067v-524h-432v526z" />
<glyph unicode="Z" horiz-adv-x="933" d="M0 -51v252l432 956h-395v383h897v-274l-406 -924h336v-393h-864z" />
<glyph unicode="[" d="M68 731q0 196 97 363t263.5 264.5t362.5 97.5t363 -97.5t264.5 -264.5t97.5 -363t-97.5 -363t-264.5 -264.5t-363 -97.5t-362.5 97.5t-263.5 264.5t-97 363zM164 731q0 -169 84.5 -313.5t229 -229t313.5 -84.5q128 0 244 50t199 134t132 200t49 243t-49 242.5t-132 199.5 t-199 133.5t-244 49.5q-169 0 -313.5 -84t-229 -228t-84.5 -313zM207 731q0 157 79 290t213.5 210.5t291.5 77.5t291 -77.5t212 -210.5t78 -290q0 -119 -46.5 -227t-124.5 -186t-185 -124.5t-225 -46.5t-225.5 46.5t-186.5 124.5t-125.5 186.5t-46.5 226.5zM330 664 l112 -177q346 -79 699 0l110 177h-921zM451 1063l151 -189q7 -8 38.5 7.5t29.5 21.5q-15 29 -45.5 111t-55.5 119q-7 9 -38.5 -6t-58 -36.5t-21.5 -27.5zM463 457q23 -39 52.5 -74t70.5 -69.5t94 -55t111 -20.5q57 0 110 20.5t94 55t70.5 69.5t52.5 74q-319 -84 -655 0z M715 731h155l-77 187zM918 903q-7 -4 19 -19q35 -19 46 -10l147 189q5 6 -21 27.5t-57 36.5t-38 6q-30 -39 -61 -129.5t-35 -100.5zM1290 102v23h84v-23h-31v-77h-22v77h-31zM1384 25v100h31l19 -78l18 78h29v-100h-19v77l-20 -77h-19l-20 77v-77h-19z" />
<glyph unicode="\" d="M68 731q0 196 97 363t263.5 264.5t362.5 97.5t363 -97.5t264.5 -264.5t97.5 -363t-97.5 -363t-264.5 -264.5t-363 -97.5t-362.5 97.5t-263.5 264.5t-97 363zM164 731q0 -169 84.5 -313.5t229 -229t313.5 -84.5q128 0 244 50t199 134t132 200t49 243t-49 242.5t-132 199.5 t-199 133.5t-244 49.5q-169 0 -313.5 -84t-229 -228t-84.5 -313zM207 731q0 157 79 290t213.5 210.5t291.5 77.5t291 -77.5t212 -210.5t78 -290q0 -119 -46.5 -227t-124.5 -186t-185 -124.5t-225 -46.5t-225.5 46.5t-186.5 124.5t-125.5 186.5t-46.5 226.5zM330 664 l112 -177q346 -79 699 0l110 177h-921zM451 1063l151 -189q7 -8 38.5 7.5t29.5 21.5q-15 29 -45.5 111t-55.5 119q-7 9 -38.5 -6t-58 -36.5t-21.5 -27.5zM463 457q23 -39 52.5 -74t70.5 -69.5t94 -55t111 -20.5q57 0 110 20.5t94 55t70.5 69.5t52.5 74q-319 -84 -655 0z M715 731h155l-77 187zM918 903q-7 -4 19 -19q35 -19 46 -10l147 189q5 6 -21 27.5t-57 36.5t-38 6q-30 -39 -61 -129.5t-35 -100.5zM1290 102v23h84v-23h-31v-77h-22v77h-31zM1384 25v100h31l19 -78l18 78h29v-100h-19v77l-20 -77h-19l-20 77v-77h-19z" />
<glyph unicode="]" d="M68 731q0 196 97 363t263.5 264.5t362.5 97.5t363 -97.5t264.5 -264.5t97.5 -363t-97.5 -363t-264.5 -264.5t-363 -97.5t-362.5 97.5t-263.5 264.5t-97 363zM164 731q0 -169 84.5 -313.5t229 -229t313.5 -84.5q128 0 244 50t199 134t132 200t49 243t-49 242.5t-132 199.5 t-199 133.5t-244 49.5q-169 0 -313.5 -84t-229 -228t-84.5 -313zM207 731q0 157 79 290t213.5 210.5t291.5 77.5t291 -77.5t212 -210.5t78 -290q0 -119 -46.5 -227t-124.5 -186t-185 -124.5t-225 -46.5t-225.5 46.5t-186.5 124.5t-125.5 186.5t-46.5 226.5zM330 664 l112 -177q346 -79 699 0l110 177h-921zM451 1063l151 -189q7 -8 38.5 7.5t29.5 21.5q-15 29 -45.5 111t-55.5 119q-7 9 -38.5 -6t-58 -36.5t-21.5 -27.5zM463 457q23 -39 52.5 -74t70.5 -69.5t94 -55t111 -20.5q57 0 110 20.5t94 55t70.5 69.5t52.5 74q-319 -84 -655 0z M715 731h155l-77 187zM918 903q-7 -4 19 -19q35 -19 46 -10l147 189q5 6 -21 27.5t-57 36.5t-38 6q-30 -39 -61 -129.5t-35 -100.5zM1290 102v23h84v-23h-31v-77h-22v77h-31zM1384 25v100h31l19 -78l18 78h29v-100h-19v77l-20 -77h-19l-20 77v-77h-19z" />
<glyph unicode="^" d="M68 731q0 196 97 363t263.5 264.5t362.5 97.5t363 -97.5t264.5 -264.5t97.5 -363t-97.5 -363t-264.5 -264.5t-363 -97.5t-362.5 97.5t-263.5 264.5t-97 363zM164 731q0 -169 84.5 -313.5t229 -229t313.5 -84.5q128 0 244 50t199 134t132 200t49 243t-49 242.5t-132 199.5 t-199 133.5t-244 49.5q-169 0 -313.5 -84t-229 -228t-84.5 -313zM207 731q0 157 79 290t213.5 210.5t291.5 77.5t291 -77.5t212 -210.5t78 -290q0 -119 -46.5 -227t-124.5 -186t-185 -124.5t-225 -46.5t-225.5 46.5t-186.5 124.5t-125.5 186.5t-46.5 226.5zM330 664 l112 -177q346 -79 699 0l110 177h-921zM451 1063l151 -189q7 -8 38.5 7.5t29.5 21.5q-15 29 -45.5 111t-55.5 119q-7 9 -38.5 -6t-58 -36.5t-21.5 -27.5zM463 457q23 -39 52.5 -74t70.5 -69.5t94 -55t111 -20.5q57 0 110 20.5t94 55t70.5 69.5t52.5 74q-319 -84 -655 0z M715 731h155l-77 187zM918 903q-7 -4 19 -19q35 -19 46 -10l147 189q5 6 -21 27.5t-57 36.5t-38 6q-30 -39 -61 -129.5t-35 -100.5zM1290 102v23h84v-23h-31v-77h-22v77h-31zM1384 25v100h31l19 -78l18 78h29v-100h-19v77l-20 -77h-19l-20 77v-77h-19z" />
<glyph unicode="_" horiz-adv-x="751" d="M10 16h731v-335h-731v335z" />
<glyph unicode="`" d="M68 731q0 196 97 363t263.5 264.5t362.5 97.5t363 -97.5t264.5 -264.5t97.5 -363t-97.5 -363t-264.5 -264.5t-363 -97.5t-362.5 97.5t-263.5 264.5t-97 363zM164 731q0 -169 84.5 -313.5t229 -229t313.5 -84.5q128 0 244 50t199 134t132 200t49 243t-49 242.5t-132 199.5 t-199 133.5t-244 49.5q-169 0 -313.5 -84t-229 -228t-84.5 -313zM207 731q0 157 79 290t213.5 210.5t291.5 77.5t291 -77.5t212 -210.5t78 -290q0 -119 -46.5 -227t-124.5 -186t-185 -124.5t-225 -46.5t-225.5 46.5t-186.5 124.5t-125.5 186.5t-46.5 226.5zM330 664 l112 -177q346 -79 699 0l110 177h-921zM451 1063l151 -189q7 -8 38.5 7.5t29.5 21.5q-15 29 -45.5 111t-55.5 119q-7 9 -38.5 -6t-58 -36.5t-21.5 -27.5zM463 457q23 -39 52.5 -74t70.5 -69.5t94 -55t111 -20.5q57 0 110 20.5t94 55t70.5 69.5t52.5 74q-319 -84 -655 0z M715 731h155l-77 187zM918 903q-7 -4 19 -19q35 -19 46 -10l147 189q5 6 -21 27.5t-57 36.5t-38 6q-30 -39 -61 -129.5t-35 -100.5zM1290 102v23h84v-23h-31v-77h-22v77h-31zM1384 25v100h31l19 -78l18 78h29v-100h-19v77l-20 -77h-19l-20 77v-77h-19z" />
<glyph unicode="a" horiz-adv-x="1110" d="M-31 -51l283 1591h606l283 -1591h-447l-35 282h-204l-29 -282h-457zM508 604h102l-51 426z" />
<glyph unicode="b" horiz-adv-x="1122" d="M31 -53v1589q144 10 213 18q204 19 274 19q258 0 377 -103q145 -128 145 -350q0 -191 -143 -297q115 -39 175 -147q58 -103 58 -240v-14q0 -116 -47 -217.5t-131 -167.5q-129 -100 -387 -100q-50 0 -159 8t-173 8q-55 0 -202 -6zM453 319q54 -6 65 -6q68 -1 102 37 q32 35 31 98v7q-2 77 -38 118t-119 41q-13 0 -41 -4v-291zM453 932q19 -2 35 -2q54 0 84 24q38 30 38 109q0 125 -96 125q-28 0 -61 -10v-246z" />
<glyph unicode="c" horiz-adv-x="950" d="M-2 737v24q0 121 18 231q20 121 70 230t124.5 187.5t186.5 124.5q110 45 246 45h6q75 0 155 -29.5t148 -91.5l-45 -405q-3 -30 -23 -42.5t-42 -5t-31 28.5q-65 122 -152 127q-56 -2 -101 -45t-70 -110q-26 -67 -38 -142q-11 -65 -10 -129v-20q0 -72 11.5 -140.5t33 -128 t58 -99.5t82.5 -48q10 -2 21 -2q86 0 179 125q9 20 30.5 28.5t40 -5t19.5 -48.5l9 -389q-164 -88 -310 -88h-5q-147 0 -263 59q-118 60 -192.5 170t-114 258.5t-41.5 329.5z" />
<glyph unicode="d" horiz-adv-x="1107" d="M31 -53v1591q63 3 229 20q148 15 259 15h26q156 -2 288 -75t197 -212q37 -83 57.5 -223t20.5 -297q0 -151 -18.5 -286.5t-51.5 -217.5q-73 -182 -189.5 -252.5t-303.5 -70.5q-47 0 -149.5 7t-162.5 7q-55 0 -202 -6zM453 307q28 -4 43 -4q40 0 71 14t43 39q58 134 58 426 q0 59 -4 133q-14 267 -158 267q-29 0 -53 -8v-867z" />
<glyph unicode="e" horiz-adv-x="804" d="M31 -51v1591h774v-383h-344v-223h327v-369h-327v-223h344v-393h-774z" />
<glyph unicode="f" horiz-adv-x="827" d="M31 -51v1591h796v-383h-368v-223h352v-369h-352v-616h-428z" />
<glyph unicode="g" horiz-adv-x="1146" d="M-4 748q0 343 151 571q93 135 221.5 197.5t305.5 62.5q89 0 189 -29t186 -94l-66 -422q-3 -30 -23 -42t-42 -4.5t-31 28.5q-39 63 -80.5 104t-73.5 45q-10 1 -19 1q-43 0 -80 -16q-44 -18 -74.5 -50.5t-54 -80t-37 -95.5t-22.5 -103q-6 -35 -6 -123q0 -67 6 -128 t21.5 -126t48.5 -104.5t80 -40.5h3q35 0 61 19q27 21 41 57.5t20 75.5t6 84q0 16 1.5 23t-1.5 17h-147v367h546q21 -254 21 -346q0 -348 -133 -516q-138 -160 -404 -160q-45 0 -65 2q-123 11 -219.5 64.5t-157.5 132t-100.5 184.5t-55.5 214.5t-16 230.5z" />
<glyph unicode="h" horiz-adv-x="1077" d="M20 -51v1591h435v-596h168v596h434v-1591h-434v626h-168v-626h-435z" />
<glyph unicode="i" horiz-adv-x="509" d="M37 -51v1591h436v-1591h-436z" />
<glyph unicode="j" horiz-adv-x="878" d="M-10 20l8 365q0 54 37 61q4 1 9 1q27 0 44 -35q94 -136 213 -136q54 0 85 22.5t32 86.5v1155h430v-1192q0 -94 -27.5 -168.5t-73.5 -122.5t-111 -79.5t-136 -44.5t-152 -13q-207 0 -358 100z" />
<glyph unicode="k" horiz-adv-x="1073" d="M31 -51v1591h434v-375l199 375h475l-357 -659l328 -932h-467l-170 508l-8 -17v-491h-434z" />
<glyph unicode="l" horiz-adv-x="823" d="M31 -51v1591h426v-1198h362v-393h-788z" />
<glyph unicode="m" horiz-adv-x="1267" d="M31 -51v1591h430l174 -547l172 547h430v-1591h-426v467l-176 -498l-178 498v-467h-426z" />
<glyph unicode="n" horiz-adv-x="1069" d="M31 -51v1591h362l228 -534v534h417v-1591h-346l-239 536v-536h-422z" />
<glyph unicode="o" horiz-adv-x="1243" d="M-2 750q0 125 19 239.5t65.5 224t115.5 189.5q70 81 179 129q107 48 240 47h6q98 0 182.5 -25t147 -69t112.5 -106.5t83 -134.5t55 -155.5t31 -167t9 -171.5q0 -127 -18 -241t-63 -224t-114 -189.5t-178 -127.5q-107 -48 -241 -48h-6h-6q-136 0 -242 48q-109 48 -178 127 t-114.5 189.5t-64.5 224.5t-20 241zM444 745q0 -77 8 -149t26.5 -143.5t56 -116t88.5 -47.5q51 3 87.5 47.5t54.5 116t26 143.5t8 149q0 74 -8 141t-26 132.5t-54.5 106.5t-87.5 46q-52 -5 -89.5 -46t-55.5 -107t-26 -132t-8 -141z" />
<glyph unicode="p" horiz-adv-x="1067" d="M31 -51v1589q95 2 245 18.5t269 16.5q150 0 275 -77.5t186 -213.5q69 -156 69 -360q0 -198 -61 -336q-64 -141 -175.5 -217t-248.5 -76q-70 0 -137 18v-362h-422zM453 696q30 -20 58 -20q9 0 17 2q52 11 86 79q31 62 31 160v17q-5 258 -141 258q-21 0 -51 -6v-490z" />
<glyph unicode="q" horiz-adv-x="1267" d="M-2 752q0 127 19.5 242.5t67 224t118.5 187t181.5 126t248.5 47.5q139 0 250 -48t182 -127t118 -188.5t67 -225.5q18 -109 18 -230v-12q-1 -124 -21.5 -238t-63.5 -221t-118.5 -191t-177.5 -131q6 -44 6 -86q-3 -79 -46.5 -138.5t-108.5 -88.5t-140 -29q-91 0 -179.5 52 t-133.5 135l108 149q-107 41 -186 124.5t-123.5 193t-65 227t-20.5 246.5zM440 748q0 -149 29 -271v12q0 149 94 227q98 82 264 85q-1 97 -18.5 174.5t-63 134.5t-114.5 61q-52 -3 -91 -42.5t-60 -103.5t-30.5 -133t-9.5 -144zM774 365q36 120 43 157q-21 -9 -31 -41 t-11 -53t-1 -63z" />
<glyph unicode="r" horiz-adv-x="1048" d="M31 -51v1591q96 0 211 14q185 19 217 19q98 0 177 -12t152 -50q270 -138 270 -561q0 -25 -1 -51q-15 -183 -71 -288t-157 -156l258 -506h-464l-170 352v-352h-422zM453 741q21 -6 41 -6q70 0 105.5 67.5t35.5 170.5q0 88 -31.5 150.5t-97.5 62.5q-21 0 -53 -4v-441z" />
<glyph unicode="s" horiz-adv-x="937" d="M-10 1012q0 166 47 258q66 148 201 233q122 77 299 77q19 0 38 -1q61 -2 145.5 -32.5t145.5 -82.5l-51 -436q-3 -23 -20.5 -32.5t-36 -4t-25.5 20.5q-77 136 -164 145q-63 0 -101.5 -38.5t-43.5 -102.5q-1 -7 -1 -14q-1 -46 23 -76q26 -34 86 -60q158 -64 221 -106 q128 -84 170 -231q14 -49 21 -107q3 -26 3 -52q-1 -60 -15 -122q-20 -90 -58 -152q-61 -92 -167.5 -134t-225.5 -42q-103 0 -219.5 32.5t-191.5 84.5l20 364q1 28 13 44t28 16q18 0 30 -10.5t31.5 -37.5t38.5 -46q95 -95 197 -95q33 0 56.5 17t27.5 47q2 12 2 23 q0 34 -14 67q-18 44 -54 70q-41 29 -135 63q-47 19 -70 29t-63.5 33t-64.5 46t-50.5 60.5t-42.5 83.5q-30 80 -30 201z" />
<glyph unicode="t" horiz-adv-x="1001" d="M-14 1157l30 383h965l35 -383h-289v-1208h-438v1208h-303z" />
<glyph unicode="u" horiz-adv-x="1105" d="M31 410v1130h430v-1110q0 -27 1 -42.5t6 -35t14.5 -29.5t27 -17t43.5 -7t43.5 7t27 17t14.5 29.5t6 35t1 42.5v1110h430v-1130q0 -490 -522 -490t-522 490z" />
<glyph unicode="v" horiz-adv-x="1089" d="M-31 1540h451l127 -840l125 840h448l-329 -1591h-490z" />
<glyph unicode="w" horiz-adv-x="1476" d="M-31 1540h447l57 -590l98 590h332l96 -590l58 590h450l-290 -1591h-394l-86 563l-84 -563h-395z" />
<glyph unicode="x" horiz-adv-x="1085" d="M-49 -51l317 819l-303 772h459l119 -391l119 391h458l-303 -772l318 -819h-469l-123 407l-123 -407h-469z" />
<glyph unicode="y" horiz-adv-x="1173" d="M-49 1540h473l164 -522l157 522h480l-424 -1067v-524h-432v526z" />
<glyph unicode="z" horiz-adv-x="933" d="M0 -51v252l432 956h-395v383h897v-274l-406 -924h336v-393h-864z" />
<glyph unicode="{" d="M68 731q0 196 97 363t263.5 264.5t362.5 97.5t363 -97.5t264.5 -264.5t97.5 -363t-97.5 -363t-264.5 -264.5t-363 -97.5t-362.5 97.5t-263.5 264.5t-97 363zM164 731q0 -169 84.5 -313.5t229 -229t313.5 -84.5q128 0 244 50t199 134t132 200t49 243t-49 242.5t-132 199.5 t-199 133.5t-244 49.5q-169 0 -313.5 -84t-229 -228t-84.5 -313zM207 731q0 157 79 290t213.5 210.5t291.5 77.5t291 -77.5t212 -210.5t78 -290q0 -119 -46.5 -227t-124.5 -186t-185 -124.5t-225 -46.5t-225.5 46.5t-186.5 124.5t-125.5 186.5t-46.5 226.5zM330 664 l112 -177q346 -79 699 0l110 177h-921zM451 1063l151 -189q7 -8 38.5 7.5t29.5 21.5q-15 29 -45.5 111t-55.5 119q-7 9 -38.5 -6t-58 -36.5t-21.5 -27.5zM463 457q23 -39 52.5 -74t70.5 -69.5t94 -55t111 -20.5q57 0 110 20.5t94 55t70.5 69.5t52.5 74q-319 -84 -655 0z M715 731h155l-77 187zM918 903q-7 -4 19 -19q35 -19 46 -10l147 189q5 6 -21 27.5t-57 36.5t-38 6q-30 -39 -61 -129.5t-35 -100.5zM1290 102v23h84v-23h-31v-77h-22v77h-31zM1384 25v100h31l19 -78l18 78h29v-100h-19v77l-20 -77h-19l-20 77v-77h-19z" />
<glyph unicode="|" d="M68 731q0 196 97 363t263.5 264.5t362.5 97.5t363 -97.5t264.5 -264.5t97.5 -363t-97.5 -363t-264.5 -264.5t-363 -97.5t-362.5 97.5t-263.5 264.5t-97 363zM164 731q0 -169 84.5 -313.5t229 -229t313.5 -84.5q128 0 244 50t199 134t132 200t49 243t-49 242.5t-132 199.5 t-199 133.5t-244 49.5q-169 0 -313.5 -84t-229 -228t-84.5 -313zM207 731q0 157 79 290t213.5 210.5t291.5 77.5t291 -77.5t212 -210.5t78 -290q0 -119 -46.5 -227t-124.5 -186t-185 -124.5t-225 -46.5t-225.5 46.5t-186.5 124.5t-125.5 186.5t-46.5 226.5zM330 664 l112 -177q346 -79 699 0l110 177h-921zM451 1063l151 -189q7 -8 38.5 7.5t29.5 21.5q-15 29 -45.5 111t-55.5 119q-7 9 -38.5 -6t-58 -36.5t-21.5 -27.5zM463 457q23 -39 52.5 -74t70.5 -69.5t94 -55t111 -20.5q57 0 110 20.5t94 55t70.5 69.5t52.5 74q-319 -84 -655 0z M715 731h155l-77 187zM918 903q-7 -4 19 -19q35 -19 46 -10l147 189q5 6 -21 27.5t-57 36.5t-38 6q-30 -39 -61 -129.5t-35 -100.5zM1290 102v23h84v-23h-31v-77h-22v77h-31zM1384 25v100h31l19 -78l18 78h29v-100h-19v77l-20 -77h-19l-20 77v-77h-19z" />
<glyph unicode="}" d="M68 731q0 196 97 363t263.5 264.5t362.5 97.5t363 -97.5t264.5 -264.5t97.5 -363t-97.5 -363t-264.5 -264.5t-363 -97.5t-362.5 97.5t-263.5 264.5t-97 363zM164 731q0 -169 84.5 -313.5t229 -229t313.5 -84.5q128 0 244 50t199 134t132 200t49 243t-49 242.5t-132 199.5 t-199 133.5t-244 49.5q-169 0 -313.5 -84t-229 -228t-84.5 -313zM207 731q0 157 79 290t213.5 210.5t291.5 77.5t291 -77.5t212 -210.5t78 -290q0 -119 -46.5 -227t-124.5 -186t-185 -124.5t-225 -46.5t-225.5 46.5t-186.5 124.5t-125.5 186.5t-46.5 226.5zM330 664 l112 -177q346 -79 699 0l110 177h-921zM451 1063l151 -189q7 -8 38.5 7.5t29.5 21.5q-15 29 -45.5 111t-55.5 119q-7 9 -38.5 -6t-58 -36.5t-21.5 -27.5zM463 457q23 -39 52.5 -74t70.5 -69.5t94 -55t111 -20.5q57 0 110 20.5t94 55t70.5 69.5t52.5 74q-319 -84 -655 0z M715 731h155l-77 187zM918 903q-7 -4 19 -19q35 -19 46 -10l147 189q5 6 -21 27.5t-57 36.5t-38 6q-30 -39 -61 -129.5t-35 -100.5zM1290 102v23h84v-23h-31v-77h-22v77h-31zM1384 25v100h31l19 -78l18 78h29v-100h-19v77l-20 -77h-19l-20 77v-77h-19z" />
<glyph unicode="~" d="M68 731q0 196 97 363t263.5 264.5t362.5 97.5t363 -97.5t264.5 -264.5t97.5 -363t-97.5 -363t-264.5 -264.5t-363 -97.5t-362.5 97.5t-263.5 264.5t-97 363zM164 731q0 -169 84.5 -313.5t229 -229t313.5 -84.5q128 0 244 50t199 134t132 200t49 243t-49 242.5t-132 199.5 t-199 133.5t-244 49.5q-169 0 -313.5 -84t-229 -228t-84.5 -313zM207 731q0 157 79 290t213.5 210.5t291.5 77.5t291 -77.5t212 -210.5t78 -290q0 -119 -46.5 -227t-124.5 -186t-185 -124.5t-225 -46.5t-225.5 46.5t-186.5 124.5t-125.5 186.5t-46.5 226.5zM330 664 l112 -177q346 -79 699 0l110 177h-921zM451 1063l151 -189q7 -8 38.5 7.5t29.5 21.5q-15 29 -45.5 111t-55.5 119q-7 9 -38.5 -6t-58 -36.5t-21.5 -27.5zM463 457q23 -39 52.5 -74t70.5 -69.5t94 -55t111 -20.5q57 0 110 20.5t94 55t70.5 69.5t52.5 74q-319 -84 -655 0z M715 731h155l-77 187zM918 903q-7 -4 19 -19q35 -19 46 -10l147 189q5 6 -21 27.5t-57 36.5t-38 6q-30 -39 -61 -129.5t-35 -100.5zM1290 102v23h84v-23h-31v-77h-22v77h-31zM1384 25v100h31l19 -78l18 78h29v-100h-19v77l-20 -77h-19l-20 77v-77h-19z" />
<glyph unicode="&#xa1;" d="M68 731q0 196 97 363t263.5 264.5t362.5 97.5t363 -97.5t264.5 -264.5t97.5 -363t-97.5 -363t-264.5 -264.5t-363 -97.5t-362.5 97.5t-263.5 264.5t-97 363zM164 731q0 -169 84.5 -313.5t229 -229t313.5 -84.5q128 0 244 50t199 134t132 200t49 243t-49 242.5t-132 199.5 t-199 133.5t-244 49.5q-169 0 -313.5 -84t-229 -228t-84.5 -313zM207 731q0 157 79 290t213.5 210.5t291.5 77.5t291 -77.5t212 -210.5t78 -290q0 -119 -46.5 -227t-124.5 -186t-185 -124.5t-225 -46.5t-225.5 46.5t-186.5 124.5t-125.5 186.5t-46.5 226.5zM330 664 l112 -177q346 -79 699 0l110 177h-921zM451 1063l151 -189q7 -8 38.5 7.5t29.5 21.5q-15 29 -45.5 111t-55.5 119q-7 9 -38.5 -6t-58 -36.5t-21.5 -27.5zM463 457q23 -39 52.5 -74t70.5 -69.5t94 -55t111 -20.5q57 0 110 20.5t94 55t70.5 69.5t52.5 74q-319 -84 -655 0z M715 731h155l-77 187zM918 903q-7 -4 19 -19q35 -19 46 -10l147 189q5 6 -21 27.5t-57 36.5t-38 6q-30 -39 -61 -129.5t-35 -100.5zM1290 102v23h84v-23h-31v-77h-22v77h-31zM1384 25v100h31l19 -78l18 78h29v-100h-19v77l-20 -77h-19l-20 77v-77h-19z" />
<glyph unicode="&#xa2;" d="M68 731q0 196 97 363t263.5 264.5t362.5 97.5t363 -97.5t264.5 -264.5t97.5 -363t-97.5 -363t-264.5 -264.5t-363 -97.5t-362.5 97.5t-263.5 264.5t-97 363zM164 731q0 -169 84.5 -313.5t229 -229t313.5 -84.5q128 0 244 50t199 134t132 200t49 243t-49 242.5t-132 199.5 t-199 133.5t-244 49.5q-169 0 -313.5 -84t-229 -228t-84.5 -313zM207 731q0 157 79 290t213.5 210.5t291.5 77.5t291 -77.5t212 -210.5t78 -290q0 -119 -46.5 -227t-124.5 -186t-185 -124.5t-225 -46.5t-225.5 46.5t-186.5 124.5t-125.5 186.5t-46.5 226.5zM330 664 l112 -177q346 -79 699 0l110 177h-921zM451 1063l151 -189q7 -8 38.5 7.5t29.5 21.5q-15 29 -45.5 111t-55.5 119q-7 9 -38.5 -6t-58 -36.5t-21.5 -27.5zM463 457q23 -39 52.5 -74t70.5 -69.5t94 -55t111 -20.5q57 0 110 20.5t94 55t70.5 69.5t52.5 74q-319 -84 -655 0z M715 731h155l-77 187zM918 903q-7 -4 19 -19q35 -19 46 -10l147 189q5 6 -21 27.5t-57 36.5t-38 6q-30 -39 -61 -129.5t-35 -100.5zM1290 102v23h84v-23h-31v-77h-22v77h-31zM1384 25v100h31l19 -78l18 78h29v-100h-19v77l-20 -77h-19l-20 77v-77h-19z" />
<glyph unicode="&#xa3;" d="M68 731q0 196 97 363t263.5 264.5t362.5 97.5t363 -97.5t264.5 -264.5t97.5 -363t-97.5 -363t-264.5 -264.5t-363 -97.5t-362.5 97.5t-263.5 264.5t-97 363zM164 731q0 -169 84.5 -313.5t229 -229t313.5 -84.5q128 0 244 50t199 134t132 200t49 243t-49 242.5t-132 199.5 t-199 133.5t-244 49.5q-169 0 -313.5 -84t-229 -228t-84.5 -313zM207 731q0 157 79 290t213.5 210.5t291.5 77.5t291 -77.5t212 -210.5t78 -290q0 -119 -46.5 -227t-124.5 -186t-185 -124.5t-225 -46.5t-225.5 46.5t-186.5 124.5t-125.5 186.5t-46.5 226.5zM330 664 l112 -177q346 -79 699 0l110 177h-921zM451 1063l151 -189q7 -8 38.5 7.5t29.5 21.5q-15 29 -45.5 111t-55.5 119q-7 9 -38.5 -6t-58 -36.5t-21.5 -27.5zM463 457q23 -39 52.5 -74t70.5 -69.5t94 -55t111 -20.5q57 0 110 20.5t94 55t70.5 69.5t52.5 74q-319 -84 -655 0z M715 731h155l-77 187zM918 903q-7 -4 19 -19q35 -19 46 -10l147 189q5 6 -21 27.5t-57 36.5t-38 6q-30 -39 -61 -129.5t-35 -100.5zM1290 102v23h84v-23h-31v-77h-22v77h-31zM1384 25v100h31l19 -78l18 78h29v-100h-19v77l-20 -77h-19l-20 77v-77h-19z" />
<glyph unicode="&#xa4;" d="M68 731q0 196 97 363t263.5 264.5t362.5 97.5t363 -97.5t264.5 -264.5t97.5 -363t-97.5 -363t-264.5 -264.5t-363 -97.5t-362.5 97.5t-263.5 264.5t-97 363zM164 731q0 -169 84.5 -313.5t229 -229t313.5 -84.5q128 0 244 50t199 134t132 200t49 243t-49 242.5t-132 199.5 t-199 133.5t-244 49.5q-169 0 -313.5 -84t-229 -228t-84.5 -313zM207 731q0 157 79 290t213.5 210.5t291.5 77.5t291 -77.5t212 -210.5t78 -290q0 -119 -46.5 -227t-124.5 -186t-185 -124.5t-225 -46.5t-225.5 46.5t-186.5 124.5t-125.5 186.5t-46.5 226.5zM330 664 l112 -177q346 -79 699 0l110 177h-921zM451 1063l151 -189q7 -8 38.5 7.5t29.5 21.5q-15 29 -45.5 111t-55.5 119q-7 9 -38.5 -6t-58 -36.5t-21.5 -27.5zM463 457q23 -39 52.5 -74t70.5 -69.5t94 -55t111 -20.5q57 0 110 20.5t94 55t70.5 69.5t52.5 74q-319 -84 -655 0z M715 731h155l-77 187zM918 903q-7 -4 19 -19q35 -19 46 -10l147 189q5 6 -21 27.5t-57 36.5t-38 6q-30 -39 -61 -129.5t-35 -100.5zM1290 102v23h84v-23h-31v-77h-22v77h-31zM1384 25v100h31l19 -78l18 78h29v-100h-19v77l-20 -77h-19l-20 77v-77h-19z" />
<glyph unicode="&#xa5;" d="M68 731q0 196 97 363t263.5 264.5t362.5 97.5t363 -97.5t264.5 -264.5t97.5 -363t-97.5 -363t-264.5 -264.5t-363 -97.5t-362.5 97.5t-263.5 264.5t-97 363zM164 731q0 -169 84.5 -313.5t229 -229t313.5 -84.5q128 0 244 50t199 134t132 200t49 243t-49 242.5t-132 199.5 t-199 133.5t-244 49.5q-169 0 -313.5 -84t-229 -228t-84.5 -313zM207 731q0 157 79 290t213.5 210.5t291.5 77.5t291 -77.5t212 -210.5t78 -290q0 -119 -46.5 -227t-124.5 -186t-185 -124.5t-225 -46.5t-225.5 46.5t-186.5 124.5t-125.5 186.5t-46.5 226.5zM330 664 l112 -177q346 -79 699 0l110 177h-921zM451 1063l151 -189q7 -8 38.5 7.5t29.5 21.5q-15 29 -45.5 111t-55.5 119q-7 9 -38.5 -6t-58 -36.5t-21.5 -27.5zM463 457q23 -39 52.5 -74t70.5 -69.5t94 -55t111 -20.5q57 0 110 20.5t94 55t70.5 69.5t52.5 74q-319 -84 -655 0z M715 731h155l-77 187zM918 903q-7 -4 19 -19q35 -19 46 -10l147 189q5 6 -21 27.5t-57 36.5t-38 6q-30 -39 -61 -129.5t-35 -100.5zM1290 102v23h84v-23h-31v-77h-22v77h-31zM1384 25v100h31l19 -78l18 78h29v-100h-19v77l-20 -77h-19l-20 77v-77h-19z" />
<glyph unicode="&#xa6;" d="M68 731q0 196 97 363t263.5 264.5t362.5 97.5t363 -97.5t264.5 -264.5t97.5 -363t-97.5 -363t-264.5 -264.5t-363 -97.5t-362.5 97.5t-263.5 264.5t-97 363zM164 731q0 -169 84.5 -313.5t229 -229t313.5 -84.5q128 0 244 50t199 134t132 200t49 243t-49 242.5t-132 199.5 t-199 133.5t-244 49.5q-169 0 -313.5 -84t-229 -228t-84.5 -313zM207 731q0 157 79 290t213.5 210.5t291.5 77.5t291 -77.5t212 -210.5t78 -290q0 -119 -46.5 -227t-124.5 -186t-185 -124.5t-225 -46.5t-225.5 46.5t-186.5 124.5t-125.5 186.5t-46.5 226.5zM330 664 l112 -177q346 -79 699 0l110 177h-921zM451 1063l151 -189q7 -8 38.5 7.5t29.5 21.5q-15 29 -45.5 111t-55.5 119q-7 9 -38.5 -6t-58 -36.5t-21.5 -27.5zM463 457q23 -39 52.5 -74t70.5 -69.5t94 -55t111 -20.5q57 0 110 20.5t94 55t70.5 69.5t52.5 74q-319 -84 -655 0z M715 731h155l-77 187zM918 903q-7 -4 19 -19q35 -19 46 -10l147 189q5 6 -21 27.5t-57 36.5t-38 6q-30 -39 -61 -129.5t-35 -100.5zM1290 102v23h84v-23h-31v-77h-22v77h-31zM1384 25v100h31l19 -78l18 78h29v-100h-19v77l-20 -77h-19l-20 77v-77h-19z" />
<glyph unicode="&#xa7;" d="M68 731q0 196 97 363t263.5 264.5t362.5 97.5t363 -97.5t264.5 -264.5t97.5 -363t-97.5 -363t-264.5 -264.5t-363 -97.5t-362.5 97.5t-263.5 264.5t-97 363zM164 731q0 -169 84.5 -313.5t229 -229t313.5 -84.5q128 0 244 50t199 134t132 200t49 243t-49 242.5t-132 199.5 t-199 133.5t-244 49.5q-169 0 -313.5 -84t-229 -228t-84.5 -313zM207 731q0 157 79 290t213.5 210.5t291.5 77.5t291 -77.5t212 -210.5t78 -290q0 -119 -46.5 -227t-124.5 -186t-185 -124.5t-225 -46.5t-225.5 46.5t-186.5 124.5t-125.5 186.5t-46.5 226.5zM330 664 l112 -177q346 -79 699 0l110 177h-921zM451 1063l151 -189q7 -8 38.5 7.5t29.5 21.5q-15 29 -45.5 111t-55.5 119q-7 9 -38.5 -6t-58 -36.5t-21.5 -27.5zM463 457q23 -39 52.5 -74t70.5 -69.5t94 -55t111 -20.5q57 0 110 20.5t94 55t70.5 69.5t52.5 74q-319 -84 -655 0z M715 731h155l-77 187zM918 903q-7 -4 19 -19q35 -19 46 -10l147 189q5 6 -21 27.5t-57 36.5t-38 6q-30 -39 -61 -129.5t-35 -100.5zM1290 102v23h84v-23h-31v-77h-22v77h-31zM1384 25v100h31l19 -78l18 78h29v-100h-19v77l-20 -77h-19l-20 77v-77h-19z" />
<glyph unicode="&#xa8;" d="M68 731q0 196 97 363t263.5 264.5t362.5 97.5t363 -97.5t264.5 -264.5t97.5 -363t-97.5 -363t-264.5 -264.5t-363 -97.5t-362.5 97.5t-263.5 264.5t-97 363zM164 731q0 -169 84.5 -313.5t229 -229t313.5 -84.5q128 0 244 50t199 134t132 200t49 243t-49 242.5t-132 199.5 t-199 133.5t-244 49.5q-169 0 -313.5 -84t-229 -228t-84.5 -313zM207 731q0 157 79 290t213.5 210.5t291.5 77.5t291 -77.5t212 -210.5t78 -290q0 -119 -46.5 -227t-124.5 -186t-185 -124.5t-225 -46.5t-225.5 46.5t-186.5 124.5t-125.5 186.5t-46.5 226.5zM330 664 l112 -177q346 -79 699 0l110 177h-921zM451 1063l151 -189q7 -8 38.5 7.5t29.5 21.5q-15 29 -45.5 111t-55.5 119q-7 9 -38.5 -6t-58 -36.5t-21.5 -27.5zM463 457q23 -39 52.5 -74t70.5 -69.5t94 -55t111 -20.5q57 0 110 20.5t94 55t70.5 69.5t52.5 74q-319 -84 -655 0z M715 731h155l-77 187zM918 903q-7 -4 19 -19q35 -19 46 -10l147 189q5 6 -21 27.5t-57 36.5t-38 6q-30 -39 -61 -129.5t-35 -100.5zM1290 102v23h84v-23h-31v-77h-22v77h-31zM1384 25v100h31l19 -78l18 78h29v-100h-19v77l-20 -77h-19l-20 77v-77h-19z" />
<glyph unicode="&#xa9;" d="M68 731q0 196 97 363t263.5 264.5t362.5 97.5t363 -97.5t264.5 -264.5t97.5 -363t-97.5 -363t-264.5 -264.5t-363 -97.5t-362.5 97.5t-263.5 264.5t-97 363zM164 731q0 -169 84.5 -313.5t229 -229t313.5 -84.5q128 0 244 50t199 134t132 200t49 243t-49 242.5t-132 199.5 t-199 133.5t-244 49.5q-169 0 -313.5 -84t-229 -228t-84.5 -313zM207 731q0 157 79 290t213.5 210.5t291.5 77.5t291 -77.5t212 -210.5t78 -290q0 -119 -46.5 -227t-124.5 -186t-185 -124.5t-225 -46.5t-225.5 46.5t-186.5 124.5t-125.5 186.5t-46.5 226.5zM330 664 l112 -177q346 -79 699 0l110 177h-921zM451 1063l151 -189q7 -8 38.5 7.5t29.5 21.5q-15 29 -45.5 111t-55.5 119q-7 9 -38.5 -6t-58 -36.5t-21.5 -27.5zM463 457q23 -39 52.5 -74t70.5 -69.5t94 -55t111 -20.5q57 0 110 20.5t94 55t70.5 69.5t52.5 74q-319 -84 -655 0z M715 731h155l-77 187zM918 903q-7 -4 19 -19q35 -19 46 -10l147 189q5 6 -21 27.5t-57 36.5t-38 6q-30 -39 -61 -129.5t-35 -100.5zM1290 102v23h84v-23h-31v-77h-22v77h-31zM1384 25v100h31l19 -78l18 78h29v-100h-19v77l-20 -77h-19l-20 77v-77h-19z" />
<glyph unicode="&#xaa;" d="M68 731q0 196 97 363t263.5 264.5t362.5 97.5t363 -97.5t264.5 -264.5t97.5 -363t-97.5 -363t-264.5 -264.5t-363 -97.5t-362.5 97.5t-263.5 264.5t-97 363zM164 731q0 -169 84.5 -313.5t229 -229t313.5 -84.5q128 0 244 50t199 134t132 200t49 243t-49 242.5t-132 199.5 t-199 133.5t-244 49.5q-169 0 -313.5 -84t-229 -228t-84.5 -313zM207 731q0 157 79 290t213.5 210.5t291.5 77.5t291 -77.5t212 -210.5t78 -290q0 -119 -46.5 -227t-124.5 -186t-185 -124.5t-225 -46.5t-225.5 46.5t-186.5 124.5t-125.5 186.5t-46.5 226.5zM330 664 l112 -177q346 -79 699 0l110 177h-921zM451 1063l151 -189q7 -8 38.5 7.5t29.5 21.5q-15 29 -45.5 111t-55.5 119q-7 9 -38.5 -6t-58 -36.5t-21.5 -27.5zM463 457q23 -39 52.5 -74t70.5 -69.5t94 -55t111 -20.5q57 0 110 20.5t94 55t70.5 69.5t52.5 74q-319 -84 -655 0z M715 731h155l-77 187zM918 903q-7 -4 19 -19q35 -19 46 -10l147 189q5 6 -21 27.5t-57 36.5t-38 6q-30 -39 -61 -129.5t-35 -100.5zM1290 102v23h84v-23h-31v-77h-22v77h-31zM1384 25v100h31l19 -78l18 78h29v-100h-19v77l-20 -77h-19l-20 77v-77h-19z" />
<glyph unicode="&#xab;" d="M68 731q0 196 97 363t263.5 264.5t362.5 97.5t363 -97.5t264.5 -264.5t97.5 -363t-97.5 -363t-264.5 -264.5t-363 -97.5t-362.5 97.5t-263.5 264.5t-97 363zM164 731q0 -169 84.5 -313.5t229 -229t313.5 -84.5q128 0 244 50t199 134t132 200t49 243t-49 242.5t-132 199.5 t-199 133.5t-244 49.5q-169 0 -313.5 -84t-229 -228t-84.5 -313zM207 731q0 157 79 290t213.5 210.5t291.5 77.5t291 -77.5t212 -210.5t78 -290q0 -119 -46.5 -227t-124.5 -186t-185 -124.5t-225 -46.5t-225.5 46.5t-186.5 124.5t-125.5 186.5t-46.5 226.5zM330 664 l112 -177q346 -79 699 0l110 177h-921zM451 1063l151 -189q7 -8 38.5 7.5t29.5 21.5q-15 29 -45.5 111t-55.5 119q-7 9 -38.5 -6t-58 -36.5t-21.5 -27.5zM463 457q23 -39 52.5 -74t70.5 -69.5t94 -55t111 -20.5q57 0 110 20.5t94 55t70.5 69.5t52.5 74q-319 -84 -655 0z M715 731h155l-77 187zM918 903q-7 -4 19 -19q35 -19 46 -10l147 189q5 6 -21 27.5t-57 36.5t-38 6q-30 -39 -61 -129.5t-35 -100.5zM1290 102v23h84v-23h-31v-77h-22v77h-31zM1384 25v100h31l19 -78l18 78h29v-100h-19v77l-20 -77h-19l-20 77v-77h-19z" />
<glyph unicode="&#xac;" d="M68 731q0 196 97 363t263.5 264.5t362.5 97.5t363 -97.5t264.5 -264.5t97.5 -363t-97.5 -363t-264.5 -264.5t-363 -97.5t-362.5 97.5t-263.5 264.5t-97 363zM164 731q0 -169 84.5 -313.5t229 -229t313.5 -84.5q128 0 244 50t199 134t132 200t49 243t-49 242.5t-132 199.5 t-199 133.5t-244 49.5q-169 0 -313.5 -84t-229 -228t-84.5 -313zM207 731q0 157 79 290t213.5 210.5t291.5 77.5t291 -77.5t212 -210.5t78 -290q0 -119 -46.5 -227t-124.5 -186t-185 -124.5t-225 -46.5t-225.5 46.5t-186.5 124.5t-125.5 186.5t-46.5 226.5zM330 664 l112 -177q346 -79 699 0l110 177h-921zM451 1063l151 -189q7 -8 38.5 7.5t29.5 21.5q-15 29 -45.5 111t-55.5 119q-7 9 -38.5 -6t-58 -36.5t-21.5 -27.5zM463 457q23 -39 52.5 -74t70.5 -69.5t94 -55t111 -20.5q57 0 110 20.5t94 55t70.5 69.5t52.5 74q-319 -84 -655 0z M715 731h155l-77 187zM918 903q-7 -4 19 -19q35 -19 46 -10l147 189q5 6 -21 27.5t-57 36.5t-38 6q-30 -39 -61 -129.5t-35 -100.5zM1290 102v23h84v-23h-31v-77h-22v77h-31zM1384 25v100h31l19 -78l18 78h29v-100h-19v77l-20 -77h-19l-20 77v-77h-19z" />
<glyph unicode="&#xad;" d="M68 731q0 196 97 363t263.5 264.5t362.5 97.5t363 -97.5t264.5 -264.5t97.5 -363t-97.5 -363t-264.5 -264.5t-363 -97.5t-362.5 97.5t-263.5 264.5t-97 363zM164 731q0 -169 84.5 -313.5t229 -229t313.5 -84.5q128 0 244 50t199 134t132 200t49 243t-49 242.5t-132 199.5 t-199 133.5t-244 49.5q-169 0 -313.5 -84t-229 -228t-84.5 -313zM207 731q0 157 79 290t213.5 210.5t291.5 77.5t291 -77.5t212 -210.5t78 -290q0 -119 -46.5 -227t-124.5 -186t-185 -124.5t-225 -46.5t-225.5 46.5t-186.5 124.5t-125.5 186.5t-46.5 226.5zM330 664 l112 -177q346 -79 699 0l110 177h-921zM451 1063l151 -189q7 -8 38.5 7.5t29.5 21.5q-15 29 -45.5 111t-55.5 119q-7 9 -38.5 -6t-58 -36.5t-21.5 -27.5zM463 457q23 -39 52.5 -74t70.5 -69.5t94 -55t111 -20.5q57 0 110 20.5t94 55t70.5 69.5t52.5 74q-319 -84 -655 0z M715 731h155l-77 187zM918 903q-7 -4 19 -19q35 -19 46 -10l147 189q5 6 -21 27.5t-57 36.5t-38 6q-30 -39 -61 -129.5t-35 -100.5zM1290 102v23h84v-23h-31v-77h-22v77h-31zM1384 25v100h31l19 -78l18 78h29v-100h-19v77l-20 -77h-19l-20 77v-77h-19z" />
<glyph unicode="&#xae;" d="M68 731q0 196 97 363t263.5 264.5t362.5 97.5t363 -97.5t264.5 -264.5t97.5 -363t-97.5 -363t-264.5 -264.5t-363 -97.5t-362.5 97.5t-263.5 264.5t-97 363zM164 731q0 -169 84.5 -313.5t229 -229t313.5 -84.5q128 0 244 50t199 134t132 200t49 243t-49 242.5t-132 199.5 t-199 133.5t-244 49.5q-169 0 -313.5 -84t-229 -228t-84.5 -313zM207 731q0 157 79 290t213.5 210.5t291.5 77.5t291 -77.5t212 -210.5t78 -290q0 -119 -46.5 -227t-124.5 -186t-185 -124.5t-225 -46.5t-225.5 46.5t-186.5 124.5t-125.5 186.5t-46.5 226.5zM330 664 l112 -177q346 -79 699 0l110 177h-921zM451 1063l151 -189q7 -8 38.5 7.5t29.5 21.5q-15 29 -45.5 111t-55.5 119q-7 9 -38.5 -6t-58 -36.5t-21.5 -27.5zM463 457q23 -39 52.5 -74t70.5 -69.5t94 -55t111 -20.5q57 0 110 20.5t94 55t70.5 69.5t52.5 74q-319 -84 -655 0z M715 731h155l-77 187zM918 903q-7 -4 19 -19q35 -19 46 -10l147 189q5 6 -21 27.5t-57 36.5t-38 6q-30 -39 -61 -129.5t-35 -100.5zM1290 102v23h84v-23h-31v-77h-22v77h-31zM1384 25v100h31l19 -78l18 78h29v-100h-19v77l-20 -77h-19l-20 77v-77h-19z" />
<glyph unicode="&#xaf;" d="M68 731q0 196 97 363t263.5 264.5t362.5 97.5t363 -97.5t264.5 -264.5t97.5 -363t-97.5 -363t-264.5 -264.5t-363 -97.5t-362.5 97.5t-263.5 264.5t-97 363zM164 731q0 -169 84.5 -313.5t229 -229t313.5 -84.5q128 0 244 50t199 134t132 200t49 243t-49 242.5t-132 199.5 t-199 133.5t-244 49.5q-169 0 -313.5 -84t-229 -228t-84.5 -313zM207 731q0 157 79 290t213.5 210.5t291.5 77.5t291 -77.5t212 -210.5t78 -290q0 -119 -46.5 -227t-124.5 -186t-185 -124.5t-225 -46.5t-225.5 46.5t-186.5 124.5t-125.5 186.5t-46.5 226.5zM330 664 l112 -177q346 -79 699 0l110 177h-921zM451 1063l151 -189q7 -8 38.5 7.5t29.5 21.5q-15 29 -45.5 111t-55.5 119q-7 9 -38.5 -6t-58 -36.5t-21.5 -27.5zM463 457q23 -39 52.5 -74t70.5 -69.5t94 -55t111 -20.5q57 0 110 20.5t94 55t70.5 69.5t52.5 74q-319 -84 -655 0z M715 731h155l-77 187zM918 903q-7 -4 19 -19q35 -19 46 -10l147 189q5 6 -21 27.5t-57 36.5t-38 6q-30 -39 -61 -129.5t-35 -100.5zM1290 102v23h84v-23h-31v-77h-22v77h-31zM1384 25v100h31l19 -78l18 78h29v-100h-19v77l-20 -77h-19l-20 77v-77h-19z" />
<glyph unicode="&#xb0;" d="M68 731q0 196 97 363t263.5 264.5t362.5 97.5t363 -97.5t264.5 -264.5t97.5 -363t-97.5 -363t-264.5 -264.5t-363 -97.5t-362.5 97.5t-263.5 264.5t-97 363zM164 731q0 -169 84.5 -313.5t229 -229t313.5 -84.5q128 0 244 50t199 134t132 200t49 243t-49 242.5t-132 199.5 t-199 133.5t-244 49.5q-169 0 -313.5 -84t-229 -228t-84.5 -313zM207 731q0 157 79 290t213.5 210.5t291.5 77.5t291 -77.5t212 -210.5t78 -290q0 -119 -46.5 -227t-124.5 -186t-185 -124.5t-225 -46.5t-225.5 46.5t-186.5 124.5t-125.5 186.5t-46.5 226.5zM330 664 l112 -177q346 -79 699 0l110 177h-921zM451 1063l151 -189q7 -8 38.5 7.5t29.5 21.5q-15 29 -45.5 111t-55.5 119q-7 9 -38.5 -6t-58 -36.5t-21.5 -27.5zM463 457q23 -39 52.5 -74t70.5 -69.5t94 -55t111 -20.5q57 0 110 20.5t94 55t70.5 69.5t52.5 74q-319 -84 -655 0z M715 731h155l-77 187zM918 903q-7 -4 19 -19q35 -19 46 -10l147 189q5 6 -21 27.5t-57 36.5t-38 6q-30 -39 -61 -129.5t-35 -100.5zM1290 102v23h84v-23h-31v-77h-22v77h-31zM1384 25v100h31l19 -78l18 78h29v-100h-19v77l-20 -77h-19l-20 77v-77h-19z" />
<glyph unicode="&#xb1;" d="M68 731q0 196 97 363t263.5 264.5t362.5 97.5t363 -97.5t264.5 -264.5t97.5 -363t-97.5 -363t-264.5 -264.5t-363 -97.5t-362.5 97.5t-263.5 264.5t-97 363zM164 731q0 -169 84.5 -313.5t229 -229t313.5 -84.5q128 0 244 50t199 134t132 200t49 243t-49 242.5t-132 199.5 t-199 133.5t-244 49.5q-169 0 -313.5 -84t-229 -228t-84.5 -313zM207 731q0 157 79 290t213.5 210.5t291.5 77.5t291 -77.5t212 -210.5t78 -290q0 -119 -46.5 -227t-124.5 -186t-185 -124.5t-225 -46.5t-225.5 46.5t-186.5 124.5t-125.5 186.5t-46.5 226.5zM330 664 l112 -177q346 -79 699 0l110 177h-921zM451 1063l151 -189q7 -8 38.5 7.5t29.5 21.5q-15 29 -45.5 111t-55.5 119q-7 9 -38.5 -6t-58 -36.5t-21.5 -27.5zM463 457q23 -39 52.5 -74t70.5 -69.5t94 -55t111 -20.5q57 0 110 20.5t94 55t70.5 69.5t52.5 74q-319 -84 -655 0z M715 731h155l-77 187zM918 903q-7 -4 19 -19q35 -19 46 -10l147 189q5 6 -21 27.5t-57 36.5t-38 6q-30 -39 -61 -129.5t-35 -100.5zM1290 102v23h84v-23h-31v-77h-22v77h-31zM1384 25v100h31l19 -78l18 78h29v-100h-19v77l-20 -77h-19l-20 77v-77h-19z" />
<glyph unicode="&#xb2;" d="M68 731q0 196 97 363t263.5 264.5t362.5 97.5t363 -97.5t264.5 -264.5t97.5 -363t-97.5 -363t-264.5 -264.5t-363 -97.5t-362.5 97.5t-263.5 264.5t-97 363zM164 731q0 -169 84.5 -313.5t229 -229t313.5 -84.5q128 0 244 50t199 134t132 200t49 243t-49 242.5t-132 199.5 t-199 133.5t-244 49.5q-169 0 -313.5 -84t-229 -228t-84.5 -313zM207 731q0 157 79 290t213.5 210.5t291.5 77.5t291 -77.5t212 -210.5t78 -290q0 -119 -46.5 -227t-124.5 -186t-185 -124.5t-225 -46.5t-225.5 46.5t-186.5 124.5t-125.5 186.5t-46.5 226.5zM330 664 l112 -177q346 -79 699 0l110 177h-921zM451 1063l151 -189q7 -8 38.5 7.5t29.5 21.5q-15 29 -45.5 111t-55.5 119q-7 9 -38.5 -6t-58 -36.5t-21.5 -27.5zM463 457q23 -39 52.5 -74t70.5 -69.5t94 -55t111 -20.5q57 0 110 20.5t94 55t70.5 69.5t52.5 74q-319 -84 -655 0z M715 731h155l-77 187zM918 903q-7 -4 19 -19q35 -19 46 -10l147 189q5 6 -21 27.5t-57 36.5t-38 6q-30 -39 -61 -129.5t-35 -100.5zM1290 102v23h84v-23h-31v-77h-22v77h-31zM1384 25v100h31l19 -78l18 78h29v-100h-19v77l-20 -77h-19l-20 77v-77h-19z" />
<glyph unicode="&#xb3;" d="M68 731q0 196 97 363t263.5 264.5t362.5 97.5t363 -97.5t264.5 -264.5t97.5 -363t-97.5 -363t-264.5 -264.5t-363 -97.5t-362.5 97.5t-263.5 264.5t-97 363zM164 731q0 -169 84.5 -313.5t229 -229t313.5 -84.5q128 0 244 50t199 134t132 200t49 243t-49 242.5t-132 199.5 t-199 133.5t-244 49.5q-169 0 -313.5 -84t-229 -228t-84.5 -313zM207 731q0 157 79 290t213.5 210.5t291.5 77.5t291 -77.5t212 -210.5t78 -290q0 -119 -46.5 -227t-124.5 -186t-185 -124.5t-225 -46.5t-225.5 46.5t-186.5 124.5t-125.5 186.5t-46.5 226.5zM330 664 l112 -177q346 -79 699 0l110 177h-921zM451 1063l151 -189q7 -8 38.5 7.5t29.5 21.5q-15 29 -45.5 111t-55.5 119q-7 9 -38.5 -6t-58 -36.5t-21.5 -27.5zM463 457q23 -39 52.5 -74t70.5 -69.5t94 -55t111 -20.5q57 0 110 20.5t94 55t70.5 69.5t52.5 74q-319 -84 -655 0z M715 731h155l-77 187zM918 903q-7 -4 19 -19q35 -19 46 -10l147 189q5 6 -21 27.5t-57 36.5t-38 6q-30 -39 -61 -129.5t-35 -100.5zM1290 102v23h84v-23h-31v-77h-22v77h-31zM1384 25v100h31l19 -78l18 78h29v-100h-19v77l-20 -77h-19l-20 77v-77h-19z" />
<glyph unicode="&#xb4;" d="M68 731q0 196 97 363t263.5 264.5t362.5 97.5t363 -97.5t264.5 -264.5t97.5 -363t-97.5 -363t-264.5 -264.5t-363 -97.5t-362.5 97.5t-263.5 264.5t-97 363zM164 731q0 -169 84.5 -313.5t229 -229t313.5 -84.5q128 0 244 50t199 134t132 200t49 243t-49 242.5t-132 199.5 t-199 133.5t-244 49.5q-169 0 -313.5 -84t-229 -228t-84.5 -313zM207 731q0 157 79 290t213.5 210.5t291.5 77.5t291 -77.5t212 -210.5t78 -290q0 -119 -46.5 -227t-124.5 -186t-185 -124.5t-225 -46.5t-225.5 46.5t-186.5 124.5t-125.5 186.5t-46.5 226.5zM330 664 l112 -177q346 -79 699 0l110 177h-921zM451 1063l151 -189q7 -8 38.5 7.5t29.5 21.5q-15 29 -45.5 111t-55.5 119q-7 9 -38.5 -6t-58 -36.5t-21.5 -27.5zM463 457q23 -39 52.5 -74t70.5 -69.5t94 -55t111 -20.5q57 0 110 20.5t94 55t70.5 69.5t52.5 74q-319 -84 -655 0z M715 731h155l-77 187zM918 903q-7 -4 19 -19q35 -19 46 -10l147 189q5 6 -21 27.5t-57 36.5t-38 6q-30 -39 -61 -129.5t-35 -100.5zM1290 102v23h84v-23h-31v-77h-22v77h-31zM1384 25v100h31l19 -78l18 78h29v-100h-19v77l-20 -77h-19l-20 77v-77h-19z" />
<glyph unicode="&#xb6;" d="M68 731q0 196 97 363t263.5 264.5t362.5 97.5t363 -97.5t264.5 -264.5t97.5 -363t-97.5 -363t-264.5 -264.5t-363 -97.5t-362.5 97.5t-263.5 264.5t-97 363zM164 731q0 -169 84.5 -313.5t229 -229t313.5 -84.5q128 0 244 50t199 134t132 200t49 243t-49 242.5t-132 199.5 t-199 133.5t-244 49.5q-169 0 -313.5 -84t-229 -228t-84.5 -313zM207 731q0 157 79 290t213.5 210.5t291.5 77.5t291 -77.5t212 -210.5t78 -290q0 -119 -46.5 -227t-124.5 -186t-185 -124.5t-225 -46.5t-225.5 46.5t-186.5 124.5t-125.5 186.5t-46.5 226.5zM330 664 l112 -177q346 -79 699 0l110 177h-921zM451 1063l151 -189q7 -8 38.5 7.5t29.5 21.5q-15 29 -45.5 111t-55.5 119q-7 9 -38.5 -6t-58 -36.5t-21.5 -27.5zM463 457q23 -39 52.5 -74t70.5 -69.5t94 -55t111 -20.5q57 0 110 20.5t94 55t70.5 69.5t52.5 74q-319 -84 -655 0z M715 731h155l-77 187zM918 903q-7 -4 19 -19q35 -19 46 -10l147 189q5 6 -21 27.5t-57 36.5t-38 6q-30 -39 -61 -129.5t-35 -100.5zM1290 102v23h84v-23h-31v-77h-22v77h-31zM1384 25v100h31l19 -78l18 78h29v-100h-19v77l-20 -77h-19l-20 77v-77h-19z" />
<glyph unicode="&#xb7;" d="M68 731q0 196 97 363t263.5 264.5t362.5 97.5t363 -97.5t264.5 -264.5t97.5 -363t-97.5 -363t-264.5 -264.5t-363 -97.5t-362.5 97.5t-263.5 264.5t-97 363zM164 731q0 -169 84.5 -313.5t229 -229t313.5 -84.5q128 0 244 50t199 134t132 200t49 243t-49 242.5t-132 199.5 t-199 133.5t-244 49.5q-169 0 -313.5 -84t-229 -228t-84.5 -313zM207 731q0 157 79 290t213.5 210.5t291.5 77.5t291 -77.5t212 -210.5t78 -290q0 -119 -46.5 -227t-124.5 -186t-185 -124.5t-225 -46.5t-225.5 46.5t-186.5 124.5t-125.5 186.5t-46.5 226.5zM330 664 l112 -177q346 -79 699 0l110 177h-921zM451 1063l151 -189q7 -8 38.5 7.5t29.5 21.5q-15 29 -45.5 111t-55.5 119q-7 9 -38.5 -6t-58 -36.5t-21.5 -27.5zM463 457q23 -39 52.5 -74t70.5 -69.5t94 -55t111 -20.5q57 0 110 20.5t94 55t70.5 69.5t52.5 74q-319 -84 -655 0z M715 731h155l-77 187zM918 903q-7 -4 19 -19q35 -19 46 -10l147 189q5 6 -21 27.5t-57 36.5t-38 6q-30 -39 -61 -129.5t-35 -100.5zM1290 102v23h84v-23h-31v-77h-22v77h-31zM1384 25v100h31l19 -78l18 78h29v-100h-19v77l-20 -77h-19l-20 77v-77h-19z" />
<glyph unicode="&#xb8;" d="M68 731q0 196 97 363t263.5 264.5t362.5 97.5t363 -97.5t264.5 -264.5t97.5 -363t-97.5 -363t-264.5 -264.5t-363 -97.5t-362.5 97.5t-263.5 264.5t-97 363zM164 731q0 -169 84.5 -313.5t229 -229t313.5 -84.5q128 0 244 50t199 134t132 200t49 243t-49 242.5t-132 199.5 t-199 133.5t-244 49.5q-169 0 -313.5 -84t-229 -228t-84.5 -313zM207 731q0 157 79 290t213.5 210.5t291.5 77.5t291 -77.5t212 -210.5t78 -290q0 -119 -46.5 -227t-124.5 -186t-185 -124.5t-225 -46.5t-225.5 46.5t-186.5 124.5t-125.5 186.5t-46.5 226.5zM330 664 l112 -177q346 -79 699 0l110 177h-921zM451 1063l151 -189q7 -8 38.5 7.5t29.5 21.5q-15 29 -45.5 111t-55.5 119q-7 9 -38.5 -6t-58 -36.5t-21.5 -27.5zM463 457q23 -39 52.5 -74t70.5 -69.5t94 -55t111 -20.5q57 0 110 20.5t94 55t70.5 69.5t52.5 74q-319 -84 -655 0z M715 731h155l-77 187zM918 903q-7 -4 19 -19q35 -19 46 -10l147 189q5 6 -21 27.5t-57 36.5t-38 6q-30 -39 -61 -129.5t-35 -100.5zM1290 102v23h84v-23h-31v-77h-22v77h-31zM1384 25v100h31l19 -78l18 78h29v-100h-19v77l-20 -77h-19l-20 77v-77h-19z" />
<glyph unicode="&#xb9;" d="M68 731q0 196 97 363t263.5 264.5t362.5 97.5t363 -97.5t264.5 -264.5t97.5 -363t-97.5 -363t-264.5 -264.5t-363 -97.5t-362.5 97.5t-263.5 264.5t-97 363zM164 731q0 -169 84.5 -313.5t229 -229t313.5 -84.5q128 0 244 50t199 134t132 200t49 243t-49 242.5t-132 199.5 t-199 133.5t-244 49.5q-169 0 -313.5 -84t-229 -228t-84.5 -313zM207 731q0 157 79 290t213.5 210.5t291.5 77.5t291 -77.5t212 -210.5t78 -290q0 -119 -46.5 -227t-124.5 -186t-185 -124.5t-225 -46.5t-225.5 46.5t-186.5 124.5t-125.5 186.5t-46.5 226.5zM330 664 l112 -177q346 -79 699 0l110 177h-921zM451 1063l151 -189q7 -8 38.5 7.5t29.5 21.5q-15 29 -45.5 111t-55.5 119q-7 9 -38.5 -6t-58 -36.5t-21.5 -27.5zM463 457q23 -39 52.5 -74t70.5 -69.5t94 -55t111 -20.5q57 0 110 20.5t94 55t70.5 69.5t52.5 74q-319 -84 -655 0z M715 731h155l-77 187zM918 903q-7 -4 19 -19q35 -19 46 -10l147 189q5 6 -21 27.5t-57 36.5t-38 6q-30 -39 -61 -129.5t-35 -100.5zM1290 102v23h84v-23h-31v-77h-22v77h-31zM1384 25v100h31l19 -78l18 78h29v-100h-19v77l-20 -77h-19l-20 77v-77h-19z" />
<glyph unicode="&#xba;" d="M68 731q0 196 97 363t263.5 264.5t362.5 97.5t363 -97.5t264.5 -264.5t97.5 -363t-97.5 -363t-264.5 -264.5t-363 -97.5t-362.5 97.5t-263.5 264.5t-97 363zM164 731q0 -169 84.5 -313.5t229 -229t313.5 -84.5q128 0 244 50t199 134t132 200t49 243t-49 242.5t-132 199.5 t-199 133.5t-244 49.5q-169 0 -313.5 -84t-229 -228t-84.5 -313zM207 731q0 157 79 290t213.5 210.5t291.5 77.5t291 -77.5t212 -210.5t78 -290q0 -119 -46.5 -227t-124.5 -186t-185 -124.5t-225 -46.5t-225.5 46.5t-186.5 124.5t-125.5 186.5t-46.5 226.5zM330 664 l112 -177q346 -79 699 0l110 177h-921zM451 1063l151 -189q7 -8 38.5 7.5t29.5 21.5q-15 29 -45.5 111t-55.5 119q-7 9 -38.5 -6t-58 -36.5t-21.5 -27.5zM463 457q23 -39 52.5 -74t70.5 -69.5t94 -55t111 -20.5q57 0 110 20.5t94 55t70.5 69.5t52.5 74q-319 -84 -655 0z M715 731h155l-77 187zM918 903q-7 -4 19 -19q35 -19 46 -10l147 189q5 6 -21 27.5t-57 36.5t-38 6q-30 -39 -61 -129.5t-35 -100.5zM1290 102v23h84v-23h-31v-77h-22v77h-31zM1384 25v100h31l19 -78l18 78h29v-100h-19v77l-20 -77h-19l-20 77v-77h-19z" />
<glyph unicode="&#xbb;" d="M68 731q0 196 97 363t263.5 264.5t362.5 97.5t363 -97.5t264.5 -264.5t97.5 -363t-97.5 -363t-264.5 -264.5t-363 -97.5t-362.5 97.5t-263.5 264.5t-97 363zM164 731q0 -169 84.5 -313.5t229 -229t313.5 -84.5q128 0 244 50t199 134t132 200t49 243t-49 242.5t-132 199.5 t-199 133.5t-244 49.5q-169 0 -313.5 -84t-229 -228t-84.5 -313zM207 731q0 157 79 290t213.5 210.5t291.5 77.5t291 -77.5t212 -210.5t78 -290q0 -119 -46.5 -227t-124.5 -186t-185 -124.5t-225 -46.5t-225.5 46.5t-186.5 124.5t-125.5 186.5t-46.5 226.5zM330 664 l112 -177q346 -79 699 0l110 177h-921zM451 1063l151 -189q7 -8 38.5 7.5t29.5 21.5q-15 29 -45.5 111t-55.5 119q-7 9 -38.5 -6t-58 -36.5t-21.5 -27.5zM463 457q23 -39 52.5 -74t70.5 -69.5t94 -55t111 -20.5q57 0 110 20.5t94 55t70.5 69.5t52.5 74q-319 -84 -655 0z M715 731h155l-77 187zM918 903q-7 -4 19 -19q35 -19 46 -10l147 189q5 6 -21 27.5t-57 36.5t-38 6q-30 -39 -61 -129.5t-35 -100.5zM1290 102v23h84v-23h-31v-77h-22v77h-31zM1384 25v100h31l19 -78l18 78h29v-100h-19v77l-20 -77h-19l-20 77v-77h-19z" />
<glyph unicode="&#xbc;" d="M68 731q0 196 97 363t263.5 264.5t362.5 97.5t363 -97.5t264.5 -264.5t97.5 -363t-97.5 -363t-264.5 -264.5t-363 -97.5t-362.5 97.5t-263.5 264.5t-97 363zM164 731q0 -169 84.5 -313.5t229 -229t313.5 -84.5q128 0 244 50t199 134t132 200t49 243t-49 242.5t-132 199.5 t-199 133.5t-244 49.5q-169 0 -313.5 -84t-229 -228t-84.5 -313zM207 731q0 157 79 290t213.5 210.5t291.5 77.5t291 -77.5t212 -210.5t78 -290q0 -119 -46.5 -227t-124.5 -186t-185 -124.5t-225 -46.5t-225.5 46.5t-186.5 124.5t-125.5 186.5t-46.5 226.5zM330 664 l112 -177q346 -79 699 0l110 177h-921zM451 1063l151 -189q7 -8 38.5 7.5t29.5 21.5q-15 29 -45.5 111t-55.5 119q-7 9 -38.5 -6t-58 -36.5t-21.5 -27.5zM463 457q23 -39 52.5 -74t70.5 -69.5t94 -55t111 -20.5q57 0 110 20.5t94 55t70.5 69.5t52.5 74q-319 -84 -655 0z M715 731h155l-77 187zM918 903q-7 -4 19 -19q35 -19 46 -10l147 189q5 6 -21 27.5t-57 36.5t-38 6q-30 -39 -61 -129.5t-35 -100.5zM1290 102v23h84v-23h-31v-77h-22v77h-31zM1384 25v100h31l19 -78l18 78h29v-100h-19v77l-20 -77h-19l-20 77v-77h-19z" />
<glyph unicode="&#xbd;" d="M68 731q0 196 97 363t263.5 264.5t362.5 97.5t363 -97.5t264.5 -264.5t97.5 -363t-97.5 -363t-264.5 -264.5t-363 -97.5t-362.5 97.5t-263.5 264.5t-97 363zM164 731q0 -169 84.5 -313.5t229 -229t313.5 -84.5q128 0 244 50t199 134t132 200t49 243t-49 242.5t-132 199.5 t-199 133.5t-244 49.5q-169 0 -313.5 -84t-229 -228t-84.5 -313zM207 731q0 157 79 290t213.5 210.5t291.5 77.5t291 -77.5t212 -210.5t78 -290q0 -119 -46.5 -227t-124.5 -186t-185 -124.5t-225 -46.5t-225.5 46.5t-186.5 124.5t-125.5 186.5t-46.5 226.5zM330 664 l112 -177q346 -79 699 0l110 177h-921zM451 1063l151 -189q7 -8 38.5 7.5t29.5 21.5q-15 29 -45.5 111t-55.5 119q-7 9 -38.5 -6t-58 -36.5t-21.5 -27.5zM463 457q23 -39 52.5 -74t70.5 -69.5t94 -55t111 -20.5q57 0 110 20.5t94 55t70.5 69.5t52.5 74q-319 -84 -655 0z M715 731h155l-77 187zM918 903q-7 -4 19 -19q35 -19 46 -10l147 189q5 6 -21 27.5t-57 36.5t-38 6q-30 -39 -61 -129.5t-35 -100.5zM1290 102v23h84v-23h-31v-77h-22v77h-31zM1384 25v100h31l19 -78l18 78h29v-100h-19v77l-20 -77h-19l-20 77v-77h-19z" />
<glyph unicode="&#xbe;" d="M68 731q0 196 97 363t263.5 264.5t362.5 97.5t363 -97.5t264.5 -264.5t97.5 -363t-97.5 -363t-264.5 -264.5t-363 -97.5t-362.5 97.5t-263.5 264.5t-97 363zM164 731q0 -169 84.5 -313.5t229 -229t313.5 -84.5q128 0 244 50t199 134t132 200t49 243t-49 242.5t-132 199.5 t-199 133.5t-244 49.5q-169 0 -313.5 -84t-229 -228t-84.5 -313zM207 731q0 157 79 290t213.5 210.5t291.5 77.5t291 -77.5t212 -210.5t78 -290q0 -119 -46.5 -227t-124.5 -186t-185 -124.5t-225 -46.5t-225.5 46.5t-186.5 124.5t-125.5 186.5t-46.5 226.5zM330 664 l112 -177q346 -79 699 0l110 177h-921zM451 1063l151 -189q7 -8 38.5 7.5t29.5 21.5q-15 29 -45.5 111t-55.5 119q-7 9 -38.5 -6t-58 -36.5t-21.5 -27.5zM463 457q23 -39 52.5 -74t70.5 -69.5t94 -55t111 -20.5q57 0 110 20.5t94 55t70.5 69.5t52.5 74q-319 -84 -655 0z M715 731h155l-77 187zM918 903q-7 -4 19 -19q35 -19 46 -10l147 189q5 6 -21 27.5t-57 36.5t-38 6q-30 -39 -61 -129.5t-35 -100.5zM1290 102v23h84v-23h-31v-77h-22v77h-31zM1384 25v100h31l19 -78l18 78h29v-100h-19v77l-20 -77h-19l-20 77v-77h-19z" />
<glyph unicode="&#xbf;" d="M68 731q0 196 97 363t263.5 264.5t362.5 97.5t363 -97.5t264.5 -264.5t97.5 -363t-97.5 -363t-264.5 -264.5t-363 -97.5t-362.5 97.5t-263.5 264.5t-97 363zM164 731q0 -169 84.5 -313.5t229 -229t313.5 -84.5q128 0 244 50t199 134t132 200t49 243t-49 242.5t-132 199.5 t-199 133.5t-244 49.5q-169 0 -313.5 -84t-229 -228t-84.5 -313zM207 731q0 157 79 290t213.5 210.5t291.5 77.5t291 -77.5t212 -210.5t78 -290q0 -119 -46.5 -227t-124.5 -186t-185 -124.5t-225 -46.5t-225.5 46.5t-186.5 124.5t-125.5 186.5t-46.5 226.5zM330 664 l112 -177q346 -79 699 0l110 177h-921zM451 1063l151 -189q7 -8 38.5 7.5t29.5 21.5q-15 29 -45.5 111t-55.5 119q-7 9 -38.5 -6t-58 -36.5t-21.5 -27.5zM463 457q23 -39 52.5 -74t70.5 -69.5t94 -55t111 -20.5q57 0 110 20.5t94 55t70.5 69.5t52.5 74q-319 -84 -655 0z M715 731h155l-77 187zM918 903q-7 -4 19 -19q35 -19 46 -10l147 189q5 6 -21 27.5t-57 36.5t-38 6q-30 -39 -61 -129.5t-35 -100.5zM1290 102v23h84v-23h-31v-77h-22v77h-31zM1384 25v100h31l19 -78l18 78h29v-100h-19v77l-20 -77h-19l-20 77v-77h-19z" />
<glyph unicode="&#xc0;" d="M68 731q0 196 97 363t263.5 264.5t362.5 97.5t363 -97.5t264.5 -264.5t97.5 -363t-97.5 -363t-264.5 -264.5t-363 -97.5t-362.5 97.5t-263.5 264.5t-97 363zM164 731q0 -169 84.5 -313.5t229 -229t313.5 -84.5q128 0 244 50t199 134t132 200t49 243t-49 242.5t-132 199.5 t-199 133.5t-244 49.5q-169 0 -313.5 -84t-229 -228t-84.5 -313zM207 731q0 157 79 290t213.5 210.5t291.5 77.5t291 -77.5t212 -210.5t78 -290q0 -119 -46.5 -227t-124.5 -186t-185 -124.5t-225 -46.5t-225.5 46.5t-186.5 124.5t-125.5 186.5t-46.5 226.5zM330 664 l112 -177q346 -79 699 0l110 177h-921zM451 1063l151 -189q7 -8 38.5 7.5t29.5 21.5q-15 29 -45.5 111t-55.5 119q-7 9 -38.5 -6t-58 -36.5t-21.5 -27.5zM463 457q23 -39 52.5 -74t70.5 -69.5t94 -55t111 -20.5q57 0 110 20.5t94 55t70.5 69.5t52.5 74q-319 -84 -655 0z M715 731h155l-77 187zM918 903q-7 -4 19 -19q35 -19 46 -10l147 189q5 6 -21 27.5t-57 36.5t-38 6q-30 -39 -61 -129.5t-35 -100.5zM1290 102v23h84v-23h-31v-77h-22v77h-31zM1384 25v100h31l19 -78l18 78h29v-100h-19v77l-20 -77h-19l-20 77v-77h-19z" />
<glyph unicode="&#xc1;" d="M68 731q0 196 97 363t263.5 264.5t362.5 97.5t363 -97.5t264.5 -264.5t97.5 -363t-97.5 -363t-264.5 -264.5t-363 -97.5t-362.5 97.5t-263.5 264.5t-97 363zM164 731q0 -169 84.5 -313.5t229 -229t313.5 -84.5q128 0 244 50t199 134t132 200t49 243t-49 242.5t-132 199.5 t-199 133.5t-244 49.5q-169 0 -313.5 -84t-229 -228t-84.5 -313zM207 731q0 157 79 290t213.5 210.5t291.5 77.5t291 -77.5t212 -210.5t78 -290q0 -119 -46.5 -227t-124.5 -186t-185 -124.5t-225 -46.5t-225.5 46.5t-186.5 124.5t-125.5 186.5t-46.5 226.5zM330 664 l112 -177q346 -79 699 0l110 177h-921zM451 1063l151 -189q7 -8 38.5 7.5t29.5 21.5q-15 29 -45.5 111t-55.5 119q-7 9 -38.5 -6t-58 -36.5t-21.5 -27.5zM463 457q23 -39 52.5 -74t70.5 -69.5t94 -55t111 -20.5q57 0 110 20.5t94 55t70.5 69.5t52.5 74q-319 -84 -655 0z M715 731h155l-77 187zM918 903q-7 -4 19 -19q35 -19 46 -10l147 189q5 6 -21 27.5t-57 36.5t-38 6q-30 -39 -61 -129.5t-35 -100.5zM1290 102v23h84v-23h-31v-77h-22v77h-31zM1384 25v100h31l19 -78l18 78h29v-100h-19v77l-20 -77h-19l-20 77v-77h-19z" />
<glyph unicode="&#xc2;" d="M68 731q0 196 97 363t263.5 264.5t362.5 97.5t363 -97.5t264.5 -264.5t97.5 -363t-97.5 -363t-264.5 -264.5t-363 -97.5t-362.5 97.5t-263.5 264.5t-97 363zM164 731q0 -169 84.5 -313.5t229 -229t313.5 -84.5q128 0 244 50t199 134t132 200t49 243t-49 242.5t-132 199.5 t-199 133.5t-244 49.5q-169 0 -313.5 -84t-229 -228t-84.5 -313zM207 731q0 157 79 290t213.5 210.5t291.5 77.5t291 -77.5t212 -210.5t78 -290q0 -119 -46.5 -227t-124.5 -186t-185 -124.5t-225 -46.5t-225.5 46.5t-186.5 124.5t-125.5 186.5t-46.5 226.5zM330 664 l112 -177q346 -79 699 0l110 177h-921zM451 1063l151 -189q7 -8 38.5 7.5t29.5 21.5q-15 29 -45.5 111t-55.5 119q-7 9 -38.5 -6t-58 -36.5t-21.5 -27.5zM463 457q23 -39 52.5 -74t70.5 -69.5t94 -55t111 -20.5q57 0 110 20.5t94 55t70.5 69.5t52.5 74q-319 -84 -655 0z M715 731h155l-77 187zM918 903q-7 -4 19 -19q35 -19 46 -10l147 189q5 6 -21 27.5t-57 36.5t-38 6q-30 -39 -61 -129.5t-35 -100.5zM1290 102v23h84v-23h-31v-77h-22v77h-31zM1384 25v100h31l19 -78l18 78h29v-100h-19v77l-20 -77h-19l-20 77v-77h-19z" />
<glyph unicode="&#xc3;" d="M68 731q0 196 97 363t263.5 264.5t362.5 97.5t363 -97.5t264.5 -264.5t97.5 -363t-97.5 -363t-264.5 -264.5t-363 -97.5t-362.5 97.5t-263.5 264.5t-97 363zM164 731q0 -169 84.5 -313.5t229 -229t313.5 -84.5q128 0 244 50t199 134t132 200t49 243t-49 242.5t-132 199.5 t-199 133.5t-244 49.5q-169 0 -313.5 -84t-229 -228t-84.5 -313zM207 731q0 157 79 290t213.5 210.5t291.5 77.5t291 -77.5t212 -210.5t78 -290q0 -119 -46.5 -227t-124.5 -186t-185 -124.5t-225 -46.5t-225.5 46.5t-186.5 124.5t-125.5 186.5t-46.5 226.5zM330 664 l112 -177q346 -79 699 0l110 177h-921zM451 1063l151 -189q7 -8 38.5 7.5t29.5 21.5q-15 29 -45.5 111t-55.5 119q-7 9 -38.5 -6t-58 -36.5t-21.5 -27.5zM463 457q23 -39 52.5 -74t70.5 -69.5t94 -55t111 -20.5q57 0 110 20.5t94 55t70.5 69.5t52.5 74q-319 -84 -655 0z M715 731h155l-77 187zM918 903q-7 -4 19 -19q35 -19 46 -10l147 189q5 6 -21 27.5t-57 36.5t-38 6q-30 -39 -61 -129.5t-35 -100.5zM1290 102v23h84v-23h-31v-77h-22v77h-31zM1384 25v100h31l19 -78l18 78h29v-100h-19v77l-20 -77h-19l-20 77v-77h-19z" />
<glyph unicode="&#xc4;" d="M68 731q0 196 97 363t263.5 264.5t362.5 97.5t363 -97.5t264.5 -264.5t97.5 -363t-97.5 -363t-264.5 -264.5t-363 -97.5t-362.5 97.5t-263.5 264.5t-97 363zM164 731q0 -169 84.5 -313.5t229 -229t313.5 -84.5q128 0 244 50t199 134t132 200t49 243t-49 242.5t-132 199.5 t-199 133.5t-244 49.5q-169 0 -313.5 -84t-229 -228t-84.5 -313zM207 731q0 157 79 290t213.5 210.5t291.5 77.5t291 -77.5t212 -210.5t78 -290q0 -119 -46.5 -227t-124.5 -186t-185 -124.5t-225 -46.5t-225.5 46.5t-186.5 124.5t-125.5 186.5t-46.5 226.5zM330 664 l112 -177q346 -79 699 0l110 177h-921zM451 1063l151 -189q7 -8 38.5 7.5t29.5 21.5q-15 29 -45.5 111t-55.5 119q-7 9 -38.5 -6t-58 -36.5t-21.5 -27.5zM463 457q23 -39 52.5 -74t70.5 -69.5t94 -55t111 -20.5q57 0 110 20.5t94 55t70.5 69.5t52.5 74q-319 -84 -655 0z M715 731h155l-77 187zM918 903q-7 -4 19 -19q35 -19 46 -10l147 189q5 6 -21 27.5t-57 36.5t-38 6q-30 -39 -61 -129.5t-35 -100.5zM1290 102v23h84v-23h-31v-77h-22v77h-31zM1384 25v100h31l19 -78l18 78h29v-100h-19v77l-20 -77h-19l-20 77v-77h-19z" />
<glyph unicode="&#xc5;" d="M68 731q0 196 97 363t263.5 264.5t362.5 97.5t363 -97.5t264.5 -264.5t97.5 -363t-97.5 -363t-264.5 -264.5t-363 -97.5t-362.5 97.5t-263.5 264.5t-97 363zM164 731q0 -169 84.5 -313.5t229 -229t313.5 -84.5q128 0 244 50t199 134t132 200t49 243t-49 242.5t-132 199.5 t-199 133.5t-244 49.5q-169 0 -313.5 -84t-229 -228t-84.5 -313zM207 731q0 157 79 290t213.5 210.5t291.5 77.5t291 -77.5t212 -210.5t78 -290q0 -119 -46.5 -227t-124.5 -186t-185 -124.5t-225 -46.5t-225.5 46.5t-186.5 124.5t-125.5 186.5t-46.5 226.5zM330 664 l112 -177q346 -79 699 0l110 177h-921zM451 1063l151 -189q7 -8 38.5 7.5t29.5 21.5q-15 29 -45.5 111t-55.5 119q-7 9 -38.5 -6t-58 -36.5t-21.5 -27.5zM463 457q23 -39 52.5 -74t70.5 -69.5t94 -55t111 -20.5q57 0 110 20.5t94 55t70.5 69.5t52.5 74q-319 -84 -655 0z M715 731h155l-77 187zM918 903q-7 -4 19 -19q35 -19 46 -10l147 189q5 6 -21 27.5t-57 36.5t-38 6q-30 -39 -61 -129.5t-35 -100.5zM1290 102v23h84v-23h-31v-77h-22v77h-31zM1384 25v100h31l19 -78l18 78h29v-100h-19v77l-20 -77h-19l-20 77v-77h-19z" />
<glyph unicode="&#xc6;" d="M68 731q0 196 97 363t263.5 264.5t362.5 97.5t363 -97.5t264.5 -264.5t97.5 -363t-97.5 -363t-264.5 -264.5t-363 -97.5t-362.5 97.5t-263.5 264.5t-97 363zM164 731q0 -169 84.5 -313.5t229 -229t313.5 -84.5q128 0 244 50t199 134t132 200t49 243t-49 242.5t-132 199.5 t-199 133.5t-244 49.5q-169 0 -313.5 -84t-229 -228t-84.5 -313zM207 731q0 157 79 290t213.5 210.5t291.5 77.5t291 -77.5t212 -210.5t78 -290q0 -119 -46.5 -227t-124.5 -186t-185 -124.5t-225 -46.5t-225.5 46.5t-186.5 124.5t-125.5 186.5t-46.5 226.5zM330 664 l112 -177q346 -79 699 0l110 177h-921zM451 1063l151 -189q7 -8 38.5 7.5t29.5 21.5q-15 29 -45.5 111t-55.5 119q-7 9 -38.5 -6t-58 -36.5t-21.5 -27.5zM463 457q23 -39 52.5 -74t70.5 -69.5t94 -55t111 -20.5q57 0 110 20.5t94 55t70.5 69.5t52.5 74q-319 -84 -655 0z M715 731h155l-77 187zM918 903q-7 -4 19 -19q35 -19 46 -10l147 189q5 6 -21 27.5t-57 36.5t-38 6q-30 -39 -61 -129.5t-35 -100.5zM1290 102v23h84v-23h-31v-77h-22v77h-31zM1384 25v100h31l19 -78l18 78h29v-100h-19v77l-20 -77h-19l-20 77v-77h-19z" />
<glyph unicode="&#xc7;" d="M68 731q0 196 97 363t263.5 264.5t362.5 97.5t363 -97.5t264.5 -264.5t97.5 -363t-97.5 -363t-264.5 -264.5t-363 -97.5t-362.5 97.5t-263.5 264.5t-97 363zM164 731q0 -169 84.5 -313.5t229 -229t313.5 -84.5q128 0 244 50t199 134t132 200t49 243t-49 242.5t-132 199.5 t-199 133.5t-244 49.5q-169 0 -313.5 -84t-229 -228t-84.5 -313zM207 731q0 157 79 290t213.5 210.5t291.5 77.5t291 -77.5t212 -210.5t78 -290q0 -119 -46.5 -227t-124.5 -186t-185 -124.5t-225 -46.5t-225.5 46.5t-186.5 124.5t-125.5 186.5t-46.5 226.5zM330 664 l112 -177q346 -79 699 0l110 177h-921zM451 1063l151 -189q7 -8 38.5 7.5t29.5 21.5q-15 29 -45.5 111t-55.5 119q-7 9 -38.5 -6t-58 -36.5t-21.5 -27.5zM463 457q23 -39 52.5 -74t70.5 -69.5t94 -55t111 -20.5q57 0 110 20.5t94 55t70.5 69.5t52.5 74q-319 -84 -655 0z M715 731h155l-77 187zM918 903q-7 -4 19 -19q35 -19 46 -10l147 189q5 6 -21 27.5t-57 36.5t-38 6q-30 -39 -61 -129.5t-35 -100.5zM1290 102v23h84v-23h-31v-77h-22v77h-31zM1384 25v100h31l19 -78l18 78h29v-100h-19v77l-20 -77h-19l-20 77v-77h-19z" />
<glyph unicode="&#xc8;" d="M68 731q0 196 97 363t263.5 264.5t362.5 97.5t363 -97.5t264.5 -264.5t97.5 -363t-97.5 -363t-264.5 -264.5t-363 -97.5t-362.5 97.5t-263.5 264.5t-97 363zM164 731q0 -169 84.5 -313.5t229 -229t313.5 -84.5q128 0 244 50t199 134t132 200t49 243t-49 242.5t-132 199.5 t-199 133.5t-244 49.5q-169 0 -313.5 -84t-229 -228t-84.5 -313zM207 731q0 157 79 290t213.5 210.5t291.5 77.5t291 -77.5t212 -210.5t78 -290q0 -119 -46.5 -227t-124.5 -186t-185 -124.5t-225 -46.5t-225.5 46.5t-186.5 124.5t-125.5 186.5t-46.5 226.5zM330 664 l112 -177q346 -79 699 0l110 177h-921zM451 1063l151 -189q7 -8 38.5 7.5t29.5 21.5q-15 29 -45.5 111t-55.5 119q-7 9 -38.5 -6t-58 -36.5t-21.5 -27.5zM463 457q23 -39 52.5 -74t70.5 -69.5t94 -55t111 -20.5q57 0 110 20.5t94 55t70.5 69.5t52.5 74q-319 -84 -655 0z M715 731h155l-77 187zM918 903q-7 -4 19 -19q35 -19 46 -10l147 189q5 6 -21 27.5t-57 36.5t-38 6q-30 -39 -61 -129.5t-35 -100.5zM1290 102v23h84v-23h-31v-77h-22v77h-31zM1384 25v100h31l19 -78l18 78h29v-100h-19v77l-20 -77h-19l-20 77v-77h-19z" />
<glyph unicode="&#xc9;" d="M68 731q0 196 97 363t263.5 264.5t362.5 97.5t363 -97.5t264.5 -264.5t97.5 -363t-97.5 -363t-264.5 -264.5t-363 -97.5t-362.5 97.5t-263.5 264.5t-97 363zM164 731q0 -169 84.5 -313.5t229 -229t313.5 -84.5q128 0 244 50t199 134t132 200t49 243t-49 242.5t-132 199.5 t-199 133.5t-244 49.5q-169 0 -313.5 -84t-229 -228t-84.5 -313zM207 731q0 157 79 290t213.5 210.5t291.5 77.5t291 -77.5t212 -210.5t78 -290q0 -119 -46.5 -227t-124.5 -186t-185 -124.5t-225 -46.5t-225.5 46.5t-186.5 124.5t-125.5 186.5t-46.5 226.5zM330 664 l112 -177q346 -79 699 0l110 177h-921zM451 1063l151 -189q7 -8 38.5 7.5t29.5 21.5q-15 29 -45.5 111t-55.5 119q-7 9 -38.5 -6t-58 -36.5t-21.5 -27.5zM463 457q23 -39 52.5 -74t70.5 -69.5t94 -55t111 -20.5q57 0 110 20.5t94 55t70.5 69.5t52.5 74q-319 -84 -655 0z M715 731h155l-77 187zM918 903q-7 -4 19 -19q35 -19 46 -10l147 189q5 6 -21 27.5t-57 36.5t-38 6q-30 -39 -61 -129.5t-35 -100.5zM1290 102v23h84v-23h-31v-77h-22v77h-31zM1384 25v100h31l19 -78l18 78h29v-100h-19v77l-20 -77h-19l-20 77v-77h-19z" />
<glyph unicode="&#xca;" d="M68 731q0 196 97 363t263.5 264.5t362.5 97.5t363 -97.5t264.5 -264.5t97.5 -363t-97.5 -363t-264.5 -264.5t-363 -97.5t-362.5 97.5t-263.5 264.5t-97 363zM164 731q0 -169 84.5 -313.5t229 -229t313.5 -84.5q128 0 244 50t199 134t132 200t49 243t-49 242.5t-132 199.5 t-199 133.5t-244 49.5q-169 0 -313.5 -84t-229 -228t-84.5 -313zM207 731q0 157 79 290t213.5 210.5t291.5 77.5t291 -77.5t212 -210.5t78 -290q0 -119 -46.5 -227t-124.5 -186t-185 -124.5t-225 -46.5t-225.5 46.5t-186.5 124.5t-125.5 186.5t-46.5 226.5zM330 664 l112 -177q346 -79 699 0l110 177h-921zM451 1063l151 -189q7 -8 38.5 7.5t29.5 21.5q-15 29 -45.5 111t-55.5 119q-7 9 -38.5 -6t-58 -36.5t-21.5 -27.5zM463 457q23 -39 52.5 -74t70.5 -69.5t94 -55t111 -20.5q57 0 110 20.5t94 55t70.5 69.5t52.5 74q-319 -84 -655 0z M715 731h155l-77 187zM918 903q-7 -4 19 -19q35 -19 46 -10l147 189q5 6 -21 27.5t-57 36.5t-38 6q-30 -39 -61 -129.5t-35 -100.5zM1290 102v23h84v-23h-31v-77h-22v77h-31zM1384 25v100h31l19 -78l18 78h29v-100h-19v77l-20 -77h-19l-20 77v-77h-19z" />
<glyph unicode="&#xcb;" d="M68 731q0 196 97 363t263.5 264.5t362.5 97.5t363 -97.5t264.5 -264.5t97.5 -363t-97.5 -363t-264.5 -264.5t-363 -97.5t-362.5 97.5t-263.5 264.5t-97 363zM164 731q0 -169 84.5 -313.5t229 -229t313.5 -84.5q128 0 244 50t199 134t132 200t49 243t-49 242.5t-132 199.5 t-199 133.5t-244 49.5q-169 0 -313.5 -84t-229 -228t-84.5 -313zM207 731q0 157 79 290t213.5 210.5t291.5 77.5t291 -77.5t212 -210.5t78 -290q0 -119 -46.5 -227t-124.5 -186t-185 -124.5t-225 -46.5t-225.5 46.5t-186.5 124.5t-125.5 186.5t-46.5 226.5zM330 664 l112 -177q346 -79 699 0l110 177h-921zM451 1063l151 -189q7 -8 38.5 7.5t29.5 21.5q-15 29 -45.5 111t-55.5 119q-7 9 -38.5 -6t-58 -36.5t-21.5 -27.5zM463 457q23 -39 52.5 -74t70.5 -69.5t94 -55t111 -20.5q57 0 110 20.5t94 55t70.5 69.5t52.5 74q-319 -84 -655 0z M715 731h155l-77 187zM918 903q-7 -4 19 -19q35 -19 46 -10l147 189q5 6 -21 27.5t-57 36.5t-38 6q-30 -39 -61 -129.5t-35 -100.5zM1290 102v23h84v-23h-31v-77h-22v77h-31zM1384 25v100h31l19 -78l18 78h29v-100h-19v77l-20 -77h-19l-20 77v-77h-19z" />
<glyph unicode="&#xcc;" d="M68 731q0 196 97 363t263.5 264.5t362.5 97.5t363 -97.5t264.5 -264.5t97.5 -363t-97.5 -363t-264.5 -264.5t-363 -97.5t-362.5 97.5t-263.5 264.5t-97 363zM164 731q0 -169 84.5 -313.5t229 -229t313.5 -84.5q128 0 244 50t199 134t132 200t49 243t-49 242.5t-132 199.5 t-199 133.5t-244 49.5q-169 0 -313.5 -84t-229 -228t-84.5 -313zM207 731q0 157 79 290t213.5 210.5t291.5 77.5t291 -77.5t212 -210.5t78 -290q0 -119 -46.5 -227t-124.5 -186t-185 -124.5t-225 -46.5t-225.5 46.5t-186.5 124.5t-125.5 186.5t-46.5 226.5zM330 664 l112 -177q346 -79 699 0l110 177h-921zM451 1063l151 -189q7 -8 38.5 7.5t29.5 21.5q-15 29 -45.5 111t-55.5 119q-7 9 -38.5 -6t-58 -36.5t-21.5 -27.5zM463 457q23 -39 52.5 -74t70.5 -69.5t94 -55t111 -20.5q57 0 110 20.5t94 55t70.5 69.5t52.5 74q-319 -84 -655 0z M715 731h155l-77 187zM918 903q-7 -4 19 -19q35 -19 46 -10l147 189q5 6 -21 27.5t-57 36.5t-38 6q-30 -39 -61 -129.5t-35 -100.5zM1290 102v23h84v-23h-31v-77h-22v77h-31zM1384 25v100h31l19 -78l18 78h29v-100h-19v77l-20 -77h-19l-20 77v-77h-19z" />
<glyph unicode="&#xcd;" d="M68 731q0 196 97 363t263.5 264.5t362.5 97.5t363 -97.5t264.5 -264.5t97.5 -363t-97.5 -363t-264.5 -264.5t-363 -97.5t-362.5 97.5t-263.5 264.5t-97 363zM164 731q0 -169 84.5 -313.5t229 -229t313.5 -84.5q128 0 244 50t199 134t132 200t49 243t-49 242.5t-132 199.5 t-199 133.5t-244 49.5q-169 0 -313.5 -84t-229 -228t-84.5 -313zM207 731q0 157 79 290t213.5 210.5t291.5 77.5t291 -77.5t212 -210.5t78 -290q0 -119 -46.5 -227t-124.5 -186t-185 -124.5t-225 -46.5t-225.5 46.5t-186.5 124.5t-125.5 186.5t-46.5 226.5zM330 664 l112 -177q346 -79 699 0l110 177h-921zM451 1063l151 -189q7 -8 38.5 7.5t29.5 21.5q-15 29 -45.5 111t-55.5 119q-7 9 -38.5 -6t-58 -36.5t-21.5 -27.5zM463 457q23 -39 52.5 -74t70.5 -69.5t94 -55t111 -20.5q57 0 110 20.5t94 55t70.5 69.5t52.5 74q-319 -84 -655 0z M715 731h155l-77 187zM918 903q-7 -4 19 -19q35 -19 46 -10l147 189q5 6 -21 27.5t-57 36.5t-38 6q-30 -39 -61 -129.5t-35 -100.5zM1290 102v23h84v-23h-31v-77h-22v77h-31zM1384 25v100h31l19 -78l18 78h29v-100h-19v77l-20 -77h-19l-20 77v-77h-19z" />
<glyph unicode="&#xce;" d="M68 731q0 196 97 363t263.5 264.5t362.5 97.5t363 -97.5t264.5 -264.5t97.5 -363t-97.5 -363t-264.5 -264.5t-363 -97.5t-362.5 97.5t-263.5 264.5t-97 363zM164 731q0 -169 84.5 -313.5t229 -229t313.5 -84.5q128 0 244 50t199 134t132 200t49 243t-49 242.5t-132 199.5 t-199 133.5t-244 49.5q-169 0 -313.5 -84t-229 -228t-84.5 -313zM207 731q0 157 79 290t213.5 210.5t291.5 77.5t291 -77.5t212 -210.5t78 -290q0 -119 -46.5 -227t-124.5 -186t-185 -124.5t-225 -46.5t-225.5 46.5t-186.5 124.5t-125.5 186.5t-46.5 226.5zM330 664 l112 -177q346 -79 699 0l110 177h-921zM451 1063l151 -189q7 -8 38.5 7.5t29.5 21.5q-15 29 -45.5 111t-55.5 119q-7 9 -38.5 -6t-58 -36.5t-21.5 -27.5zM463 457q23 -39 52.5 -74t70.5 -69.5t94 -55t111 -20.5q57 0 110 20.5t94 55t70.5 69.5t52.5 74q-319 -84 -655 0z M715 731h155l-77 187zM918 903q-7 -4 19 -19q35 -19 46 -10l147 189q5 6 -21 27.5t-57 36.5t-38 6q-30 -39 -61 -129.5t-35 -100.5zM1290 102v23h84v-23h-31v-77h-22v77h-31zM1384 25v100h31l19 -78l18 78h29v-100h-19v77l-20 -77h-19l-20 77v-77h-19z" />
<glyph unicode="&#xcf;" d="M68 731q0 196 97 363t263.5 264.5t362.5 97.5t363 -97.5t264.5 -264.5t97.5 -363t-97.5 -363t-264.5 -264.5t-363 -97.5t-362.5 97.5t-263.5 264.5t-97 363zM164 731q0 -169 84.5 -313.5t229 -229t313.5 -84.5q128 0 244 50t199 134t132 200t49 243t-49 242.5t-132 199.5 t-199 133.5t-244 49.5q-169 0 -313.5 -84t-229 -228t-84.5 -313zM207 731q0 157 79 290t213.5 210.5t291.5 77.5t291 -77.5t212 -210.5t78 -290q0 -119 -46.5 -227t-124.5 -186t-185 -124.5t-225 -46.5t-225.5 46.5t-186.5 124.5t-125.5 186.5t-46.5 226.5zM330 664 l112 -177q346 -79 699 0l110 177h-921zM451 1063l151 -189q7 -8 38.5 7.5t29.5 21.5q-15 29 -45.5 111t-55.5 119q-7 9 -38.5 -6t-58 -36.5t-21.5 -27.5zM463 457q23 -39 52.5 -74t70.5 -69.5t94 -55t111 -20.5q57 0 110 20.5t94 55t70.5 69.5t52.5 74q-319 -84 -655 0z M715 731h155l-77 187zM918 903q-7 -4 19 -19q35 -19 46 -10l147 189q5 6 -21 27.5t-57 36.5t-38 6q-30 -39 -61 -129.5t-35 -100.5zM1290 102v23h84v-23h-31v-77h-22v77h-31zM1384 25v100h31l19 -78l18 78h29v-100h-19v77l-20 -77h-19l-20 77v-77h-19z" />
<glyph unicode="&#xd0;" d="M68 731q0 196 97 363t263.5 264.5t362.5 97.5t363 -97.5t264.5 -264.5t97.5 -363t-97.5 -363t-264.5 -264.5t-363 -97.5t-362.5 97.5t-263.5 264.5t-97 363zM164 731q0 -169 84.5 -313.5t229 -229t313.5 -84.5q128 0 244 50t199 134t132 200t49 243t-49 242.5t-132 199.5 t-199 133.5t-244 49.5q-169 0 -313.5 -84t-229 -228t-84.5 -313zM207 731q0 157 79 290t213.5 210.5t291.5 77.5t291 -77.5t212 -210.5t78 -290q0 -119 -46.5 -227t-124.5 -186t-185 -124.5t-225 -46.5t-225.5 46.5t-186.5 124.5t-125.5 186.5t-46.5 226.5zM330 664 l112 -177q346 -79 699 0l110 177h-921zM451 1063l151 -189q7 -8 38.5 7.5t29.5 21.5q-15 29 -45.5 111t-55.5 119q-7 9 -38.5 -6t-58 -36.5t-21.5 -27.5zM463 457q23 -39 52.5 -74t70.5 -69.5t94 -55t111 -20.5q57 0 110 20.5t94 55t70.5 69.5t52.5 74q-319 -84 -655 0z M715 731h155l-77 187zM918 903q-7 -4 19 -19q35 -19 46 -10l147 189q5 6 -21 27.5t-57 36.5t-38 6q-30 -39 -61 -129.5t-35 -100.5zM1290 102v23h84v-23h-31v-77h-22v77h-31zM1384 25v100h31l19 -78l18 78h29v-100h-19v77l-20 -77h-19l-20 77v-77h-19z" />
<glyph unicode="&#xd1;" d="M68 731q0 196 97 363t263.5 264.5t362.5 97.5t363 -97.5t264.5 -264.5t97.5 -363t-97.5 -363t-264.5 -264.5t-363 -97.5t-362.5 97.5t-263.5 264.5t-97 363zM164 731q0 -169 84.5 -313.5t229 -229t313.5 -84.5q128 0 244 50t199 134t132 200t49 243t-49 242.5t-132 199.5 t-199 133.5t-244 49.5q-169 0 -313.5 -84t-229 -228t-84.5 -313zM207 731q0 157 79 290t213.5 210.5t291.5 77.5t291 -77.5t212 -210.5t78 -290q0 -119 -46.5 -227t-124.5 -186t-185 -124.5t-225 -46.5t-225.5 46.5t-186.5 124.5t-125.5 186.5t-46.5 226.5zM330 664 l112 -177q346 -79 699 0l110 177h-921zM451 1063l151 -189q7 -8 38.5 7.5t29.5 21.5q-15 29 -45.5 111t-55.5 119q-7 9 -38.5 -6t-58 -36.5t-21.5 -27.5zM463 457q23 -39 52.5 -74t70.5 -69.5t94 -55t111 -20.5q57 0 110 20.5t94 55t70.5 69.5t52.5 74q-319 -84 -655 0z M715 731h155l-77 187zM918 903q-7 -4 19 -19q35 -19 46 -10l147 189q5 6 -21 27.5t-57 36.5t-38 6q-30 -39 -61 -129.5t-35 -100.5zM1290 102v23h84v-23h-31v-77h-22v77h-31zM1384 25v100h31l19 -78l18 78h29v-100h-19v77l-20 -77h-19l-20 77v-77h-19z" />
<glyph unicode="&#xd2;" d="M68 731q0 196 97 363t263.5 264.5t362.5 97.5t363 -97.5t264.5 -264.5t97.5 -363t-97.5 -363t-264.5 -264.5t-363 -97.5t-362.5 97.5t-263.5 264.5t-97 363zM164 731q0 -169 84.5 -313.5t229 -229t313.5 -84.5q128 0 244 50t199 134t132 200t49 243t-49 242.5t-132 199.5 t-199 133.5t-244 49.5q-169 0 -313.5 -84t-229 -228t-84.5 -313zM207 731q0 157 79 290t213.5 210.5t291.5 77.5t291 -77.5t212 -210.5t78 -290q0 -119 -46.5 -227t-124.5 -186t-185 -124.5t-225 -46.5t-225.5 46.5t-186.5 124.5t-125.5 186.5t-46.5 226.5zM330 664 l112 -177q346 -79 699 0l110 177h-921zM451 1063l151 -189q7 -8 38.5 7.5t29.5 21.5q-15 29 -45.5 111t-55.5 119q-7 9 -38.5 -6t-58 -36.5t-21.5 -27.5zM463 457q23 -39 52.5 -74t70.5 -69.5t94 -55t111 -20.5q57 0 110 20.5t94 55t70.5 69.5t52.5 74q-319 -84 -655 0z M715 731h155l-77 187zM918 903q-7 -4 19 -19q35 -19 46 -10l147 189q5 6 -21 27.5t-57 36.5t-38 6q-30 -39 -61 -129.5t-35 -100.5zM1290 102v23h84v-23h-31v-77h-22v77h-31zM1384 25v100h31l19 -78l18 78h29v-100h-19v77l-20 -77h-19l-20 77v-77h-19z" />
<glyph unicode="&#xd3;" d="M68 731q0 196 97 363t263.5 264.5t362.5 97.5t363 -97.5t264.5 -264.5t97.5 -363t-97.5 -363t-264.5 -264.5t-363 -97.5t-362.5 97.5t-263.5 264.5t-97 363zM164 731q0 -169 84.5 -313.5t229 -229t313.5 -84.5q128 0 244 50t199 134t132 200t49 243t-49 242.5t-132 199.5 t-199 133.5t-244 49.5q-169 0 -313.5 -84t-229 -228t-84.5 -313zM207 731q0 157 79 290t213.5 210.5t291.5 77.5t291 -77.5t212 -210.5t78 -290q0 -119 -46.5 -227t-124.5 -186t-185 -124.5t-225 -46.5t-225.5 46.5t-186.5 124.5t-125.5 186.5t-46.5 226.5zM330 664 l112 -177q346 -79 699 0l110 177h-921zM451 1063l151 -189q7 -8 38.5 7.5t29.5 21.5q-15 29 -45.5 111t-55.5 119q-7 9 -38.5 -6t-58 -36.5t-21.5 -27.5zM463 457q23 -39 52.5 -74t70.5 -69.5t94 -55t111 -20.5q57 0 110 20.5t94 55t70.5 69.5t52.5 74q-319 -84 -655 0z M715 731h155l-77 187zM918 903q-7 -4 19 -19q35 -19 46 -10l147 189q5 6 -21 27.5t-57 36.5t-38 6q-30 -39 -61 -129.5t-35 -100.5zM1290 102v23h84v-23h-31v-77h-22v77h-31zM1384 25v100h31l19 -78l18 78h29v-100h-19v77l-20 -77h-19l-20 77v-77h-19z" />
<glyph unicode="&#xd4;" d="M68 731q0 196 97 363t263.5 264.5t362.5 97.5t363 -97.5t264.5 -264.5t97.5 -363t-97.5 -363t-264.5 -264.5t-363 -97.5t-362.5 97.5t-263.5 264.5t-97 363zM164 731q0 -169 84.5 -313.5t229 -229t313.5 -84.5q128 0 244 50t199 134t132 200t49 243t-49 242.5t-132 199.5 t-199 133.5t-244 49.5q-169 0 -313.5 -84t-229 -228t-84.5 -313zM207 731q0 157 79 290t213.5 210.5t291.5 77.5t291 -77.5t212 -210.5t78 -290q0 -119 -46.5 -227t-124.5 -186t-185 -124.5t-225 -46.5t-225.5 46.5t-186.5 124.5t-125.5 186.5t-46.5 226.5zM330 664 l112 -177q346 -79 699 0l110 177h-921zM451 1063l151 -189q7 -8 38.5 7.5t29.5 21.5q-15 29 -45.5 111t-55.5 119q-7 9 -38.5 -6t-58 -36.5t-21.5 -27.5zM463 457q23 -39 52.5 -74t70.5 -69.5t94 -55t111 -20.5q57 0 110 20.5t94 55t70.5 69.5t52.5 74q-319 -84 -655 0z M715 731h155l-77 187zM918 903q-7 -4 19 -19q35 -19 46 -10l147 189q5 6 -21 27.5t-57 36.5t-38 6q-30 -39 -61 -129.5t-35 -100.5zM1290 102v23h84v-23h-31v-77h-22v77h-31zM1384 25v100h31l19 -78l18 78h29v-100h-19v77l-20 -77h-19l-20 77v-77h-19z" />
<glyph unicode="&#xd5;" d="M68 731q0 196 97 363t263.5 264.5t362.5 97.5t363 -97.5t264.5 -264.5t97.5 -363t-97.5 -363t-264.5 -264.5t-363 -97.5t-362.5 97.5t-263.5 264.5t-97 363zM164 731q0 -169 84.5 -313.5t229 -229t313.5 -84.5q128 0 244 50t199 134t132 200t49 243t-49 242.5t-132 199.5 t-199 133.5t-244 49.5q-169 0 -313.5 -84t-229 -228t-84.5 -313zM207 731q0 157 79 290t213.5 210.5t291.5 77.5t291 -77.5t212 -210.5t78 -290q0 -119 -46.5 -227t-124.5 -186t-185 -124.5t-225 -46.5t-225.5 46.5t-186.5 124.5t-125.5 186.5t-46.5 226.5zM330 664 l112 -177q346 -79 699 0l110 177h-921zM451 1063l151 -189q7 -8 38.5 7.5t29.5 21.5q-15 29 -45.5 111t-55.5 119q-7 9 -38.5 -6t-58 -36.5t-21.5 -27.5zM463 457q23 -39 52.5 -74t70.5 -69.5t94 -55t111 -20.5q57 0 110 20.5t94 55t70.5 69.5t52.5 74q-319 -84 -655 0z M715 731h155l-77 187zM918 903q-7 -4 19 -19q35 -19 46 -10l147 189q5 6 -21 27.5t-57 36.5t-38 6q-30 -39 -61 -129.5t-35 -100.5zM1290 102v23h84v-23h-31v-77h-22v77h-31zM1384 25v100h31l19 -78l18 78h29v-100h-19v77l-20 -77h-19l-20 77v-77h-19z" />
<glyph unicode="&#xd6;" d="M68 731q0 196 97 363t263.5 264.5t362.5 97.5t363 -97.5t264.5 -264.5t97.5 -363t-97.5 -363t-264.5 -264.5t-363 -97.5t-362.5 97.5t-263.5 264.5t-97 363zM164 731q0 -169 84.5 -313.5t229 -229t313.5 -84.5q128 0 244 50t199 134t132 200t49 243t-49 242.5t-132 199.5 t-199 133.5t-244 49.5q-169 0 -313.5 -84t-229 -228t-84.5 -313zM207 731q0 157 79 290t213.5 210.5t291.5 77.5t291 -77.5t212 -210.5t78 -290q0 -119 -46.5 -227t-124.5 -186t-185 -124.5t-225 -46.5t-225.5 46.5t-186.5 124.5t-125.5 186.5t-46.5 226.5zM330 664 l112 -177q346 -79 699 0l110 177h-921zM451 1063l151 -189q7 -8 38.5 7.5t29.5 21.5q-15 29 -45.5 111t-55.5 119q-7 9 -38.5 -6t-58 -36.5t-21.5 -27.5zM463 457q23 -39 52.5 -74t70.5 -69.5t94 -55t111 -20.5q57 0 110 20.5t94 55t70.5 69.5t52.5 74q-319 -84 -655 0z M715 731h155l-77 187zM918 903q-7 -4 19 -19q35 -19 46 -10l147 189q5 6 -21 27.5t-57 36.5t-38 6q-30 -39 -61 -129.5t-35 -100.5zM1290 102v23h84v-23h-31v-77h-22v77h-31zM1384 25v100h31l19 -78l18 78h29v-100h-19v77l-20 -77h-19l-20 77v-77h-19z" />
<glyph unicode="&#xd7;" d="M68 731q0 196 97 363t263.5 264.5t362.5 97.5t363 -97.5t264.5 -264.5t97.5 -363t-97.5 -363t-264.5 -264.5t-363 -97.5t-362.5 97.5t-263.5 264.5t-97 363zM164 731q0 -169 84.5 -313.5t229 -229t313.5 -84.5q128 0 244 50t199 134t132 200t49 243t-49 242.5t-132 199.5 t-199 133.5t-244 49.5q-169 0 -313.5 -84t-229 -228t-84.5 -313zM207 731q0 157 79 290t213.5 210.5t291.5 77.5t291 -77.5t212 -210.5t78 -290q0 -119 -46.5 -227t-124.5 -186t-185 -124.5t-225 -46.5t-225.5 46.5t-186.5 124.5t-125.5 186.5t-46.5 226.5zM330 664 l112 -177q346 -79 699 0l110 177h-921zM451 1063l151 -189q7 -8 38.5 7.5t29.5 21.5q-15 29 -45.5 111t-55.5 119q-7 9 -38.5 -6t-58 -36.5t-21.5 -27.5zM463 457q23 -39 52.5 -74t70.5 -69.5t94 -55t111 -20.5q57 0 110 20.5t94 55t70.5 69.5t52.5 74q-319 -84 -655 0z M715 731h155l-77 187zM918 903q-7 -4 19 -19q35 -19 46 -10l147 189q5 6 -21 27.5t-57 36.5t-38 6q-30 -39 -61 -129.5t-35 -100.5zM1290 102v23h84v-23h-31v-77h-22v77h-31zM1384 25v100h31l19 -78l18 78h29v-100h-19v77l-20 -77h-19l-20 77v-77h-19z" />
<glyph unicode="&#xd8;" d="M68 731q0 196 97 363t263.5 264.5t362.5 97.5t363 -97.5t264.5 -264.5t97.5 -363t-97.5 -363t-264.5 -264.5t-363 -97.5t-362.5 97.5t-263.5 264.5t-97 363zM164 731q0 -169 84.5 -313.5t229 -229t313.5 -84.5q128 0 244 50t199 134t132 200t49 243t-49 242.5t-132 199.5 t-199 133.5t-244 49.5q-169 0 -313.5 -84t-229 -228t-84.5 -313zM207 731q0 157 79 290t213.5 210.5t291.5 77.5t291 -77.5t212 -210.5t78 -290q0 -119 -46.5 -227t-124.5 -186t-185 -124.5t-225 -46.5t-225.5 46.5t-186.5 124.5t-125.5 186.5t-46.5 226.5zM330 664 l112 -177q346 -79 699 0l110 177h-921zM451 1063l151 -189q7 -8 38.5 7.5t29.5 21.5q-15 29 -45.5 111t-55.5 119q-7 9 -38.5 -6t-58 -36.5t-21.5 -27.5zM463 457q23 -39 52.5 -74t70.5 -69.5t94 -55t111 -20.5q57 0 110 20.5t94 55t70.5 69.5t52.5 74q-319 -84 -655 0z M715 731h155l-77 187zM918 903q-7 -4 19 -19q35 -19 46 -10l147 189q5 6 -21 27.5t-57 36.5t-38 6q-30 -39 -61 -129.5t-35 -100.5zM1290 102v23h84v-23h-31v-77h-22v77h-31zM1384 25v100h31l19 -78l18 78h29v-100h-19v77l-20 -77h-19l-20 77v-77h-19z" />
<glyph unicode="&#xd9;" d="M68 731q0 196 97 363t263.5 264.5t362.5 97.5t363 -97.5t264.5 -264.5t97.5 -363t-97.5 -363t-264.5 -264.5t-363 -97.5t-362.5 97.5t-263.5 264.5t-97 363zM164 731q0 -169 84.5 -313.5t229 -229t313.5 -84.5q128 0 244 50t199 134t132 200t49 243t-49 242.5t-132 199.5 t-199 133.5t-244 49.5q-169 0 -313.5 -84t-229 -228t-84.5 -313zM207 731q0 157 79 290t213.5 210.5t291.5 77.5t291 -77.5t212 -210.5t78 -290q0 -119 -46.5 -227t-124.5 -186t-185 -124.5t-225 -46.5t-225.5 46.5t-186.5 124.5t-125.5 186.5t-46.5 226.5zM330 664 l112 -177q346 -79 699 0l110 177h-921zM451 1063l151 -189q7 -8 38.5 7.5t29.5 21.5q-15 29 -45.5 111t-55.5 119q-7 9 -38.5 -6t-58 -36.5t-21.5 -27.5zM463 457q23 -39 52.5 -74t70.5 -69.5t94 -55t111 -20.5q57 0 110 20.5t94 55t70.5 69.5t52.5 74q-319 -84 -655 0z M715 731h155l-77 187zM918 903q-7 -4 19 -19q35 -19 46 -10l147 189q5 6 -21 27.5t-57 36.5t-38 6q-30 -39 -61 -129.5t-35 -100.5zM1290 102v23h84v-23h-31v-77h-22v77h-31zM1384 25v100h31l19 -78l18 78h29v-100h-19v77l-20 -77h-19l-20 77v-77h-19z" />
<glyph unicode="&#xda;" d="M68 731q0 196 97 363t263.5 264.5t362.5 97.5t363 -97.5t264.5 -264.5t97.5 -363t-97.5 -363t-264.5 -264.5t-363 -97.5t-362.5 97.5t-263.5 264.5t-97 363zM164 731q0 -169 84.5 -313.5t229 -229t313.5 -84.5q128 0 244 50t199 134t132 200t49 243t-49 242.5t-132 199.5 t-199 133.5t-244 49.5q-169 0 -313.5 -84t-229 -228t-84.5 -313zM207 731q0 157 79 290t213.5 210.5t291.5 77.5t291 -77.5t212 -210.5t78 -290q0 -119 -46.5 -227t-124.5 -186t-185 -124.5t-225 -46.5t-225.5 46.5t-186.5 124.5t-125.5 186.5t-46.5 226.5zM330 664 l112 -177q346 -79 699 0l110 177h-921zM451 1063l151 -189q7 -8 38.5 7.5t29.5 21.5q-15 29 -45.5 111t-55.5 119q-7 9 -38.5 -6t-58 -36.5t-21.5 -27.5zM463 457q23 -39 52.5 -74t70.5 -69.5t94 -55t111 -20.5q57 0 110 20.5t94 55t70.5 69.5t52.5 74q-319 -84 -655 0z M715 731h155l-77 187zM918 903q-7 -4 19 -19q35 -19 46 -10l147 189q5 6 -21 27.5t-57 36.5t-38 6q-30 -39 -61 -129.5t-35 -100.5zM1290 102v23h84v-23h-31v-77h-22v77h-31zM1384 25v100h31l19 -78l18 78h29v-100h-19v77l-20 -77h-19l-20 77v-77h-19z" />
<glyph unicode="&#xdb;" d="M68 731q0 196 97 363t263.5 264.5t362.5 97.5t363 -97.5t264.5 -264.5t97.5 -363t-97.5 -363t-264.5 -264.5t-363 -97.5t-362.5 97.5t-263.5 264.5t-97 363zM164 731q0 -169 84.5 -313.5t229 -229t313.5 -84.5q128 0 244 50t199 134t132 200t49 243t-49 242.5t-132 199.5 t-199 133.5t-244 49.5q-169 0 -313.5 -84t-229 -228t-84.5 -313zM207 731q0 157 79 290t213.5 210.5t291.5 77.5t291 -77.5t212 -210.5t78 -290q0 -119 -46.5 -227t-124.5 -186t-185 -124.5t-225 -46.5t-225.5 46.5t-186.5 124.5t-125.5 186.5t-46.5 226.5zM330 664 l112 -177q346 -79 699 0l110 177h-921zM451 1063l151 -189q7 -8 38.5 7.5t29.5 21.5q-15 29 -45.5 111t-55.5 119q-7 9 -38.5 -6t-58 -36.5t-21.5 -27.5zM463 457q23 -39 52.5 -74t70.5 -69.5t94 -55t111 -20.5q57 0 110 20.5t94 55t70.5 69.5t52.5 74q-319 -84 -655 0z M715 731h155l-77 187zM918 903q-7 -4 19 -19q35 -19 46 -10l147 189q5 6 -21 27.5t-57 36.5t-38 6q-30 -39 -61 -129.5t-35 -100.5zM1290 102v23h84v-23h-31v-77h-22v77h-31zM1384 25v100h31l19 -78l18 78h29v-100h-19v77l-20 -77h-19l-20 77v-77h-19z" />
<glyph unicode="&#xdc;" d="M68 731q0 196 97 363t263.5 264.5t362.5 97.5t363 -97.5t264.5 -264.5t97.5 -363t-97.5 -363t-264.5 -264.5t-363 -97.5t-362.5 97.5t-263.5 264.5t-97 363zM164 731q0 -169 84.5 -313.5t229 -229t313.5 -84.5q128 0 244 50t199 134t132 200t49 243t-49 242.5t-132 199.5 t-199 133.5t-244 49.5q-169 0 -313.5 -84t-229 -228t-84.5 -313zM207 731q0 157 79 290t213.5 210.5t291.5 77.5t291 -77.5t212 -210.5t78 -290q0 -119 -46.5 -227t-124.5 -186t-185 -124.5t-225 -46.5t-225.5 46.5t-186.5 124.5t-125.5 186.5t-46.5 226.5zM330 664 l112 -177q346 -79 699 0l110 177h-921zM451 1063l151 -189q7 -8 38.5 7.5t29.5 21.5q-15 29 -45.5 111t-55.5 119q-7 9 -38.5 -6t-58 -36.5t-21.5 -27.5zM463 457q23 -39 52.5 -74t70.5 -69.5t94 -55t111 -20.5q57 0 110 20.5t94 55t70.5 69.5t52.5 74q-319 -84 -655 0z M715 731h155l-77 187zM918 903q-7 -4 19 -19q35 -19 46 -10l147 189q5 6 -21 27.5t-57 36.5t-38 6q-30 -39 -61 -129.5t-35 -100.5zM1290 102v23h84v-23h-31v-77h-22v77h-31zM1384 25v100h31l19 -78l18 78h29v-100h-19v77l-20 -77h-19l-20 77v-77h-19z" />
<glyph unicode="&#xdd;" d="M68 731q0 196 97 363t263.5 264.5t362.5 97.5t363 -97.5t264.5 -264.5t97.5 -363t-97.5 -363t-264.5 -264.5t-363 -97.5t-362.5 97.5t-263.5 264.5t-97 363zM164 731q0 -169 84.5 -313.5t229 -229t313.5 -84.5q128 0 244 50t199 134t132 200t49 243t-49 242.5t-132 199.5 t-199 133.5t-244 49.5q-169 0 -313.5 -84t-229 -228t-84.5 -313zM207 731q0 157 79 290t213.5 210.5t291.5 77.5t291 -77.5t212 -210.5t78 -290q0 -119 -46.5 -227t-124.5 -186t-185 -124.5t-225 -46.5t-225.5 46.5t-186.5 124.5t-125.5 186.5t-46.5 226.5zM330 664 l112 -177q346 -79 699 0l110 177h-921zM451 1063l151 -189q7 -8 38.5 7.5t29.5 21.5q-15 29 -45.5 111t-55.5 119q-7 9 -38.5 -6t-58 -36.5t-21.5 -27.5zM463 457q23 -39 52.5 -74t70.5 -69.5t94 -55t111 -20.5q57 0 110 20.5t94 55t70.5 69.5t52.5 74q-319 -84 -655 0z M715 731h155l-77 187zM918 903q-7 -4 19 -19q35 -19 46 -10l147 189q5 6 -21 27.5t-57 36.5t-38 6q-30 -39 -61 -129.5t-35 -100.5zM1290 102v23h84v-23h-31v-77h-22v77h-31zM1384 25v100h31l19 -78l18 78h29v-100h-19v77l-20 -77h-19l-20 77v-77h-19z" />
<glyph unicode="&#xde;" d="M68 731q0 196 97 363t263.5 264.5t362.5 97.5t363 -97.5t264.5 -264.5t97.5 -363t-97.5 -363t-264.5 -264.5t-363 -97.5t-362.5 97.5t-263.5 264.5t-97 363zM164 731q0 -169 84.5 -313.5t229 -229t313.5 -84.5q128 0 244 50t199 134t132 200t49 243t-49 242.5t-132 199.5 t-199 133.5t-244 49.5q-169 0 -313.5 -84t-229 -228t-84.5 -313zM207 731q0 157 79 290t213.5 210.5t291.5 77.5t291 -77.5t212 -210.5t78 -290q0 -119 -46.5 -227t-124.5 -186t-185 -124.5t-225 -46.5t-225.5 46.5t-186.5 124.5t-125.5 186.5t-46.5 226.5zM330 664 l112 -177q346 -79 699 0l110 177h-921zM451 1063l151 -189q7 -8 38.5 7.5t29.5 21.5q-15 29 -45.5 111t-55.5 119q-7 9 -38.5 -6t-58 -36.5t-21.5 -27.5zM463 457q23 -39 52.5 -74t70.5 -69.5t94 -55t111 -20.5q57 0 110 20.5t94 55t70.5 69.5t52.5 74q-319 -84 -655 0z M715 731h155l-77 187zM918 903q-7 -4 19 -19q35 -19 46 -10l147 189q5 6 -21 27.5t-57 36.5t-38 6q-30 -39 -61 -129.5t-35 -100.5zM1290 102v23h84v-23h-31v-77h-22v77h-31zM1384 25v100h31l19 -78l18 78h29v-100h-19v77l-20 -77h-19l-20 77v-77h-19z" />
<glyph unicode="&#xdf;" d="M68 731q0 196 97 363t263.5 264.5t362.5 97.5t363 -97.5t264.5 -264.5t97.5 -363t-97.5 -363t-264.5 -264.5t-363 -97.5t-362.5 97.5t-263.5 264.5t-97 363zM164 731q0 -169 84.5 -313.5t229 -229t313.5 -84.5q128 0 244 50t199 134t132 200t49 243t-49 242.5t-132 199.5 t-199 133.5t-244 49.5q-169 0 -313.5 -84t-229 -228t-84.5 -313zM207 731q0 157 79 290t213.5 210.5t291.5 77.5t291 -77.5t212 -210.5t78 -290q0 -119 -46.5 -227t-124.5 -186t-185 -124.5t-225 -46.5t-225.5 46.5t-186.5 124.5t-125.5 186.5t-46.5 226.5zM330 664 l112 -177q346 -79 699 0l110 177h-921zM451 1063l151 -189q7 -8 38.5 7.5t29.5 21.5q-15 29 -45.5 111t-55.5 119q-7 9 -38.5 -6t-58 -36.5t-21.5 -27.5zM463 457q23 -39 52.5 -74t70.5 -69.5t94 -55t111 -20.5q57 0 110 20.5t94 55t70.5 69.5t52.5 74q-319 -84 -655 0z M715 731h155l-77 187zM918 903q-7 -4 19 -19q35 -19 46 -10l147 189q5 6 -21 27.5t-57 36.5t-38 6q-30 -39 -61 -129.5t-35 -100.5zM1290 102v23h84v-23h-31v-77h-22v77h-31zM1384 25v100h31l19 -78l18 78h29v-100h-19v77l-20 -77h-19l-20 77v-77h-19z" />
<glyph unicode="&#xe0;" d="M68 731q0 196 97 363t263.5 264.5t362.5 97.5t363 -97.5t264.5 -264.5t97.5 -363t-97.5 -363t-264.5 -264.5t-363 -97.5t-362.5 97.5t-263.5 264.5t-97 363zM164 731q0 -169 84.5 -313.5t229 -229t313.5 -84.5q128 0 244 50t199 134t132 200t49 243t-49 242.5t-132 199.5 t-199 133.5t-244 49.5q-169 0 -313.5 -84t-229 -228t-84.5 -313zM207 731q0 157 79 290t213.5 210.5t291.5 77.5t291 -77.5t212 -210.5t78 -290q0 -119 -46.5 -227t-124.5 -186t-185 -124.5t-225 -46.5t-225.5 46.5t-186.5 124.5t-125.5 186.5t-46.5 226.5zM330 664 l112 -177q346 -79 699 0l110 177h-921zM451 1063l151 -189q7 -8 38.5 7.5t29.5 21.5q-15 29 -45.5 111t-55.5 119q-7 9 -38.5 -6t-58 -36.5t-21.5 -27.5zM463 457q23 -39 52.5 -74t70.5 -69.5t94 -55t111 -20.5q57 0 110 20.5t94 55t70.5 69.5t52.5 74q-319 -84 -655 0z M715 731h155l-77 187zM918 903q-7 -4 19 -19q35 -19 46 -10l147 189q5 6 -21 27.5t-57 36.5t-38 6q-30 -39 -61 -129.5t-35 -100.5zM1290 102v23h84v-23h-31v-77h-22v77h-31zM1384 25v100h31l19 -78l18 78h29v-100h-19v77l-20 -77h-19l-20 77v-77h-19z" />
<glyph unicode="&#xe1;" d="M68 731q0 196 97 363t263.5 264.5t362.5 97.5t363 -97.5t264.5 -264.5t97.5 -363t-97.5 -363t-264.5 -264.5t-363 -97.5t-362.5 97.5t-263.5 264.5t-97 363zM164 731q0 -169 84.5 -313.5t229 -229t313.5 -84.5q128 0 244 50t199 134t132 200t49 243t-49 242.5t-132 199.5 t-199 133.5t-244 49.5q-169 0 -313.5 -84t-229 -228t-84.5 -313zM207 731q0 157 79 290t213.5 210.5t291.5 77.5t291 -77.5t212 -210.5t78 -290q0 -119 -46.5 -227t-124.5 -186t-185 -124.5t-225 -46.5t-225.5 46.5t-186.5 124.5t-125.5 186.5t-46.5 226.5zM330 664 l112 -177q346 -79 699 0l110 177h-921zM451 1063l151 -189q7 -8 38.5 7.5t29.5 21.5q-15 29 -45.5 111t-55.5 119q-7 9 -38.5 -6t-58 -36.5t-21.5 -27.5zM463 457q23 -39 52.5 -74t70.5 -69.5t94 -55t111 -20.5q57 0 110 20.5t94 55t70.5 69.5t52.5 74q-319 -84 -655 0z M715 731h155l-77 187zM918 903q-7 -4 19 -19q35 -19 46 -10l147 189q5 6 -21 27.5t-57 36.5t-38 6q-30 -39 -61 -129.5t-35 -100.5zM1290 102v23h84v-23h-31v-77h-22v77h-31zM1384 25v100h31l19 -78l18 78h29v-100h-19v77l-20 -77h-19l-20 77v-77h-19z" />
<glyph unicode="&#xe2;" d="M68 731q0 196 97 363t263.5 264.5t362.5 97.5t363 -97.5t264.5 -264.5t97.5 -363t-97.5 -363t-264.5 -264.5t-363 -97.5t-362.5 97.5t-263.5 264.5t-97 363zM164 731q0 -169 84.5 -313.5t229 -229t313.5 -84.5q128 0 244 50t199 134t132 200t49 243t-49 242.5t-132 199.5 t-199 133.5t-244 49.5q-169 0 -313.5 -84t-229 -228t-84.5 -313zM207 731q0 157 79 290t213.5 210.5t291.5 77.5t291 -77.5t212 -210.5t78 -290q0 -119 -46.5 -227t-124.5 -186t-185 -124.5t-225 -46.5t-225.5 46.5t-186.5 124.5t-125.5 186.5t-46.5 226.5zM330 664 l112 -177q346 -79 699 0l110 177h-921zM451 1063l151 -189q7 -8 38.5 7.5t29.5 21.5q-15 29 -45.5 111t-55.5 119q-7 9 -38.5 -6t-58 -36.5t-21.5 -27.5zM463 457q23 -39 52.5 -74t70.5 -69.5t94 -55t111 -20.5q57 0 110 20.5t94 55t70.5 69.5t52.5 74q-319 -84 -655 0z M715 731h155l-77 187zM918 903q-7 -4 19 -19q35 -19 46 -10l147 189q5 6 -21 27.5t-57 36.5t-38 6q-30 -39 -61 -129.5t-35 -100.5zM1290 102v23h84v-23h-31v-77h-22v77h-31zM1384 25v100h31l19 -78l18 78h29v-100h-19v77l-20 -77h-19l-20 77v-77h-19z" />
<glyph unicode="&#xe3;" d="M68 731q0 196 97 363t263.5 264.5t362.5 97.5t363 -97.5t264.5 -264.5t97.5 -363t-97.5 -363t-264.5 -264.5t-363 -97.5t-362.5 97.5t-263.5 264.5t-97 363zM164 731q0 -169 84.5 -313.5t229 -229t313.5 -84.5q128 0 244 50t199 134t132 200t49 243t-49 242.5t-132 199.5 t-199 133.5t-244 49.5q-169 0 -313.5 -84t-229 -228t-84.5 -313zM207 731q0 157 79 290t213.5 210.5t291.5 77.5t291 -77.5t212 -210.5t78 -290q0 -119 -46.5 -227t-124.5 -186t-185 -124.5t-225 -46.5t-225.5 46.5t-186.5 124.5t-125.5 186.5t-46.5 226.5zM330 664 l112 -177q346 -79 699 0l110 177h-921zM451 1063l151 -189q7 -8 38.5 7.5t29.5 21.5q-15 29 -45.5 111t-55.5 119q-7 9 -38.5 -6t-58 -36.5t-21.5 -27.5zM463 457q23 -39 52.5 -74t70.5 -69.5t94 -55t111 -20.5q57 0 110 20.5t94 55t70.5 69.5t52.5 74q-319 -84 -655 0z M715 731h155l-77 187zM918 903q-7 -4 19 -19q35 -19 46 -10l147 189q5 6 -21 27.5t-57 36.5t-38 6q-30 -39 -61 -129.5t-35 -100.5zM1290 102v23h84v-23h-31v-77h-22v77h-31zM1384 25v100h31l19 -78l18 78h29v-100h-19v77l-20 -77h-19l-20 77v-77h-19z" />
<glyph unicode="&#xe4;" d="M68 731q0 196 97 363t263.5 264.5t362.5 97.5t363 -97.5t264.5 -264.5t97.5 -363t-97.5 -363t-264.5 -264.5t-363 -97.5t-362.5 97.5t-263.5 264.5t-97 363zM164 731q0 -169 84.5 -313.5t229 -229t313.5 -84.5q128 0 244 50t199 134t132 200t49 243t-49 242.5t-132 199.5 t-199 133.5t-244 49.5q-169 0 -313.5 -84t-229 -228t-84.5 -313zM207 731q0 157 79 290t213.5 210.5t291.5 77.5t291 -77.5t212 -210.5t78 -290q0 -119 -46.5 -227t-124.5 -186t-185 -124.5t-225 -46.5t-225.5 46.5t-186.5 124.5t-125.5 186.5t-46.5 226.5zM330 664 l112 -177q346 -79 699 0l110 177h-921zM451 1063l151 -189q7 -8 38.5 7.5t29.5 21.5q-15 29 -45.5 111t-55.5 119q-7 9 -38.5 -6t-58 -36.5t-21.5 -27.5zM463 457q23 -39 52.5 -74t70.5 -69.5t94 -55t111 -20.5q57 0 110 20.5t94 55t70.5 69.5t52.5 74q-319 -84 -655 0z M715 731h155l-77 187zM918 903q-7 -4 19 -19q35 -19 46 -10l147 189q5 6 -21 27.5t-57 36.5t-38 6q-30 -39 -61 -129.5t-35 -100.5zM1290 102v23h84v-23h-31v-77h-22v77h-31zM1384 25v100h31l19 -78l18 78h29v-100h-19v77l-20 -77h-19l-20 77v-77h-19z" />
<glyph unicode="&#xe5;" d="M68 731q0 196 97 363t263.5 264.5t362.5 97.5t363 -97.5t264.5 -264.5t97.5 -363t-97.5 -363t-264.5 -264.5t-363 -97.5t-362.5 97.5t-263.5 264.5t-97 363zM164 731q0 -169 84.5 -313.5t229 -229t313.5 -84.5q128 0 244 50t199 134t132 200t49 243t-49 242.5t-132 199.5 t-199 133.5t-244 49.5q-169 0 -313.5 -84t-229 -228t-84.5 -313zM207 731q0 157 79 290t213.5 210.5t291.5 77.5t291 -77.5t212 -210.5t78 -290q0 -119 -46.5 -227t-124.5 -186t-185 -124.5t-225 -46.5t-225.5 46.5t-186.5 124.5t-125.5 186.5t-46.5 226.5zM330 664 l112 -177q346 -79 699 0l110 177h-921zM451 1063l151 -189q7 -8 38.5 7.5t29.5 21.5q-15 29 -45.5 111t-55.5 119q-7 9 -38.5 -6t-58 -36.5t-21.5 -27.5zM463 457q23 -39 52.5 -74t70.5 -69.5t94 -55t111 -20.5q57 0 110 20.5t94 55t70.5 69.5t52.5 74q-319 -84 -655 0z M715 731h155l-77 187zM918 903q-7 -4 19 -19q35 -19 46 -10l147 189q5 6 -21 27.5t-57 36.5t-38 6q-30 -39 -61 -129.5t-35 -100.5zM1290 102v23h84v-23h-31v-77h-22v77h-31zM1384 25v100h31l19 -78l18 78h29v-100h-19v77l-20 -77h-19l-20 77v-77h-19z" />
<glyph unicode="&#xe6;" d="M68 731q0 196 97 363t263.5 264.5t362.5 97.5t363 -97.5t264.5 -264.5t97.5 -363t-97.5 -363t-264.5 -264.5t-363 -97.5t-362.5 97.5t-263.5 264.5t-97 363zM164 731q0 -169 84.5 -313.5t229 -229t313.5 -84.5q128 0 244 50t199 134t132 200t49 243t-49 242.5t-132 199.5 t-199 133.5t-244 49.5q-169 0 -313.5 -84t-229 -228t-84.5 -313zM207 731q0 157 79 290t213.5 210.5t291.5 77.5t291 -77.5t212 -210.5t78 -290q0 -119 -46.5 -227t-124.5 -186t-185 -124.5t-225 -46.5t-225.5 46.5t-186.5 124.5t-125.5 186.5t-46.5 226.5zM330 664 l112 -177q346 -79 699 0l110 177h-921zM451 1063l151 -189q7 -8 38.5 7.5t29.5 21.5q-15 29 -45.5 111t-55.5 119q-7 9 -38.5 -6t-58 -36.5t-21.5 -27.5zM463 457q23 -39 52.5 -74t70.5 -69.5t94 -55t111 -20.5q57 0 110 20.5t94 55t70.5 69.5t52.5 74q-319 -84 -655 0z M715 731h155l-77 187zM918 903q-7 -4 19 -19q35 -19 46 -10l147 189q5 6 -21 27.5t-57 36.5t-38 6q-30 -39 -61 -129.5t-35 -100.5zM1290 102v23h84v-23h-31v-77h-22v77h-31zM1384 25v100h31l19 -78l18 78h29v-100h-19v77l-20 -77h-19l-20 77v-77h-19z" />
<glyph unicode="&#xe7;" d="M68 731q0 196 97 363t263.5 264.5t362.5 97.5t363 -97.5t264.5 -264.5t97.5 -363t-97.5 -363t-264.5 -264.5t-363 -97.5t-362.5 97.5t-263.5 264.5t-97 363zM164 731q0 -169 84.5 -313.5t229 -229t313.5 -84.5q128 0 244 50t199 134t132 200t49 243t-49 242.5t-132 199.5 t-199 133.5t-244 49.5q-169 0 -313.5 -84t-229 -228t-84.5 -313zM207 731q0 157 79 290t213.5 210.5t291.5 77.5t291 -77.5t212 -210.5t78 -290q0 -119 -46.5 -227t-124.5 -186t-185 -124.5t-225 -46.5t-225.5 46.5t-186.5 124.5t-125.5 186.5t-46.5 226.5zM330 664 l112 -177q346 -79 699 0l110 177h-921zM451 1063l151 -189q7 -8 38.5 7.5t29.5 21.5q-15 29 -45.5 111t-55.5 119q-7 9 -38.5 -6t-58 -36.5t-21.5 -27.5zM463 457q23 -39 52.5 -74t70.5 -69.5t94 -55t111 -20.5q57 0 110 20.5t94 55t70.5 69.5t52.5 74q-319 -84 -655 0z M715 731h155l-77 187zM918 903q-7 -4 19 -19q35 -19 46 -10l147 189q5 6 -21 27.5t-57 36.5t-38 6q-30 -39 -61 -129.5t-35 -100.5zM1290 102v23h84v-23h-31v-77h-22v77h-31zM1384 25v100h31l19 -78l18 78h29v-100h-19v77l-20 -77h-19l-20 77v-77h-19z" />
<glyph unicode="&#xe8;" d="M68 731q0 196 97 363t263.5 264.5t362.5 97.5t363 -97.5t264.5 -264.5t97.5 -363t-97.5 -363t-264.5 -264.5t-363 -97.5t-362.5 97.5t-263.5 264.5t-97 363zM164 731q0 -169 84.5 -313.5t229 -229t313.5 -84.5q128 0 244 50t199 134t132 200t49 243t-49 242.5t-132 199.5 t-199 133.5t-244 49.5q-169 0 -313.5 -84t-229 -228t-84.5 -313zM207 731q0 157 79 290t213.5 210.5t291.5 77.5t291 -77.5t212 -210.5t78 -290q0 -119 -46.5 -227t-124.5 -186t-185 -124.5t-225 -46.5t-225.5 46.5t-186.5 124.5t-125.5 186.5t-46.5 226.5zM330 664 l112 -177q346 -79 699 0l110 177h-921zM451 1063l151 -189q7 -8 38.5 7.5t29.5 21.5q-15 29 -45.5 111t-55.5 119q-7 9 -38.5 -6t-58 -36.5t-21.5 -27.5zM463 457q23 -39 52.5 -74t70.5 -69.5t94 -55t111 -20.5q57 0 110 20.5t94 55t70.5 69.5t52.5 74q-319 -84 -655 0z M715 731h155l-77 187zM918 903q-7 -4 19 -19q35 -19 46 -10l147 189q5 6 -21 27.5t-57 36.5t-38 6q-30 -39 -61 -129.5t-35 -100.5zM1290 102v23h84v-23h-31v-77h-22v77h-31zM1384 25v100h31l19 -78l18 78h29v-100h-19v77l-20 -77h-19l-20 77v-77h-19z" />
<glyph unicode="&#xe9;" d="M68 731q0 196 97 363t263.5 264.5t362.5 97.5t363 -97.5t264.5 -264.5t97.5 -363t-97.5 -363t-264.5 -264.5t-363 -97.5t-362.5 97.5t-263.5 264.5t-97 363zM164 731q0 -169 84.5 -313.5t229 -229t313.5 -84.5q128 0 244 50t199 134t132 200t49 243t-49 242.5t-132 199.5 t-199 133.5t-244 49.5q-169 0 -313.5 -84t-229 -228t-84.5 -313zM207 731q0 157 79 290t213.5 210.5t291.5 77.5t291 -77.5t212 -210.5t78 -290q0 -119 -46.5 -227t-124.5 -186t-185 -124.5t-225 -46.5t-225.5 46.5t-186.5 124.5t-125.5 186.5t-46.5 226.5zM330 664 l112 -177q346 -79 699 0l110 177h-921zM451 1063l151 -189q7 -8 38.5 7.5t29.5 21.5q-15 29 -45.5 111t-55.5 119q-7 9 -38.5 -6t-58 -36.5t-21.5 -27.5zM463 457q23 -39 52.5 -74t70.5 -69.5t94 -55t111 -20.5q57 0 110 20.5t94 55t70.5 69.5t52.5 74q-319 -84 -655 0z M715 731h155l-77 187zM918 903q-7 -4 19 -19q35 -19 46 -10l147 189q5 6 -21 27.5t-57 36.5t-38 6q-30 -39 -61 -129.5t-35 -100.5zM1290 102v23h84v-23h-31v-77h-22v77h-31zM1384 25v100h31l19 -78l18 78h29v-100h-19v77l-20 -77h-19l-20 77v-77h-19z" />
<glyph unicode="&#xea;" d="M68 731q0 196 97 363t263.5 264.5t362.5 97.5t363 -97.5t264.5 -264.5t97.5 -363t-97.5 -363t-264.5 -264.5t-363 -97.5t-362.5 97.5t-263.5 264.5t-97 363zM164 731q0 -169 84.5 -313.5t229 -229t313.5 -84.5q128 0 244 50t199 134t132 200t49 243t-49 242.5t-132 199.5 t-199 133.5t-244 49.5q-169 0 -313.5 -84t-229 -228t-84.5 -313zM207 731q0 157 79 290t213.5 210.5t291.5 77.5t291 -77.5t212 -210.5t78 -290q0 -119 -46.5 -227t-124.5 -186t-185 -124.5t-225 -46.5t-225.5 46.5t-186.5 124.5t-125.5 186.5t-46.5 226.5zM330 664 l112 -177q346 -79 699 0l110 177h-921zM451 1063l151 -189q7 -8 38.5 7.5t29.5 21.5q-15 29 -45.5 111t-55.5 119q-7 9 -38.5 -6t-58 -36.5t-21.5 -27.5zM463 457q23 -39 52.5 -74t70.5 -69.5t94 -55t111 -20.5q57 0 110 20.5t94 55t70.5 69.5t52.5 74q-319 -84 -655 0z M715 731h155l-77 187zM918 903q-7 -4 19 -19q35 -19 46 -10l147 189q5 6 -21 27.5t-57 36.5t-38 6q-30 -39 -61 -129.5t-35 -100.5zM1290 102v23h84v-23h-31v-77h-22v77h-31zM1384 25v100h31l19 -78l18 78h29v-100h-19v77l-20 -77h-19l-20 77v-77h-19z" />
<glyph unicode="&#xeb;" d="M68 731q0 196 97 363t263.5 264.5t362.5 97.5t363 -97.5t264.5 -264.5t97.5 -363t-97.5 -363t-264.5 -264.5t-363 -97.5t-362.5 97.5t-263.5 264.5t-97 363zM164 731q0 -169 84.5 -313.5t229 -229t313.5 -84.5q128 0 244 50t199 134t132 200t49 243t-49 242.5t-132 199.5 t-199 133.5t-244 49.5q-169 0 -313.5 -84t-229 -228t-84.5 -313zM207 731q0 157 79 290t213.5 210.5t291.5 77.5t291 -77.5t212 -210.5t78 -290q0 -119 -46.5 -227t-124.5 -186t-185 -124.5t-225 -46.5t-225.5 46.5t-186.5 124.5t-125.5 186.5t-46.5 226.5zM330 664 l112 -177q346 -79 699 0l110 177h-921zM451 1063l151 -189q7 -8 38.5 7.5t29.5 21.5q-15 29 -45.5 111t-55.5 119q-7 9 -38.5 -6t-58 -36.5t-21.5 -27.5zM463 457q23 -39 52.5 -74t70.5 -69.5t94 -55t111 -20.5q57 0 110 20.5t94 55t70.5 69.5t52.5 74q-319 -84 -655 0z M715 731h155l-77 187zM918 903q-7 -4 19 -19q35 -19 46 -10l147 189q5 6 -21 27.5t-57 36.5t-38 6q-30 -39 -61 -129.5t-35 -100.5zM1290 102v23h84v-23h-31v-77h-22v77h-31zM1384 25v100h31l19 -78l18 78h29v-100h-19v77l-20 -77h-19l-20 77v-77h-19z" />
<glyph unicode="&#xec;" d="M68 731q0 196 97 363t263.5 264.5t362.5 97.5t363 -97.5t264.5 -264.5t97.5 -363t-97.5 -363t-264.5 -264.5t-363 -97.5t-362.5 97.5t-263.5 264.5t-97 363zM164 731q0 -169 84.5 -313.5t229 -229t313.5 -84.5q128 0 244 50t199 134t132 200t49 243t-49 242.5t-132 199.5 t-199 133.5t-244 49.5q-169 0 -313.5 -84t-229 -228t-84.5 -313zM207 731q0 157 79 290t213.5 210.5t291.5 77.5t291 -77.5t212 -210.5t78 -290q0 -119 -46.5 -227t-124.5 -186t-185 -124.5t-225 -46.5t-225.5 46.5t-186.5 124.5t-125.5 186.5t-46.5 226.5zM330 664 l112 -177q346 -79 699 0l110 177h-921zM451 1063l151 -189q7 -8 38.5 7.5t29.5 21.5q-15 29 -45.5 111t-55.5 119q-7 9 -38.5 -6t-58 -36.5t-21.5 -27.5zM463 457q23 -39 52.5 -74t70.5 -69.5t94 -55t111 -20.5q57 0 110 20.5t94 55t70.5 69.5t52.5 74q-319 -84 -655 0z M715 731h155l-77 187zM918 903q-7 -4 19 -19q35 -19 46 -10l147 189q5 6 -21 27.5t-57 36.5t-38 6q-30 -39 -61 -129.5t-35 -100.5zM1290 102v23h84v-23h-31v-77h-22v77h-31zM1384 25v100h31l19 -78l18 78h29v-100h-19v77l-20 -77h-19l-20 77v-77h-19z" />
<glyph unicode="&#xed;" d="M68 731q0 196 97 363t263.5 264.5t362.5 97.5t363 -97.5t264.5 -264.5t97.5 -363t-97.5 -363t-264.5 -264.5t-363 -97.5t-362.5 97.5t-263.5 264.5t-97 363zM164 731q0 -169 84.5 -313.5t229 -229t313.5 -84.5q128 0 244 50t199 134t132 200t49 243t-49 242.5t-132 199.5 t-199 133.5t-244 49.5q-169 0 -313.5 -84t-229 -228t-84.5 -313zM207 731q0 157 79 290t213.5 210.5t291.5 77.5t291 -77.5t212 -210.5t78 -290q0 -119 -46.5 -227t-124.5 -186t-185 -124.5t-225 -46.5t-225.5 46.5t-186.5 124.5t-125.5 186.5t-46.5 226.5zM330 664 l112 -177q346 -79 699 0l110 177h-921zM451 1063l151 -189q7 -8 38.5 7.5t29.5 21.5q-15 29 -45.5 111t-55.5 119q-7 9 -38.5 -6t-58 -36.5t-21.5 -27.5zM463 457q23 -39 52.5 -74t70.5 -69.5t94 -55t111 -20.5q57 0 110 20.5t94 55t70.5 69.5t52.5 74q-319 -84 -655 0z M715 731h155l-77 187zM918 903q-7 -4 19 -19q35 -19 46 -10l147 189q5 6 -21 27.5t-57 36.5t-38 6q-30 -39 -61 -129.5t-35 -100.5zM1290 102v23h84v-23h-31v-77h-22v77h-31zM1384 25v100h31l19 -78l18 78h29v-100h-19v77l-20 -77h-19l-20 77v-77h-19z" />
<glyph unicode="&#xee;" d="M68 731q0 196 97 363t263.5 264.5t362.5 97.5t363 -97.5t264.5 -264.5t97.5 -363t-97.5 -363t-264.5 -264.5t-363 -97.5t-362.5 97.5t-263.5 264.5t-97 363zM164 731q0 -169 84.5 -313.5t229 -229t313.5 -84.5q128 0 244 50t199 134t132 200t49 243t-49 242.5t-132 199.5 t-199 133.5t-244 49.5q-169 0 -313.5 -84t-229 -228t-84.5 -313zM207 731q0 157 79 290t213.5 210.5t291.5 77.5t291 -77.5t212 -210.5t78 -290q0 -119 -46.5 -227t-124.5 -186t-185 -124.5t-225 -46.5t-225.5 46.5t-186.5 124.5t-125.5 186.5t-46.5 226.5zM330 664 l112 -177q346 -79 699 0l110 177h-921zM451 1063l151 -189q7 -8 38.5 7.5t29.5 21.5q-15 29 -45.5 111t-55.5 119q-7 9 -38.5 -6t-58 -36.5t-21.5 -27.5zM463 457q23 -39 52.5 -74t70.5 -69.5t94 -55t111 -20.5q57 0 110 20.5t94 55t70.5 69.5t52.5 74q-319 -84 -655 0z M715 731h155l-77 187zM918 903q-7 -4 19 -19q35 -19 46 -10l147 189q5 6 -21 27.5t-57 36.5t-38 6q-30 -39 -61 -129.5t-35 -100.5zM1290 102v23h84v-23h-31v-77h-22v77h-31zM1384 25v100h31l19 -78l18 78h29v-100h-19v77l-20 -77h-19l-20 77v-77h-19z" />
<glyph unicode="&#xef;" d="M68 731q0 196 97 363t263.5 264.5t362.5 97.5t363 -97.5t264.5 -264.5t97.5 -363t-97.5 -363t-264.5 -264.5t-363 -97.5t-362.5 97.5t-263.5 264.5t-97 363zM164 731q0 -169 84.5 -313.5t229 -229t313.5 -84.5q128 0 244 50t199 134t132 200t49 243t-49 242.5t-132 199.5 t-199 133.5t-244 49.5q-169 0 -313.5 -84t-229 -228t-84.5 -313zM207 731q0 157 79 290t213.5 210.5t291.5 77.5t291 -77.5t212 -210.5t78 -290q0 -119 -46.5 -227t-124.5 -186t-185 -124.5t-225 -46.5t-225.5 46.5t-186.5 124.5t-125.5 186.5t-46.5 226.5zM330 664 l112 -177q346 -79 699 0l110 177h-921zM451 1063l151 -189q7 -8 38.5 7.5t29.5 21.5q-15 29 -45.5 111t-55.5 119q-7 9 -38.5 -6t-58 -36.5t-21.5 -27.5zM463 457q23 -39 52.5 -74t70.5 -69.5t94 -55t111 -20.5q57 0 110 20.5t94 55t70.5 69.5t52.5 74q-319 -84 -655 0z M715 731h155l-77 187zM918 903q-7 -4 19 -19q35 -19 46 -10l147 189q5 6 -21 27.5t-57 36.5t-38 6q-30 -39 -61 -129.5t-35 -100.5zM1290 102v23h84v-23h-31v-77h-22v77h-31zM1384 25v100h31l19 -78l18 78h29v-100h-19v77l-20 -77h-19l-20 77v-77h-19z" />
<glyph unicode="&#xf0;" d="M68 731q0 196 97 363t263.5 264.5t362.5 97.5t363 -97.5t264.5 -264.5t97.5 -363t-97.5 -363t-264.5 -264.5t-363 -97.5t-362.5 97.5t-263.5 264.5t-97 363zM164 731q0 -169 84.5 -313.5t229 -229t313.5 -84.5q128 0 244 50t199 134t132 200t49 243t-49 242.5t-132 199.5 t-199 133.5t-244 49.5q-169 0 -313.5 -84t-229 -228t-84.5 -313zM207 731q0 157 79 290t213.5 210.5t291.5 77.5t291 -77.5t212 -210.5t78 -290q0 -119 -46.5 -227t-124.5 -186t-185 -124.5t-225 -46.5t-225.5 46.5t-186.5 124.5t-125.5 186.5t-46.5 226.5zM330 664 l112 -177q346 -79 699 0l110 177h-921zM451 1063l151 -189q7 -8 38.5 7.5t29.5 21.5q-15 29 -45.5 111t-55.5 119q-7 9 -38.5 -6t-58 -36.5t-21.5 -27.5zM463 457q23 -39 52.5 -74t70.5 -69.5t94 -55t111 -20.5q57 0 110 20.5t94 55t70.5 69.5t52.5 74q-319 -84 -655 0z M715 731h155l-77 187zM918 903q-7 -4 19 -19q35 -19 46 -10l147 189q5 6 -21 27.5t-57 36.5t-38 6q-30 -39 -61 -129.5t-35 -100.5zM1290 102v23h84v-23h-31v-77h-22v77h-31zM1384 25v100h31l19 -78l18 78h29v-100h-19v77l-20 -77h-19l-20 77v-77h-19z" />
<glyph unicode="&#xf1;" d="M68 731q0 196 97 363t263.5 264.5t362.5 97.5t363 -97.5t264.5 -264.5t97.5 -363t-97.5 -363t-264.5 -264.5t-363 -97.5t-362.5 97.5t-263.5 264.5t-97 363zM164 731q0 -169 84.5 -313.5t229 -229t313.5 -84.5q128 0 244 50t199 134t132 200t49 243t-49 242.5t-132 199.5 t-199 133.5t-244 49.5q-169 0 -313.5 -84t-229 -228t-84.5 -313zM207 731q0 157 79 290t213.5 210.5t291.5 77.5t291 -77.5t212 -210.5t78 -290q0 -119 -46.5 -227t-124.5 -186t-185 -124.5t-225 -46.5t-225.5 46.5t-186.5 124.5t-125.5 186.5t-46.5 226.5zM330 664 l112 -177q346 -79 699 0l110 177h-921zM451 1063l151 -189q7 -8 38.5 7.5t29.5 21.5q-15 29 -45.5 111t-55.5 119q-7 9 -38.5 -6t-58 -36.5t-21.5 -27.5zM463 457q23 -39 52.5 -74t70.5 -69.5t94 -55t111 -20.5q57 0 110 20.5t94 55t70.5 69.5t52.5 74q-319 -84 -655 0z M715 731h155l-77 187zM918 903q-7 -4 19 -19q35 -19 46 -10l147 189q5 6 -21 27.5t-57 36.5t-38 6q-30 -39 -61 -129.5t-35 -100.5zM1290 102v23h84v-23h-31v-77h-22v77h-31zM1384 25v100h31l19 -78l18 78h29v-100h-19v77l-20 -77h-19l-20 77v-77h-19z" />
<glyph unicode="&#xf2;" d="M68 731q0 196 97 363t263.5 264.5t362.5 97.5t363 -97.5t264.5 -264.5t97.5 -363t-97.5 -363t-264.5 -264.5t-363 -97.5t-362.5 97.5t-263.5 264.5t-97 363zM164 731q0 -169 84.5 -313.5t229 -229t313.5 -84.5q128 0 244 50t199 134t132 200t49 243t-49 242.5t-132 199.5 t-199 133.5t-244 49.5q-169 0 -313.5 -84t-229 -228t-84.5 -313zM207 731q0 157 79 290t213.5 210.5t291.5 77.5t291 -77.5t212 -210.5t78 -290q0 -119 -46.5 -227t-124.5 -186t-185 -124.5t-225 -46.5t-225.5 46.5t-186.5 124.5t-125.5 186.5t-46.5 226.5zM330 664 l112 -177q346 -79 699 0l110 177h-921zM451 1063l151 -189q7 -8 38.5 7.5t29.5 21.5q-15 29 -45.5 111t-55.5 119q-7 9 -38.5 -6t-58 -36.5t-21.5 -27.5zM463 457q23 -39 52.5 -74t70.5 -69.5t94 -55t111 -20.5q57 0 110 20.5t94 55t70.5 69.5t52.5 74q-319 -84 -655 0z M715 731h155l-77 187zM918 903q-7 -4 19 -19q35 -19 46 -10l147 189q5 6 -21 27.5t-57 36.5t-38 6q-30 -39 -61 -129.5t-35 -100.5zM1290 102v23h84v-23h-31v-77h-22v77h-31zM1384 25v100h31l19 -78l18 78h29v-100h-19v77l-20 -77h-19l-20 77v-77h-19z" />
<glyph unicode="&#xf3;" d="M68 731q0 196 97 363t263.5 264.5t362.5 97.5t363 -97.5t264.5 -264.5t97.5 -363t-97.5 -363t-264.5 -264.5t-363 -97.5t-362.5 97.5t-263.5 264.5t-97 363zM164 731q0 -169 84.5 -313.5t229 -229t313.5 -84.5q128 0 244 50t199 134t132 200t49 243t-49 242.5t-132 199.5 t-199 133.5t-244 49.5q-169 0 -313.5 -84t-229 -228t-84.5 -313zM207 731q0 157 79 290t213.5 210.5t291.5 77.5t291 -77.5t212 -210.5t78 -290q0 -119 -46.5 -227t-124.5 -186t-185 -124.5t-225 -46.5t-225.5 46.5t-186.5 124.5t-125.5 186.5t-46.5 226.5zM330 664 l112 -177q346 -79 699 0l110 177h-921zM451 1063l151 -189q7 -8 38.5 7.5t29.5 21.5q-15 29 -45.5 111t-55.5 119q-7 9 -38.5 -6t-58 -36.5t-21.5 -27.5zM463 457q23 -39 52.5 -74t70.5 -69.5t94 -55t111 -20.5q57 0 110 20.5t94 55t70.5 69.5t52.5 74q-319 -84 -655 0z M715 731h155l-77 187zM918 903q-7 -4 19 -19q35 -19 46 -10l147 189q5 6 -21 27.5t-57 36.5t-38 6q-30 -39 -61 -129.5t-35 -100.5zM1290 102v23h84v-23h-31v-77h-22v77h-31zM1384 25v100h31l19 -78l18 78h29v-100h-19v77l-20 -77h-19l-20 77v-77h-19z" />
<glyph unicode="&#xf4;" d="M68 731q0 196 97 363t263.5 264.5t362.5 97.5t363 -97.5t264.5 -264.5t97.5 -363t-97.5 -363t-264.5 -264.5t-363 -97.5t-362.5 97.5t-263.5 264.5t-97 363zM164 731q0 -169 84.5 -313.5t229 -229t313.5 -84.5q128 0 244 50t199 134t132 200t49 243t-49 242.5t-132 199.5 t-199 133.5t-244 49.5q-169 0 -313.5 -84t-229 -228t-84.5 -313zM207 731q0 157 79 290t213.5 210.5t291.5 77.5t291 -77.5t212 -210.5t78 -290q0 -119 -46.5 -227t-124.5 -186t-185 -124.5t-225 -46.5t-225.5 46.5t-186.5 124.5t-125.5 186.5t-46.5 226.5zM330 664 l112 -177q346 -79 699 0l110 177h-921zM451 1063l151 -189q7 -8 38.5 7.5t29.5 21.5q-15 29 -45.5 111t-55.5 119q-7 9 -38.5 -6t-58 -36.5t-21.5 -27.5zM463 457q23 -39 52.5 -74t70.5 -69.5t94 -55t111 -20.5q57 0 110 20.5t94 55t70.5 69.5t52.5 74q-319 -84 -655 0z M715 731h155l-77 187zM918 903q-7 -4 19 -19q35 -19 46 -10l147 189q5 6 -21 27.5t-57 36.5t-38 6q-30 -39 -61 -129.5t-35 -100.5zM1290 102v23h84v-23h-31v-77h-22v77h-31zM1384 25v100h31l19 -78l18 78h29v-100h-19v77l-20 -77h-19l-20 77v-77h-19z" />
<glyph unicode="&#xf5;" d="M68 731q0 196 97 363t263.5 264.5t362.5 97.5t363 -97.5t264.5 -264.5t97.5 -363t-97.5 -363t-264.5 -264.5t-363 -97.5t-362.5 97.5t-263.5 264.5t-97 363zM164 731q0 -169 84.5 -313.5t229 -229t313.5 -84.5q128 0 244 50t199 134t132 200t49 243t-49 242.5t-132 199.5 t-199 133.5t-244 49.5q-169 0 -313.5 -84t-229 -228t-84.5 -313zM207 731q0 157 79 290t213.5 210.5t291.5 77.5t291 -77.5t212 -210.5t78 -290q0 -119 -46.5 -227t-124.5 -186t-185 -124.5t-225 -46.5t-225.5 46.5t-186.5 124.5t-125.5 186.5t-46.5 226.5zM330 664 l112 -177q346 -79 699 0l110 177h-921zM451 1063l151 -189q7 -8 38.5 7.5t29.5 21.5q-15 29 -45.5 111t-55.5 119q-7 9 -38.5 -6t-58 -36.5t-21.5 -27.5zM463 457q23 -39 52.5 -74t70.5 -69.5t94 -55t111 -20.5q57 0 110 20.5t94 55t70.5 69.5t52.5 74q-319 -84 -655 0z M715 731h155l-77 187zM918 903q-7 -4 19 -19q35 -19 46 -10l147 189q5 6 -21 27.5t-57 36.5t-38 6q-30 -39 -61 -129.5t-35 -100.5zM1290 102v23h84v-23h-31v-77h-22v77h-31zM1384 25v100h31l19 -78l18 78h29v-100h-19v77l-20 -77h-19l-20 77v-77h-19z" />
<glyph unicode="&#xf6;" d="M68 731q0 196 97 363t263.5 264.5t362.5 97.5t363 -97.5t264.5 -264.5t97.5 -363t-97.5 -363t-264.5 -264.5t-363 -97.5t-362.5 97.5t-263.5 264.5t-97 363zM164 731q0 -169 84.5 -313.5t229 -229t313.5 -84.5q128 0 244 50t199 134t132 200t49 243t-49 242.5t-132 199.5 t-199 133.5t-244 49.5q-169 0 -313.5 -84t-229 -228t-84.5 -313zM207 731q0 157 79 290t213.5 210.5t291.5 77.5t291 -77.5t212 -210.5t78 -290q0 -119 -46.5 -227t-124.5 -186t-185 -124.5t-225 -46.5t-225.5 46.5t-186.5 124.5t-125.5 186.5t-46.5 226.5zM330 664 l112 -177q346 -79 699 0l110 177h-921zM451 1063l151 -189q7 -8 38.5 7.5t29.5 21.5q-15 29 -45.5 111t-55.5 119q-7 9 -38.5 -6t-58 -36.5t-21.5 -27.5zM463 457q23 -39 52.5 -74t70.5 -69.5t94 -55t111 -20.5q57 0 110 20.5t94 55t70.5 69.5t52.5 74q-319 -84 -655 0z M715 731h155l-77 187zM918 903q-7 -4 19 -19q35 -19 46 -10l147 189q5 6 -21 27.5t-57 36.5t-38 6q-30 -39 -61 -129.5t-35 -100.5zM1290 102v23h84v-23h-31v-77h-22v77h-31zM1384 25v100h31l19 -78l18 78h29v-100h-19v77l-20 -77h-19l-20 77v-77h-19z" />
<glyph unicode="&#xf7;" d="M68 731q0 196 97 363t263.5 264.5t362.5 97.5t363 -97.5t264.5 -264.5t97.5 -363t-97.5 -363t-264.5 -264.5t-363 -97.5t-362.5 97.5t-263.5 264.5t-97 363zM164 731q0 -169 84.5 -313.5t229 -229t313.5 -84.5q128 0 244 50t199 134t132 200t49 243t-49 242.5t-132 199.5 t-199 133.5t-244 49.5q-169 0 -313.5 -84t-229 -228t-84.5 -313zM207 731q0 157 79 290t213.5 210.5t291.5 77.5t291 -77.5t212 -210.5t78 -290q0 -119 -46.5 -227t-124.5 -186t-185 -124.5t-225 -46.5t-225.5 46.5t-186.5 124.5t-125.5 186.5t-46.5 226.5zM330 664 l112 -177q346 -79 699 0l110 177h-921zM451 1063l151 -189q7 -8 38.5 7.5t29.5 21.5q-15 29 -45.5 111t-55.5 119q-7 9 -38.5 -6t-58 -36.5t-21.5 -27.5zM463 457q23 -39 52.5 -74t70.5 -69.5t94 -55t111 -20.5q57 0 110 20.5t94 55t70.5 69.5t52.5 74q-319 -84 -655 0z M715 731h155l-77 187zM918 903q-7 -4 19 -19q35 -19 46 -10l147 189q5 6 -21 27.5t-57 36.5t-38 6q-30 -39 -61 -129.5t-35 -100.5zM1290 102v23h84v-23h-31v-77h-22v77h-31zM1384 25v100h31l19 -78l18 78h29v-100h-19v77l-20 -77h-19l-20 77v-77h-19z" />
<glyph unicode="&#xf8;" d="M68 731q0 196 97 363t263.5 264.5t362.5 97.5t363 -97.5t264.5 -264.5t97.5 -363t-97.5 -363t-264.5 -264.5t-363 -97.5t-362.5 97.5t-263.5 264.5t-97 363zM164 731q0 -169 84.5 -313.5t229 -229t313.5 -84.5q128 0 244 50t199 134t132 200t49 243t-49 242.5t-132 199.5 t-199 133.5t-244 49.5q-169 0 -313.5 -84t-229 -228t-84.5 -313zM207 731q0 157 79 290t213.5 210.5t291.5 77.5t291 -77.5t212 -210.5t78 -290q0 -119 -46.5 -227t-124.5 -186t-185 -124.5t-225 -46.5t-225.5 46.5t-186.5 124.5t-125.5 186.5t-46.5 226.5zM330 664 l112 -177q346 -79 699 0l110 177h-921zM451 1063l151 -189q7 -8 38.5 7.5t29.5 21.5q-15 29 -45.5 111t-55.5 119q-7 9 -38.5 -6t-58 -36.5t-21.5 -27.5zM463 457q23 -39 52.5 -74t70.5 -69.5t94 -55t111 -20.5q57 0 110 20.5t94 55t70.5 69.5t52.5 74q-319 -84 -655 0z M715 731h155l-77 187zM918 903q-7 -4 19 -19q35 -19 46 -10l147 189q5 6 -21 27.5t-57 36.5t-38 6q-30 -39 -61 -129.5t-35 -100.5zM1290 102v23h84v-23h-31v-77h-22v77h-31zM1384 25v100h31l19 -78l18 78h29v-100h-19v77l-20 -77h-19l-20 77v-77h-19z" />
<glyph unicode="&#xf9;" d="M68 731q0 196 97 363t263.5 264.5t362.5 97.5t363 -97.5t264.5 -264.5t97.5 -363t-97.5 -363t-264.5 -264.5t-363 -97.5t-362.5 97.5t-263.5 264.5t-97 363zM164 731q0 -169 84.5 -313.5t229 -229t313.5 -84.5q128 0 244 50t199 134t132 200t49 243t-49 242.5t-132 199.5 t-199 133.5t-244 49.5q-169 0 -313.5 -84t-229 -228t-84.5 -313zM207 731q0 157 79 290t213.5 210.5t291.5 77.5t291 -77.5t212 -210.5t78 -290q0 -119 -46.5 -227t-124.5 -186t-185 -124.5t-225 -46.5t-225.5 46.5t-186.5 124.5t-125.5 186.5t-46.5 226.5zM330 664 l112 -177q346 -79 699 0l110 177h-921zM451 1063l151 -189q7 -8 38.5 7.5t29.5 21.5q-15 29 -45.5 111t-55.5 119q-7 9 -38.5 -6t-58 -36.5t-21.5 -27.5zM463 457q23 -39 52.5 -74t70.5 -69.5t94 -55t111 -20.5q57 0 110 20.5t94 55t70.5 69.5t52.5 74q-319 -84 -655 0z M715 731h155l-77 187zM918 903q-7 -4 19 -19q35 -19 46 -10l147 189q5 6 -21 27.5t-57 36.5t-38 6q-30 -39 -61 -129.5t-35 -100.5zM1290 102v23h84v-23h-31v-77h-22v77h-31zM1384 25v100h31l19 -78l18 78h29v-100h-19v77l-20 -77h-19l-20 77v-77h-19z" />
<glyph unicode="&#xfa;" d="M68 731q0 196 97 363t263.5 264.5t362.5 97.5t363 -97.5t264.5 -264.5t97.5 -363t-97.5 -363t-264.5 -264.5t-363 -97.5t-362.5 97.5t-263.5 264.5t-97 363zM164 731q0 -169 84.5 -313.5t229 -229t313.5 -84.5q128 0 244 50t199 134t132 200t49 243t-49 242.5t-132 199.5 t-199 133.5t-244 49.5q-169 0 -313.5 -84t-229 -228t-84.5 -313zM207 731q0 157 79 290t213.5 210.5t291.5 77.5t291 -77.5t212 -210.5t78 -290q0 -119 -46.5 -227t-124.5 -186t-185 -124.5t-225 -46.5t-225.5 46.5t-186.5 124.5t-125.5 186.5t-46.5 226.5zM330 664 l112 -177q346 -79 699 0l110 177h-921zM451 1063l151 -189q7 -8 38.5 7.5t29.5 21.5q-15 29 -45.5 111t-55.5 119q-7 9 -38.5 -6t-58 -36.5t-21.5 -27.5zM463 457q23 -39 52.5 -74t70.5 -69.5t94 -55t111 -20.5q57 0 110 20.5t94 55t70.5 69.5t52.5 74q-319 -84 -655 0z M715 731h155l-77 187zM918 903q-7 -4 19 -19q35 -19 46 -10l147 189q5 6 -21 27.5t-57 36.5t-38 6q-30 -39 -61 -129.5t-35 -100.5zM1290 102v23h84v-23h-31v-77h-22v77h-31zM1384 25v100h31l19 -78l18 78h29v-100h-19v77l-20 -77h-19l-20 77v-77h-19z" />
<glyph unicode="&#xfb;" d="M68 731q0 196 97 363t263.5 264.5t362.5 97.5t363 -97.5t264.5 -264.5t97.5 -363t-97.5 -363t-264.5 -264.5t-363 -97.5t-362.5 97.5t-263.5 264.5t-97 363zM164 731q0 -169 84.5 -313.5t229 -229t313.5 -84.5q128 0 244 50t199 134t132 200t49 243t-49 242.5t-132 199.5 t-199 133.5t-244 49.5q-169 0 -313.5 -84t-229 -228t-84.5 -313zM207 731q0 157 79 290t213.5 210.5t291.5 77.5t291 -77.5t212 -210.5t78 -290q0 -119 -46.5 -227t-124.5 -186t-185 -124.5t-225 -46.5t-225.5 46.5t-186.5 124.5t-125.5 186.5t-46.5 226.5zM330 664 l112 -177q346 -79 699 0l110 177h-921zM451 1063l151 -189q7 -8 38.5 7.5t29.5 21.5q-15 29 -45.5 111t-55.5 119q-7 9 -38.5 -6t-58 -36.5t-21.5 -27.5zM463 457q23 -39 52.5 -74t70.5 -69.5t94 -55t111 -20.5q57 0 110 20.5t94 55t70.5 69.5t52.5 74q-319 -84 -655 0z M715 731h155l-77 187zM918 903q-7 -4 19 -19q35 -19 46 -10l147 189q5 6 -21 27.5t-57 36.5t-38 6q-30 -39 -61 -129.5t-35 -100.5zM1290 102v23h84v-23h-31v-77h-22v77h-31zM1384 25v100h31l19 -78l18 78h29v-100h-19v77l-20 -77h-19l-20 77v-77h-19z" />
<glyph unicode="&#xfc;" d="M68 731q0 196 97 363t263.5 264.5t362.5 97.5t363 -97.5t264.5 -264.5t97.5 -363t-97.5 -363t-264.5 -264.5t-363 -97.5t-362.5 97.5t-263.5 264.5t-97 363zM164 731q0 -169 84.5 -313.5t229 -229t313.5 -84.5q128 0 244 50t199 134t132 200t49 243t-49 242.5t-132 199.5 t-199 133.5t-244 49.5q-169 0 -313.5 -84t-229 -228t-84.5 -313zM207 731q0 157 79 290t213.5 210.5t291.5 77.5t291 -77.5t212 -210.5t78 -290q0 -119 -46.5 -227t-124.5 -186t-185 -124.5t-225 -46.5t-225.5 46.5t-186.5 124.5t-125.5 186.5t-46.5 226.5zM330 664 l112 -177q346 -79 699 0l110 177h-921zM451 1063l151 -189q7 -8 38.5 7.5t29.5 21.5q-15 29 -45.5 111t-55.5 119q-7 9 -38.5 -6t-58 -36.5t-21.5 -27.5zM463 457q23 -39 52.5 -74t70.5 -69.5t94 -55t111 -20.5q57 0 110 20.5t94 55t70.5 69.5t52.5 74q-319 -84 -655 0z M715 731h155l-77 187zM918 903q-7 -4 19 -19q35 -19 46 -10l147 189q5 6 -21 27.5t-57 36.5t-38 6q-30 -39 -61 -129.5t-35 -100.5zM1290 102v23h84v-23h-31v-77h-22v77h-31zM1384 25v100h31l19 -78l18 78h29v-100h-19v77l-20 -77h-19l-20 77v-77h-19z" />
<glyph unicode="&#xfd;" d="M68 731q0 196 97 363t263.5 264.5t362.5 97.5t363 -97.5t264.5 -264.5t97.5 -363t-97.5 -363t-264.5 -264.5t-363 -97.5t-362.5 97.5t-263.5 264.5t-97 363zM164 731q0 -169 84.5 -313.5t229 -229t313.5 -84.5q128 0 244 50t199 134t132 200t49 243t-49 242.5t-132 199.5 t-199 133.5t-244 49.5q-169 0 -313.5 -84t-229 -228t-84.5 -313zM207 731q0 157 79 290t213.5 210.5t291.5 77.5t291 -77.5t212 -210.5t78 -290q0 -119 -46.5 -227t-124.5 -186t-185 -124.5t-225 -46.5t-225.5 46.5t-186.5 124.5t-125.5 186.5t-46.5 226.5zM330 664 l112 -177q346 -79 699 0l110 177h-921zM451 1063l151 -189q7 -8 38.5 7.5t29.5 21.5q-15 29 -45.5 111t-55.5 119q-7 9 -38.5 -6t-58 -36.5t-21.5 -27.5zM463 457q23 -39 52.5 -74t70.5 -69.5t94 -55t111 -20.5q57 0 110 20.5t94 55t70.5 69.5t52.5 74q-319 -84 -655 0z M715 731h155l-77 187zM918 903q-7 -4 19 -19q35 -19 46 -10l147 189q5 6 -21 27.5t-57 36.5t-38 6q-30 -39 -61 -129.5t-35 -100.5zM1290 102v23h84v-23h-31v-77h-22v77h-31zM1384 25v100h31l19 -78l18 78h29v-100h-19v77l-20 -77h-19l-20 77v-77h-19z" />
<glyph unicode="&#xfe;" d="M68 731q0 196 97 363t263.5 264.5t362.5 97.5t363 -97.5t264.5 -264.5t97.5 -363t-97.5 -363t-264.5 -264.5t-363 -97.5t-362.5 97.5t-263.5 264.5t-97 363zM164 731q0 -169 84.5 -313.5t229 -229t313.5 -84.5q128 0 244 50t199 134t132 200t49 243t-49 242.5t-132 199.5 t-199 133.5t-244 49.5q-169 0 -313.5 -84t-229 -228t-84.5 -313zM207 731q0 157 79 290t213.5 210.5t291.5 77.5t291 -77.5t212 -210.5t78 -290q0 -119 -46.5 -227t-124.5 -186t-185 -124.5t-225 -46.5t-225.5 46.5t-186.5 124.5t-125.5 186.5t-46.5 226.5zM330 664 l112 -177q346 -79 699 0l110 177h-921zM451 1063l151 -189q7 -8 38.5 7.5t29.5 21.5q-15 29 -45.5 111t-55.5 119q-7 9 -38.5 -6t-58 -36.5t-21.5 -27.5zM463 457q23 -39 52.5 -74t70.5 -69.5t94 -55t111 -20.5q57 0 110 20.5t94 55t70.5 69.5t52.5 74q-319 -84 -655 0z M715 731h155l-77 187zM918 903q-7 -4 19 -19q35 -19 46 -10l147 189q5 6 -21 27.5t-57 36.5t-38 6q-30 -39 -61 -129.5t-35 -100.5zM1290 102v23h84v-23h-31v-77h-22v77h-31zM1384 25v100h31l19 -78l18 78h29v-100h-19v77l-20 -77h-19l-20 77v-77h-19z" />
<glyph unicode="&#xff;" d="M68 731q0 196 97 363t263.5 264.5t362.5 97.5t363 -97.5t264.5 -264.5t97.5 -363t-97.5 -363t-264.5 -264.5t-363 -97.5t-362.5 97.5t-263.5 264.5t-97 363zM164 731q0 -169 84.5 -313.5t229 -229t313.5 -84.5q128 0 244 50t199 134t132 200t49 243t-49 242.5t-132 199.5 t-199 133.5t-244 49.5q-169 0 -313.5 -84t-229 -228t-84.5 -313zM207 731q0 157 79 290t213.5 210.5t291.5 77.5t291 -77.5t212 -210.5t78 -290q0 -119 -46.5 -227t-124.5 -186t-185 -124.5t-225 -46.5t-225.5 46.5t-186.5 124.5t-125.5 186.5t-46.5 226.5zM330 664 l112 -177q346 -79 699 0l110 177h-921zM451 1063l151 -189q7 -8 38.5 7.5t29.5 21.5q-15 29 -45.5 111t-55.5 119q-7 9 -38.5 -6t-58 -36.5t-21.5 -27.5zM463 457q23 -39 52.5 -74t70.5 -69.5t94 -55t111 -20.5q57 0 110 20.5t94 55t70.5 69.5t52.5 74q-319 -84 -655 0z M715 731h155l-77 187zM918 903q-7 -4 19 -19q35 -19 46 -10l147 189q5 6 -21 27.5t-57 36.5t-38 6q-30 -39 -61 -129.5t-35 -100.5zM1290 102v23h84v-23h-31v-77h-22v77h-31zM1384 25v100h31l19 -78l18 78h29v-100h-19v77l-20 -77h-19l-20 77v-77h-19z" />
<glyph unicode="&#x152;" d="M68 731q0 196 97 363t263.5 264.5t362.5 97.5t363 -97.5t264.5 -264.5t97.5 -363t-97.5 -363t-264.5 -264.5t-363 -97.5t-362.5 97.5t-263.5 264.5t-97 363zM164 731q0 -169 84.5 -313.5t229 -229t313.5 -84.5q128 0 244 50t199 134t132 200t49 243t-49 242.5t-132 199.5 t-199 133.5t-244 49.5q-169 0 -313.5 -84t-229 -228t-84.5 -313zM207 731q0 157 79 290t213.5 210.5t291.5 77.5t291 -77.5t212 -210.5t78 -290q0 -119 -46.5 -227t-124.5 -186t-185 -124.5t-225 -46.5t-225.5 46.5t-186.5 124.5t-125.5 186.5t-46.5 226.5zM330 664 l112 -177q346 -79 699 0l110 177h-921zM451 1063l151 -189q7 -8 38.5 7.5t29.5 21.5q-15 29 -45.5 111t-55.5 119q-7 9 -38.5 -6t-58 -36.5t-21.5 -27.5zM463 457q23 -39 52.5 -74t70.5 -69.5t94 -55t111 -20.5q57 0 110 20.5t94 55t70.5 69.5t52.5 74q-319 -84 -655 0z M715 731h155l-77 187zM918 903q-7 -4 19 -19q35 -19 46 -10l147 189q5 6 -21 27.5t-57 36.5t-38 6q-30 -39 -61 -129.5t-35 -100.5zM1290 102v23h84v-23h-31v-77h-22v77h-31zM1384 25v100h31l19 -78l18 78h29v-100h-19v77l-20 -77h-19l-20 77v-77h-19z" />
<glyph unicode="&#x153;" d="M68 731q0 196 97 363t263.5 264.5t362.5 97.5t363 -97.5t264.5 -264.5t97.5 -363t-97.5 -363t-264.5 -264.5t-363 -97.5t-362.5 97.5t-263.5 264.5t-97 363zM164 731q0 -169 84.5 -313.5t229 -229t313.5 -84.5q128 0 244 50t199 134t132 200t49 243t-49 242.5t-132 199.5 t-199 133.5t-244 49.5q-169 0 -313.5 -84t-229 -228t-84.5 -313zM207 731q0 157 79 290t213.5 210.5t291.5 77.5t291 -77.5t212 -210.5t78 -290q0 -119 -46.5 -227t-124.5 -186t-185 -124.5t-225 -46.5t-225.5 46.5t-186.5 124.5t-125.5 186.5t-46.5 226.5zM330 664 l112 -177q346 -79 699 0l110 177h-921zM451 1063l151 -189q7 -8 38.5 7.5t29.5 21.5q-15 29 -45.5 111t-55.5 119q-7 9 -38.5 -6t-58 -36.5t-21.5 -27.5zM463 457q23 -39 52.5 -74t70.5 -69.5t94 -55t111 -20.5q57 0 110 20.5t94 55t70.5 69.5t52.5 74q-319 -84 -655 0z M715 731h155l-77 187zM918 903q-7 -4 19 -19q35 -19 46 -10l147 189q5 6 -21 27.5t-57 36.5t-38 6q-30 -39 -61 -129.5t-35 -100.5zM1290 102v23h84v-23h-31v-77h-22v77h-31zM1384 25v100h31l19 -78l18 78h29v-100h-19v77l-20 -77h-19l-20 77v-77h-19z" />
<glyph unicode="&#x178;" d="M68 731q0 196 97 363t263.5 264.5t362.5 97.5t363 -97.5t264.5 -264.5t97.5 -363t-97.5 -363t-264.5 -264.5t-363 -97.5t-362.5 97.5t-263.5 264.5t-97 363zM164 731q0 -169 84.5 -313.5t229 -229t313.5 -84.5q128 0 244 50t199 134t132 200t49 243t-49 242.5t-132 199.5 t-199 133.5t-244 49.5q-169 0 -313.5 -84t-229 -228t-84.5 -313zM207 731q0 157 79 290t213.5 210.5t291.5 77.5t291 -77.5t212 -210.5t78 -290q0 -119 -46.5 -227t-124.5 -186t-185 -124.5t-225 -46.5t-225.5 46.5t-186.5 124.5t-125.5 186.5t-46.5 226.5zM330 664 l112 -177q346 -79 699 0l110 177h-921zM451 1063l151 -189q7 -8 38.5 7.5t29.5 21.5q-15 29 -45.5 111t-55.5 119q-7 9 -38.5 -6t-58 -36.5t-21.5 -27.5zM463 457q23 -39 52.5 -74t70.5 -69.5t94 -55t111 -20.5q57 0 110 20.5t94 55t70.5 69.5t52.5 74q-319 -84 -655 0z M715 731h155l-77 187zM918 903q-7 -4 19 -19q35 -19 46 -10l147 189q5 6 -21 27.5t-57 36.5t-38 6q-30 -39 -61 -129.5t-35 -100.5zM1290 102v23h84v-23h-31v-77h-22v77h-31zM1384 25v100h31l19 -78l18 78h29v-100h-19v77l-20 -77h-19l-20 77v-77h-19z" />
<glyph unicode="&#x2c6;" d="M68 731q0 196 97 363t263.5 264.5t362.5 97.5t363 -97.5t264.5 -264.5t97.5 -363t-97.5 -363t-264.5 -264.5t-363 -97.5t-362.5 97.5t-263.5 264.5t-97 363zM164 731q0 -169 84.5 -313.5t229 -229t313.5 -84.5q128 0 244 50t199 134t132 200t49 243t-49 242.5t-132 199.5 t-199 133.5t-244 49.5q-169 0 -313.5 -84t-229 -228t-84.5 -313zM207 731q0 157 79 290t213.5 210.5t291.5 77.5t291 -77.5t212 -210.5t78 -290q0 -119 -46.5 -227t-124.5 -186t-185 -124.5t-225 -46.5t-225.5 46.5t-186.5 124.5t-125.5 186.5t-46.5 226.5zM330 664 l112 -177q346 -79 699 0l110 177h-921zM451 1063l151 -189q7 -8 38.5 7.5t29.5 21.5q-15 29 -45.5 111t-55.5 119q-7 9 -38.5 -6t-58 -36.5t-21.5 -27.5zM463 457q23 -39 52.5 -74t70.5 -69.5t94 -55t111 -20.5q57 0 110 20.5t94 55t70.5 69.5t52.5 74q-319 -84 -655 0z M715 731h155l-77 187zM918 903q-7 -4 19 -19q35 -19 46 -10l147 189q5 6 -21 27.5t-57 36.5t-38 6q-30 -39 -61 -129.5t-35 -100.5zM1290 102v23h84v-23h-31v-77h-22v77h-31zM1384 25v100h31l19 -78l18 78h29v-100h-19v77l-20 -77h-19l-20 77v-77h-19z" />
<glyph unicode="&#x2dc;" d="M68 731q0 196 97 363t263.5 264.5t362.5 97.5t363 -97.5t264.5 -264.5t97.5 -363t-97.5 -363t-264.5 -264.5t-363 -97.5t-362.5 97.5t-263.5 264.5t-97 363zM164 731q0 -169 84.5 -313.5t229 -229t313.5 -84.5q128 0 244 50t199 134t132 200t49 243t-49 242.5t-132 199.5 t-199 133.5t-244 49.5q-169 0 -313.5 -84t-229 -228t-84.5 -313zM207 731q0 157 79 290t213.5 210.5t291.5 77.5t291 -77.5t212 -210.5t78 -290q0 -119 -46.5 -227t-124.5 -186t-185 -124.5t-225 -46.5t-225.5 46.5t-186.5 124.5t-125.5 186.5t-46.5 226.5zM330 664 l112 -177q346 -79 699 0l110 177h-921zM451 1063l151 -189q7 -8 38.5 7.5t29.5 21.5q-15 29 -45.5 111t-55.5 119q-7 9 -38.5 -6t-58 -36.5t-21.5 -27.5zM463 457q23 -39 52.5 -74t70.5 -69.5t94 -55t111 -20.5q57 0 110 20.5t94 55t70.5 69.5t52.5 74q-319 -84 -655 0z M715 731h155l-77 187zM918 903q-7 -4 19 -19q35 -19 46 -10l147 189q5 6 -21 27.5t-57 36.5t-38 6q-30 -39 -61 -129.5t-35 -100.5zM1290 102v23h84v-23h-31v-77h-22v77h-31zM1384 25v100h31l19 -78l18 78h29v-100h-19v77l-20 -77h-19l-20 77v-77h-19z" />
<glyph unicode="&#x2000;" horiz-adv-x="790" />
<glyph unicode="&#x2001;" horiz-adv-x="1581" />
<glyph unicode="&#x2002;" horiz-adv-x="790" />
<glyph unicode="&#x2003;" horiz-adv-x="1581" />
<glyph unicode="&#x2004;" horiz-adv-x="527" />
<glyph unicode="&#x2005;" horiz-adv-x="395" />
<glyph unicode="&#x2006;" horiz-adv-x="263" />
<glyph unicode="&#x2007;" horiz-adv-x="263" />
<glyph unicode="&#x2008;" horiz-adv-x="197" />
<glyph unicode="&#x2009;" horiz-adv-x="316" />
<glyph unicode="&#x200a;" horiz-adv-x="87" />
<glyph unicode="&#x2010;" horiz-adv-x="649" d="M31 473v371h587v-371h-587z" />
<glyph unicode="&#x2011;" horiz-adv-x="649" d="M31 473v371h587v-371h-587z" />
<glyph unicode="&#x2012;" horiz-adv-x="649" d="M31 473v371h587v-371h-587z" />
<glyph unicode="&#x2013;" d="M68 731q0 196 97 363t263.5 264.5t362.5 97.5t363 -97.5t264.5 -264.5t97.5 -363t-97.5 -363t-264.5 -264.5t-363 -97.5t-362.5 97.5t-263.5 264.5t-97 363zM164 731q0 -169 84.5 -313.5t229 -229t313.5 -84.5q128 0 244 50t199 134t132 200t49 243t-49 242.5t-132 199.5 t-199 133.5t-244 49.5q-169 0 -313.5 -84t-229 -228t-84.5 -313zM207 731q0 157 79 290t213.5 210.5t291.5 77.5t291 -77.5t212 -210.5t78 -290q0 -119 -46.5 -227t-124.5 -186t-185 -124.5t-225 -46.5t-225.5 46.5t-186.5 124.5t-125.5 186.5t-46.5 226.5zM330 664 l112 -177q346 -79 699 0l110 177h-921zM451 1063l151 -189q7 -8 38.5 7.5t29.5 21.5q-15 29 -45.5 111t-55.5 119q-7 9 -38.5 -6t-58 -36.5t-21.5 -27.5zM463 457q23 -39 52.5 -74t70.5 -69.5t94 -55t111 -20.5q57 0 110 20.5t94 55t70.5 69.5t52.5 74q-319 -84 -655 0z M715 731h155l-77 187zM918 903q-7 -4 19 -19q35 -19 46 -10l147 189q5 6 -21 27.5t-57 36.5t-38 6q-30 -39 -61 -129.5t-35 -100.5zM1290 102v23h84v-23h-31v-77h-22v77h-31zM1384 25v100h31l19 -78l18 78h29v-100h-19v77l-20 -77h-19l-20 77v-77h-19z" />
<glyph unicode="&#x2014;" d="M68 731q0 196 97 363t263.5 264.5t362.5 97.5t363 -97.5t264.5 -264.5t97.5 -363t-97.5 -363t-264.5 -264.5t-363 -97.5t-362.5 97.5t-263.5 264.5t-97 363zM164 731q0 -169 84.5 -313.5t229 -229t313.5 -84.5q128 0 244 50t199 134t132 200t49 243t-49 242.5t-132 199.5 t-199 133.5t-244 49.5q-169 0 -313.5 -84t-229 -228t-84.5 -313zM207 731q0 157 79 290t213.5 210.5t291.5 77.5t291 -77.5t212 -210.5t78 -290q0 -119 -46.5 -227t-124.5 -186t-185 -124.5t-225 -46.5t-225.5 46.5t-186.5 124.5t-125.5 186.5t-46.5 226.5zM330 664 l112 -177q346 -79 699 0l110 177h-921zM451 1063l151 -189q7 -8 38.5 7.5t29.5 21.5q-15 29 -45.5 111t-55.5 119q-7 9 -38.5 -6t-58 -36.5t-21.5 -27.5zM463 457q23 -39 52.5 -74t70.5 -69.5t94 -55t111 -20.5q57 0 110 20.5t94 55t70.5 69.5t52.5 74q-319 -84 -655 0z M715 731h155l-77 187zM918 903q-7 -4 19 -19q35 -19 46 -10l147 189q5 6 -21 27.5t-57 36.5t-38 6q-30 -39 -61 -129.5t-35 -100.5zM1290 102v23h84v-23h-31v-77h-22v77h-31zM1384 25v100h31l19 -78l18 78h29v-100h-19v77l-20 -77h-19l-20 77v-77h-19z" />
<glyph unicode="&#x2018;" d="M68 731q0 196 97 363t263.5 264.5t362.5 97.5t363 -97.5t264.5 -264.5t97.5 -363t-97.5 -363t-264.5 -264.5t-363 -97.5t-362.5 97.5t-263.5 264.5t-97 363zM164 731q0 -169 84.5 -313.5t229 -229t313.5 -84.5q128 0 244 50t199 134t132 200t49 243t-49 242.5t-132 199.5 t-199 133.5t-244 49.5q-169 0 -313.5 -84t-229 -228t-84.5 -313zM207 731q0 157 79 290t213.5 210.5t291.5 77.5t291 -77.5t212 -210.5t78 -290q0 -119 -46.5 -227t-124.5 -186t-185 -124.5t-225 -46.5t-225.5 46.5t-186.5 124.5t-125.5 186.5t-46.5 226.5zM330 664 l112 -177q346 -79 699 0l110 177h-921zM451 1063l151 -189q7 -8 38.5 7.5t29.5 21.5q-15 29 -45.5 111t-55.5 119q-7 9 -38.5 -6t-58 -36.5t-21.5 -27.5zM463 457q23 -39 52.5 -74t70.5 -69.5t94 -55t111 -20.5q57 0 110 20.5t94 55t70.5 69.5t52.5 74q-319 -84 -655 0z M715 731h155l-77 187zM918 903q-7 -4 19 -19q35 -19 46 -10l147 189q5 6 -21 27.5t-57 36.5t-38 6q-30 -39 -61 -129.5t-35 -100.5zM1290 102v23h84v-23h-31v-77h-22v77h-31zM1384 25v100h31l19 -78l18 78h29v-100h-19v77l-20 -77h-19l-20 77v-77h-19z" />
<glyph unicode="&#x2019;" d="M68 731q0 196 97 363t263.5 264.5t362.5 97.5t363 -97.5t264.5 -264.5t97.5 -363t-97.5 -363t-264.5 -264.5t-363 -97.5t-362.5 97.5t-263.5 264.5t-97 363zM164 731q0 -169 84.5 -313.5t229 -229t313.5 -84.5q128 0 244 50t199 134t132 200t49 243t-49 242.5t-132 199.5 t-199 133.5t-244 49.5q-169 0 -313.5 -84t-229 -228t-84.5 -313zM207 731q0 157 79 290t213.5 210.5t291.5 77.5t291 -77.5t212 -210.5t78 -290q0 -119 -46.5 -227t-124.5 -186t-185 -124.5t-225 -46.5t-225.5 46.5t-186.5 124.5t-125.5 186.5t-46.5 226.5zM330 664 l112 -177q346 -79 699 0l110 177h-921zM451 1063l151 -189q7 -8 38.5 7.5t29.5 21.5q-15 29 -45.5 111t-55.5 119q-7 9 -38.5 -6t-58 -36.5t-21.5 -27.5zM463 457q23 -39 52.5 -74t70.5 -69.5t94 -55t111 -20.5q57 0 110 20.5t94 55t70.5 69.5t52.5 74q-319 -84 -655 0z M715 731h155l-77 187zM918 903q-7 -4 19 -19q35 -19 46 -10l147 189q5 6 -21 27.5t-57 36.5t-38 6q-30 -39 -61 -129.5t-35 -100.5zM1290 102v23h84v-23h-31v-77h-22v77h-31zM1384 25v100h31l19 -78l18 78h29v-100h-19v77l-20 -77h-19l-20 77v-77h-19z" />
<glyph unicode="&#x201a;" d="M68 731q0 196 97 363t263.5 264.5t362.5 97.5t363 -97.5t264.5 -264.5t97.5 -363t-97.5 -363t-264.5 -264.5t-363 -97.5t-362.5 97.5t-263.5 264.5t-97 363zM164 731q0 -169 84.5 -313.5t229 -229t313.5 -84.5q128 0 244 50t199 134t132 200t49 243t-49 242.5t-132 199.5 t-199 133.5t-244 49.5q-169 0 -313.5 -84t-229 -228t-84.5 -313zM207 731q0 157 79 290t213.5 210.5t291.5 77.5t291 -77.5t212 -210.5t78 -290q0 -119 -46.5 -227t-124.5 -186t-185 -124.5t-225 -46.5t-225.5 46.5t-186.5 124.5t-125.5 186.5t-46.5 226.5zM330 664 l112 -177q346 -79 699 0l110 177h-921zM451 1063l151 -189q7 -8 38.5 7.5t29.5 21.5q-15 29 -45.5 111t-55.5 119q-7 9 -38.5 -6t-58 -36.5t-21.5 -27.5zM463 457q23 -39 52.5 -74t70.5 -69.5t94 -55t111 -20.5q57 0 110 20.5t94 55t70.5 69.5t52.5 74q-319 -84 -655 0z M715 731h155l-77 187zM918 903q-7 -4 19 -19q35 -19 46 -10l147 189q5 6 -21 27.5t-57 36.5t-38 6q-30 -39 -61 -129.5t-35 -100.5zM1290 102v23h84v-23h-31v-77h-22v77h-31zM1384 25v100h31l19 -78l18 78h29v-100h-19v77l-20 -77h-19l-20 77v-77h-19z" />
<glyph unicode="&#x201c;" d="M68 731q0 196 97 363t263.5 264.5t362.5 97.5t363 -97.5t264.5 -264.5t97.5 -363t-97.5 -363t-264.5 -264.5t-363 -97.5t-362.5 97.5t-263.5 264.5t-97 363zM164 731q0 -169 84.5 -313.5t229 -229t313.5 -84.5q128 0 244 50t199 134t132 200t49 243t-49 242.5t-132 199.5 t-199 133.5t-244 49.5q-169 0 -313.5 -84t-229 -228t-84.5 -313zM207 731q0 157 79 290t213.5 210.5t291.5 77.5t291 -77.5t212 -210.5t78 -290q0 -119 -46.5 -227t-124.5 -186t-185 -124.5t-225 -46.5t-225.5 46.5t-186.5 124.5t-125.5 186.5t-46.5 226.5zM330 664 l112 -177q346 -79 699 0l110 177h-921zM451 1063l151 -189q7 -8 38.5 7.5t29.5 21.5q-15 29 -45.5 111t-55.5 119q-7 9 -38.5 -6t-58 -36.5t-21.5 -27.5zM463 457q23 -39 52.5 -74t70.5 -69.5t94 -55t111 -20.5q57 0 110 20.5t94 55t70.5 69.5t52.5 74q-319 -84 -655 0z M715 731h155l-77 187zM918 903q-7 -4 19 -19q35 -19 46 -10l147 189q5 6 -21 27.5t-57 36.5t-38 6q-30 -39 -61 -129.5t-35 -100.5zM1290 102v23h84v-23h-31v-77h-22v77h-31zM1384 25v100h31l19 -78l18 78h29v-100h-19v77l-20 -77h-19l-20 77v-77h-19z" />
<glyph unicode="&#x201d;" d="M68 731q0 196 97 363t263.5 264.5t362.5 97.5t363 -97.5t264.5 -264.5t97.5 -363t-97.5 -363t-264.5 -264.5t-363 -97.5t-362.5 97.5t-263.5 264.5t-97 363zM164 731q0 -169 84.5 -313.5t229 -229t313.5 -84.5q128 0 244 50t199 134t132 200t49 243t-49 242.5t-132 199.5 t-199 133.5t-244 49.5q-169 0 -313.5 -84t-229 -228t-84.5 -313zM207 731q0 157 79 290t213.5 210.5t291.5 77.5t291 -77.5t212 -210.5t78 -290q0 -119 -46.5 -227t-124.5 -186t-185 -124.5t-225 -46.5t-225.5 46.5t-186.5 124.5t-125.5 186.5t-46.5 226.5zM330 664 l112 -177q346 -79 699 0l110 177h-921zM451 1063l151 -189q7 -8 38.5 7.5t29.5 21.5q-15 29 -45.5 111t-55.5 119q-7 9 -38.5 -6t-58 -36.5t-21.5 -27.5zM463 457q23 -39 52.5 -74t70.5 -69.5t94 -55t111 -20.5q57 0 110 20.5t94 55t70.5 69.5t52.5 74q-319 -84 -655 0z M715 731h155l-77 187zM918 903q-7 -4 19 -19q35 -19 46 -10l147 189q5 6 -21 27.5t-57 36.5t-38 6q-30 -39 -61 -129.5t-35 -100.5zM1290 102v23h84v-23h-31v-77h-22v77h-31zM1384 25v100h31l19 -78l18 78h29v-100h-19v77l-20 -77h-19l-20 77v-77h-19z" />
<glyph unicode="&#x201e;" d="M68 731q0 196 97 363t263.5 264.5t362.5 97.5t363 -97.5t264.5 -264.5t97.5 -363t-97.5 -363t-264.5 -264.5t-363 -97.5t-362.5 97.5t-263.5 264.5t-97 363zM164 731q0 -169 84.5 -313.5t229 -229t313.5 -84.5q128 0 244 50t199 134t132 200t49 243t-49 242.5t-132 199.5 t-199 133.5t-244 49.5q-169 0 -313.5 -84t-229 -228t-84.5 -313zM207 731q0 157 79 290t213.5 210.5t291.5 77.5t291 -77.5t212 -210.5t78 -290q0 -119 -46.5 -227t-124.5 -186t-185 -124.5t-225 -46.5t-225.5 46.5t-186.5 124.5t-125.5 186.5t-46.5 226.5zM330 664 l112 -177q346 -79 699 0l110 177h-921zM451 1063l151 -189q7 -8 38.5 7.5t29.5 21.5q-15 29 -45.5 111t-55.5 119q-7 9 -38.5 -6t-58 -36.5t-21.5 -27.5zM463 457q23 -39 52.5 -74t70.5 -69.5t94 -55t111 -20.5q57 0 110 20.5t94 55t70.5 69.5t52.5 74q-319 -84 -655 0z M715 731h155l-77 187zM918 903q-7 -4 19 -19q35 -19 46 -10l147 189q5 6 -21 27.5t-57 36.5t-38 6q-30 -39 -61 -129.5t-35 -100.5zM1290 102v23h84v-23h-31v-77h-22v77h-31zM1384 25v100h31l19 -78l18 78h29v-100h-19v77l-20 -77h-19l-20 77v-77h-19z" />
<glyph unicode="&#x2022;" d="M68 731q0 196 97 363t263.5 264.5t362.5 97.5t363 -97.5t264.5 -264.5t97.5 -363t-97.5 -363t-264.5 -264.5t-363 -97.5t-362.5 97.5t-263.5 264.5t-97 363zM164 731q0 -169 84.5 -313.5t229 -229t313.5 -84.5q128 0 244 50t199 134t132 200t49 243t-49 242.5t-132 199.5 t-199 133.5t-244 49.5q-169 0 -313.5 -84t-229 -228t-84.5 -313zM207 731q0 157 79 290t213.5 210.5t291.5 77.5t291 -77.5t212 -210.5t78 -290q0 -119 -46.5 -227t-124.5 -186t-185 -124.5t-225 -46.5t-225.5 46.5t-186.5 124.5t-125.5 186.5t-46.5 226.5zM330 664 l112 -177q346 -79 699 0l110 177h-921zM451 1063l151 -189q7 -8 38.5 7.5t29.5 21.5q-15 29 -45.5 111t-55.5 119q-7 9 -38.5 -6t-58 -36.5t-21.5 -27.5zM463 457q23 -39 52.5 -74t70.5 -69.5t94 -55t111 -20.5q57 0 110 20.5t94 55t70.5 69.5t52.5 74q-319 -84 -655 0z M715 731h155l-77 187zM918 903q-7 -4 19 -19q35 -19 46 -10l147 189q5 6 -21 27.5t-57 36.5t-38 6q-30 -39 -61 -129.5t-35 -100.5zM1290 102v23h84v-23h-31v-77h-22v77h-31zM1384 25v100h31l19 -78l18 78h29v-100h-19v77l-20 -77h-19l-20 77v-77h-19z" />
<glyph unicode="&#x2026;" d="M68 731q0 196 97 363t263.5 264.5t362.5 97.5t363 -97.5t264.5 -264.5t97.5 -363t-97.5 -363t-264.5 -264.5t-363 -97.5t-362.5 97.5t-263.5 264.5t-97 363zM164 731q0 -169 84.5 -313.5t229 -229t313.5 -84.5q128 0 244 50t199 134t132 200t49 243t-49 242.5t-132 199.5 t-199 133.5t-244 49.5q-169 0 -313.5 -84t-229 -228t-84.5 -313zM207 731q0 157 79 290t213.5 210.5t291.5 77.5t291 -77.5t212 -210.5t78 -290q0 -119 -46.5 -227t-124.5 -186t-185 -124.5t-225 -46.5t-225.5 46.5t-186.5 124.5t-125.5 186.5t-46.5 226.5zM330 664 l112 -177q346 -79 699 0l110 177h-921zM451 1063l151 -189q7 -8 38.5 7.5t29.5 21.5q-15 29 -45.5 111t-55.5 119q-7 9 -38.5 -6t-58 -36.5t-21.5 -27.5zM463 457q23 -39 52.5 -74t70.5 -69.5t94 -55t111 -20.5q57 0 110 20.5t94 55t70.5 69.5t52.5 74q-319 -84 -655 0z M715 731h155l-77 187zM918 903q-7 -4 19 -19q35 -19 46 -10l147 189q5 6 -21 27.5t-57 36.5t-38 6q-30 -39 -61 -129.5t-35 -100.5zM1290 102v23h84v-23h-31v-77h-22v77h-31zM1384 25v100h31l19 -78l18 78h29v-100h-19v77l-20 -77h-19l-20 77v-77h-19z" />
<glyph unicode="&#x202f;" horiz-adv-x="316" />
<glyph unicode="&#x2039;" d="M68 731q0 196 97 363t263.5 264.5t362.5 97.5t363 -97.5t264.5 -264.5t97.5 -363t-97.5 -363t-264.5 -264.5t-363 -97.5t-362.5 97.5t-263.5 264.5t-97 363zM164 731q0 -169 84.5 -313.5t229 -229t313.5 -84.5q128 0 244 50t199 134t132 200t49 243t-49 242.5t-132 199.5 t-199 133.5t-244 49.5q-169 0 -313.5 -84t-229 -228t-84.5 -313zM207 731q0 157 79 290t213.5 210.5t291.5 77.5t291 -77.5t212 -210.5t78 -290q0 -119 -46.5 -227t-124.5 -186t-185 -124.5t-225 -46.5t-225.5 46.5t-186.5 124.5t-125.5 186.5t-46.5 226.5zM330 664 l112 -177q346 -79 699 0l110 177h-921zM451 1063l151 -189q7 -8 38.5 7.5t29.5 21.5q-15 29 -45.5 111t-55.5 119q-7 9 -38.5 -6t-58 -36.5t-21.5 -27.5zM463 457q23 -39 52.5 -74t70.5 -69.5t94 -55t111 -20.5q57 0 110 20.5t94 55t70.5 69.5t52.5 74q-319 -84 -655 0z M715 731h155l-77 187zM918 903q-7 -4 19 -19q35 -19 46 -10l147 189q5 6 -21 27.5t-57 36.5t-38 6q-30 -39 -61 -129.5t-35 -100.5zM1290 102v23h84v-23h-31v-77h-22v77h-31zM1384 25v100h31l19 -78l18 78h29v-100h-19v77l-20 -77h-19l-20 77v-77h-19z" />
<glyph unicode="&#x203a;" d="M68 731q0 196 97 363t263.5 264.5t362.5 97.5t363 -97.5t264.5 -264.5t97.5 -363t-97.5 -363t-264.5 -264.5t-363 -97.5t-362.5 97.5t-263.5 264.5t-97 363zM164 731q0 -169 84.5 -313.5t229 -229t313.5 -84.5q128 0 244 50t199 134t132 200t49 243t-49 242.5t-132 199.5 t-199 133.5t-244 49.5q-169 0 -313.5 -84t-229 -228t-84.5 -313zM207 731q0 157 79 290t213.5 210.5t291.5 77.5t291 -77.5t212 -210.5t78 -290q0 -119 -46.5 -227t-124.5 -186t-185 -124.5t-225 -46.5t-225.5 46.5t-186.5 124.5t-125.5 186.5t-46.5 226.5zM330 664 l112 -177q346 -79 699 0l110 177h-921zM451 1063l151 -189q7 -8 38.5 7.5t29.5 21.5q-15 29 -45.5 111t-55.5 119q-7 9 -38.5 -6t-58 -36.5t-21.5 -27.5zM463 457q23 -39 52.5 -74t70.5 -69.5t94 -55t111 -20.5q57 0 110 20.5t94 55t70.5 69.5t52.5 74q-319 -84 -655 0z M715 731h155l-77 187zM918 903q-7 -4 19 -19q35 -19 46 -10l147 189q5 6 -21 27.5t-57 36.5t-38 6q-30 -39 -61 -129.5t-35 -100.5zM1290 102v23h84v-23h-31v-77h-22v77h-31zM1384 25v100h31l19 -78l18 78h29v-100h-19v77l-20 -77h-19l-20 77v-77h-19z" />
<glyph unicode="&#x205f;" horiz-adv-x="395" />
<glyph unicode="&#x20ac;" d="M68 731q0 196 97 363t263.5 264.5t362.5 97.5t363 -97.5t264.5 -264.5t97.5 -363t-97.5 -363t-264.5 -264.5t-363 -97.5t-362.5 97.5t-263.5 264.5t-97 363zM164 731q0 -169 84.5 -313.5t229 -229t313.5 -84.5q128 0 244 50t199 134t132 200t49 243t-49 242.5t-132 199.5 t-199 133.5t-244 49.5q-169 0 -313.5 -84t-229 -228t-84.5 -313zM207 731q0 157 79 290t213.5 210.5t291.5 77.5t291 -77.5t212 -210.5t78 -290q0 -119 -46.5 -227t-124.5 -186t-185 -124.5t-225 -46.5t-225.5 46.5t-186.5 124.5t-125.5 186.5t-46.5 226.5zM330 664 l112 -177q346 -79 699 0l110 177h-921zM451 1063l151 -189q7 -8 38.5 7.5t29.5 21.5q-15 29 -45.5 111t-55.5 119q-7 9 -38.5 -6t-58 -36.5t-21.5 -27.5zM463 457q23 -39 52.5 -74t70.5 -69.5t94 -55t111 -20.5q57 0 110 20.5t94 55t70.5 69.5t52.5 74q-319 -84 -655 0z M715 731h155l-77 187zM918 903q-7 -4 19 -19q35 -19 46 -10l147 189q5 6 -21 27.5t-57 36.5t-38 6q-30 -39 -61 -129.5t-35 -100.5zM1290 102v23h84v-23h-31v-77h-22v77h-31zM1384 25v100h31l19 -78l18 78h29v-100h-19v77l-20 -77h-19l-20 77v-77h-19z" />
<glyph unicode="&#x2122;" d="M68 731q0 196 97 363t263.5 264.5t362.5 97.5t363 -97.5t264.5 -264.5t97.5 -363t-97.5 -363t-264.5 -264.5t-363 -97.5t-362.5 97.5t-263.5 264.5t-97 363zM164 731q0 -169 84.5 -313.5t229 -229t313.5 -84.5q128 0 244 50t199 134t132 200t49 243t-49 242.5t-132 199.5 t-199 133.5t-244 49.5q-169 0 -313.5 -84t-229 -228t-84.5 -313zM207 731q0 157 79 290t213.5 210.5t291.5 77.5t291 -77.5t212 -210.5t78 -290q0 -119 -46.5 -227t-124.5 -186t-185 -124.5t-225 -46.5t-225.5 46.5t-186.5 124.5t-125.5 186.5t-46.5 226.5zM330 664 l112 -177q346 -79 699 0l110 177h-921zM451 1063l151 -189q7 -8 38.5 7.5t29.5 21.5q-15 29 -45.5 111t-55.5 119q-7 9 -38.5 -6t-58 -36.5t-21.5 -27.5zM463 457q23 -39 52.5 -74t70.5 -69.5t94 -55t111 -20.5q57 0 110 20.5t94 55t70.5 69.5t52.5 74q-319 -84 -655 0z M715 731h155l-77 187zM918 903q-7 -4 19 -19q35 -19 46 -10l147 189q5 6 -21 27.5t-57 36.5t-38 6q-30 -39 -61 -129.5t-35 -100.5zM1290 102v23h84v-23h-31v-77h-22v77h-31zM1384 25v100h31l19 -78l18 78h29v-100h-19v77l-20 -77h-19l-20 77v-77h-19z" />
<glyph unicode="&#xe000;" horiz-adv-x="1536" d="M0 0v1536h1536v-1536h-1536z" />
</font>
</defs>
</svg>
