<?xml version="1.0" standalone="no"?>
<!DOCTYPE svg PUBLIC "-//W3C//DTD SVG 1.1//EN" "http://www.w3.org/Graphics/SVG/1.1/DTD/svg11.dtd" >
<svg xmlns="http://www.w3.org/2000/svg">
<metadata></metadata>
<defs>
<font id="janda_curlygirl_chunkyregular" horiz-adv-x="1698" >
<font-face units-per-em="2048" ascent="1638" descent="-410" />
<missing-glyph horiz-adv-x="800" />
<glyph horiz-adv-x="2048" />
<glyph horiz-adv-x="2048" />
<glyph unicode="&#xd;" horiz-adv-x="800" />
<glyph unicode=" "  horiz-adv-x="800" />
<glyph unicode="&#x09;" horiz-adv-x="800" />
<glyph unicode="&#xa0;" horiz-adv-x="800" />
<glyph unicode="!" horiz-adv-x="698" d="M50 418v130h168l26 980h-178v130h610v-130h-158l-32 -980h174v-130h-610zM181 97q-5 37 10 68t46 55t68 36t74 12t67 -18q26 -28 28 -64t-14 -71t-45 -65t-63 -45t-69 -13t-63 30q-34 38 -39 75z" />
<glyph unicode="&#x22;" horiz-adv-x="698" d="M36 1314q-2 42 33 90t82 74t96 16t75 -80q8 -28 5 -72t-15 -89t-31 -87t-44 -63t-54 -17t-59 48q2 2 18 0t37 6t43 32t38 76q-122 -22 -172 1t-52 65zM372 1364q-2 42 33 90t82 74t96 16t75 -80q8 -28 5 -72t-15 -89t-31 -87t-44 -63t-54 -17t-59 48q2 2 18 0t37 6t43 32 t38 76q-122 -22 -172 1t-52 65z" />
<glyph unicode="#" horiz-adv-x="1708" d="M168 196h106l134 324l-110 8q-2 0 0 10t6 24t7 26t5 16l128 -8l160 386h-160l18 88l172 -10q8 18 23 50t30 66t29 64t20 46h-142l8 102h482l-8 -102h-64l-106 -236l218 -2l84 238h-8l8 102h462l-8 -102h-178l-64 -226l186 6q6 0 8 -12t1 -27t-4 -30t-5 -19l-216 -10 q-14 -42 -31 -84t-34 -89t-34 -102t-31 -121h206l-16 -86l-234 -4q-10 -10 -24 -46t-29 -82t-29 -95t-24 -83h62l4 -94h-438l-4 94h106l104 328h-264l-136 -308h62l4 -94h-438zM716 596h250l158 386h-240z" />
<glyph unicode="$" horiz-adv-x="1236" d="M-36 426v90h216v-90h-48q12 -60 41 -117t75 -99t107 -64t137 -10l14 672q-44 20 -97 74t-95 126t-64 151t-5 148t83 119t198 62l10 166h-98v98h320v-98h-90q-2 -46 -5 -95t-3 -65q162 -92 229 -162t77 -116h58v-90h-206v90h38q-20 28 -45 57t-50 53t-51 39t-50 15v-272 q56 -16 123 -38t133 -54t125 -73t101 -94t60 -118t2 -145q-38 -134 -117 -233t-170 -169t-179 -116t-142 -76l2 -204h44v-70h-216v70h78l12 210q0 6 -36 11t-90 18t-117 38t-115 70t-85 116t-29 175h-80zM403 1319q-5 -39 34 -84t133 -83v250q-74 6 -118 -19t-49 -64z M598 804l8 -646q20 -6 49 3t59 24t55 33t41 32q102 86 131 161t11 135t-69 107t-109 79t-109 50t-67 22z" />
<glyph unicode="%" horiz-adv-x="1092" d="M26 98l798 1666l186 -66l-796 -1676zM29 1324q-17 62 1 120t64 104t105 63t125 -4t126 -97q38 -50 40 -101t-21 -95t-66 -78t-93 -50t-103 -11t-97 39q-64 48 -81 110zM148 1349q0 -33 50 -67q30 -20 66 -22t69 11t58 39t35 62q12 46 -15 67t-69 22t-89 -14t-76 -40 t-29 -58zM557 272q-17 62 1 120t64 104t105 63t125 -4t126 -97q38 -50 40 -101t-21 -95t-66 -78t-93 -50t-103 -11t-97 39q-64 48 -81 110zM676 297q0 -33 50 -67q30 -20 66 -22t69 11t58 39t35 62q12 46 -15 67t-69 22t-89 -14t-76 -40t-29 -58z" />
<glyph unicode="&#x26;" horiz-adv-x="1648" d="M48 442q14 74 54 144t95 132t116 116t117 98q-24 36 -54 92t-54 119t-34 126t6 115q28 84 105 165t173 143t198 97t178 30t113 -60t5 -171q-22 -80 -67 -165t-100 -168t-113 -160t-106 -141l226 -348q24 28 56 73t59 96t43 101t6 90l-158 -114l-4 80q10 8 53 41t93 71 t93 71t55 41q86 62 157 78t123 3t85 -47t45 -73t0 -73t-48 -46q-18 -6 -43 8t-56 31t-68 27t-79 -3t-88 -58t-96 -141q-18 -34 -45 -91t-52 -115t-43 -109t-18 -71l294 -292h60v-90h-404v90h52l-94 88q-48 -66 -118 -123t-151 -93t-169 -47t-174 13q-16 6 -36 20t-39 32 t-36 35t-25 27q-64 78 -83 155t-5 151zM235 436q5 -64 36 -120t93 -88q68 -42 134 -51t125 11t109 65t84 111l-316 476q-60 -10 -111 -51t-87 -97t-54 -124t-13 -132zM466 1450q2 -6 14 -37t29 -74t37 -92t37 -91t29 -72t14 -34q144 134 202 247t56 194t-49 127t-113 45 t-137 -52t-119 -161z" />
<glyph unicode="'" horiz-adv-x="420" d="M109 1259q9 43 34 78t66 50t91 -9q42 -22 50 -66t-5 -94t-41 -101t-59 -86t-61 -49t-44 10q40 44 77 96t59 110q-70 -44 -109 -41t-53 31t-5 71z" />
<glyph unicode="(" horiz-adv-x="814" d="M56 876q0 180 74 340t223 284t373 180l38 -48q-140 -78 -235 -196t-144 -258t-51 -293t47 -300t150 -281t255 -236l-82 -46q-214 72 -359 207t-217 301t-72 346z" />
<glyph unicode=")" horiz-adv-x="824" d="M98 50q138 100 228 231t133 275t42 294t-44 287t-129 252t-210 193l34 46q200 -54 333 -176t199 -279t66 -333t-64 -338t-193 -295t-321 -203z" />
<glyph unicode="*" horiz-adv-x="432" d="M80 694l54 82l72 -78l98 120l54 -38q6 -16 -11 -32t-37 -33t-34 -33t-4 -32q2 -2 13 -12t25 -22t25 -22t13 -12q0 -16 -5 -36t-19 -32q-4 0 -15 6t-25 15t-25 17t-13 8q-18 4 -35 -13l-33 -33t-30 -22t-28 22q-4 8 2 24t15 34t17 32t8 18z" />
<glyph unicode="+" horiz-adv-x="1016" d="M64 810l6 82l312 -6l10 394h-64v88h402v-88h-92l4 -384q16 2 65 2t105 -1t104 -2t64 -3l-8 -76l-334 -10l-6 -334l108 -4l-4 -84h-454l4 84h84l6 342h-312z" />
<glyph unicode="," horiz-adv-x="432" d="M62 118q-4 48 17 92t66 72t115 12q90 -38 118 -103t5 -137t-91 -142t-168 -116l-46 22q16 30 60 60t86 64t64 76t-4 96q-70 -72 -118 -83t-74 14t-30 73z" />
<glyph unicode="-" horiz-adv-x="926" d="M104 602v336l78 -4l-4 -78l584 4l2 70l80 4l4 -320l-80 -4l-6 50l-584 4l4 -66z" />
<glyph unicode="." horiz-adv-x="500" d="M47 187q21 61 73 97t119 46t116 -10t65 -72t-32 -138q-26 -36 -67 -66t-87 -44t-90 -6t-76 50q-42 82 -21 143z" />
<glyph unicode="/" horiz-adv-x="726" d="M46 124l68 8l434 1440l-92 4l10 70l252 4l4 -94h-76l-416 -1442h94l4 -94l-278 10z" />
<glyph unicode="0" horiz-adv-x="1146" d="M30 456q-10 132 18 277t82 283t126 260t148 209t150 127t132 14q158 -52 251 -162t131 -250t27 -297t-59 -307t-129 -280t-182 -213t-217 -108t-236 35q-118 64 -175 172t-67 240zM301 536q-3 -110 21 -212t86 -188q20 -28 48 -39t57 -7t55 21t44 47q64 120 101 262 t57 296t25 318t3 330q-16 56 -42 97t-59 54t-71 -8t-76 -85q-38 -98 -81 -208t-79 -224t-61 -229t-28 -225z" />
<glyph unicode="1" horiz-adv-x="704" d="M34 1384l38 92l470 142l-30 -1504l130 8l2 -96h-62h-108t-131 -2t-131 -3t-108 -3t-60 -2l6 94l146 10l38 1318z" />
<glyph unicode="2" horiz-adv-x="1278" d="M86 42l6 110q18 22 53 64t79 93t91 107t89 107t76 93t52 66q16 32 58 106t90 166t91 191t61 181t-1 136t-93 58q-58 2 -128 -15t-134 -55t-113 -100t-63 -148h-114v408h114v-176q186 136 348 179t277 12t170 -124t29 -229q-52 -194 -115 -341t-132 -272t-140 -238 t-137 -241q32 -6 80 -20t102 -27t109 -19t105 2t88 36t58 86l-6 116h82l-12 -354l-82 6l10 86q-54 -54 -127 -67t-159 -4t-182 29t-195 32t-197 7t-188 -47z" />
<glyph unicode="3" horiz-adv-x="1266" d="M39 261q3 37 28 63t64 41t80 15t75 -15t49 -47t2 -82t-65 -122q140 -62 273 -39t231 117t149 252t27 366q-14 126 -60 189t-107 85t-130 12t-132 -31t-111 -42t-68 -23l-4 84l414 390l-438 -6v-23t-4 -91l-88 6l-6 274l94 4l4 -80l596 4l6 -94l-330 -272q136 24 249 -24 t194 -140t125 -216t41 -252t-56 -247t-165 -203q-114 -68 -251 -97t-266 -21t-234 54t-157 130q-32 44 -29 81z" />
<glyph unicode="4" horiz-adv-x="1266" d="M4 1008q40 56 105 113t133 118t125 129t81 146h-98v104l282 2v-104l-94 -2q-16 -78 -58 -142t-97 -121t-116 -110t-115 -109q66 -48 140 -79t153 -41t161 2t164 52l8 552h-54v104l418 4v-104l-92 -2l2 -462q44 16 73 38t67 72l42 -98q-6 -8 -23 -24t-41 -35t-53 -37 t-59 -28q-2 -218 -4 -364t-2 -238v-139t1 -67t1 -22v-2l92 2v-100v-4l-458 -4v104h90l-4 752q-114 -60 -235 -60t-228 33t-189 83t-118 88z" />
<glyph unicode="5" horiz-adv-x="1176" d="M28 316h112l4 -122q20 -30 72 -47t121 -18t148 14t151 48t130 83t85 119t17 157t-74 198q-60 54 -131 71t-144 11t-144 -30t-128 -50t-97 -49t-52 -29v982l888 4l-4 -242h-82v160l-504 -8l-4 -614q40 10 102 22t135 15t151 -4t147 -35t125 -79t86 -135q34 -174 -3 -298 t-120 -206t-198 -128t-237 -63t-237 -9t-199 32v-70h-112z" />
<glyph unicode="6" horiz-adv-x="1248" d="M22 517q-26 153 9 316t126 312t233 272t330 195v62h78l8 -270h-86v90q-82 -50 -163 -137t-145 -197t-104 -237t-39 -257t48 -255t159 -231q-16 92 18 191t98 185t149 147t171 75t162 -28t124 -164q24 -124 -1 -223t-85 -171t-147 -118t-185 -67t-200 -17t-194 32 q-158 82 -248 212t-116 283zM568 214q4 -52 44 -78q62 -40 122 -28t110 57t86 114t48 141t-3 136t-67 102q-40 10 -88 -18t-94 -77t-84 -112t-58 -124t-16 -113z" />
<glyph unicode="7" horiz-adv-x="1192" d="M46 1492v146q218 4 371 6t258 3t174 2t118 1t89 1t90 1l-262 -718h222v-86h-266q-10 -20 -32 -78t-51 -137t-62 -166t-62 -166t-51 -137t-30 -78q-2 -2 -2 -4h134v-86h-574v86h118l294 762h-202v86h256l2 2q30 72 62 150t63 158t59 157t50 145l-692 -6v-44h-74z" />
<glyph unicode="8" horiz-adv-x="1294" d="M41 376q-15 98 11 196t82 184t138 155t180 109q-126 88 -147 214t103 286q84 72 167 85t155 -16t127 -92t80 -143t14 -169t-67 -169q132 -26 216 -94t124 -160t37 -196t-46 -204t-124 -185t-198 -136t-267 -61t-332 42q-116 74 -177 165t-76 189zM417 500q-1 -98 17 -180 t55 -141t90 -84t123 -10t156 83q70 128 77 261t-26 245t-96 190t-133 94t-136 -42t-106 -216q-20 -102 -21 -200zM537 1243q-1 -37 4 -75t20 -65t44 -39t75 4q58 50 74 118t4 133t-42 115t-64 66t-64 -15t-40 -129q-2 -14 -6 -45t-5 -68z" />
<glyph unicode="9" horiz-adv-x="1112" d="M18 1229q2 77 59 161t148 150t204 101t229 15q130 -30 216 -95t136 -152t67 -187t6 -201t-45 -195t-86 -168q-64 -106 -150 -192t-183 -159t-200 -140t-201 -135v-64h-104v250h104v-92q114 72 217 193t179 264t114 294t22 281q-56 -52 -106 -83t-102 -45t-112 -15t-136 5 q-150 14 -214 73t-62 136zM346 1399q0 -53 9 -109t28 -105t47 -67q104 2 168 31t97 72t39 95t-6 102t-36 92t-50 66q-8 6 -47 9t-86 -5t-91 -31t-62 -67q-10 -30 -10 -83z" />
<glyph unicode=":" horiz-adv-x="488" d="M108 556q-22 54 1 94t66 63t95 30t88 -5q40 -26 42 -61t-21 -69t-62 -61t-80 -38t-77 -2t-52 49zM124 964q-22 54 1 94t66 63t95 30t88 -5q40 -28 42 -62t-21 -68t-62 -61t-80 -38t-77 -2t-52 49z" />
<glyph unicode=";" horiz-adv-x="476" d="M62 -42q-18 52 7 105t71 94t100 62t94 11q66 -66 83 -151t-9 -161t-91 -129t-163 -57v22q34 22 74 51t72 66t48 81t2 96q-6 -6 -25 -27t-45 -45t-56 -46t-60 -30t-57 4t-45 54zM64 418q-22 54 1 94t66 63t95 30t88 -5q40 -28 42 -62t-21 -68t-62 -61t-80 -38t-77 -2 t-52 49z" />
<glyph unicode="&#x3c;" horiz-adv-x="884" d="M112 762l630 466v48l76 -2v-272l-76 4v38l-386 -328l402 -212v66h76l-8 -230h-76v74z" />
<glyph unicode="=" horiz-adv-x="1080" d="M98 974l8 250l78 -4l-8 -50h718l6 42l80 4l8 -234l-80 -4l-12 28l-718 8l-2 -44zM102 668l8 250l78 -4l-8 -50h718l6 42l80 4l8 -234l-80 -4l-12 28l-718 8l-2 -44z" />
<glyph unicode="&#x3e;" horiz-adv-x="970" d="M146 540h82v-66l432 210l-414 326v-36l-82 -4v270l82 2v-48l678 -464l-688 -346v-74h-82z" />
<glyph unicode="?" horiz-adv-x="1070" d="M55 1214q-11 52 7 110q42 128 112 202t155 105t177 23t179 -44t162 -97t123 -136t63 -158t-17 -166t-118 -161t-238 -140l-20 -278h70v-74h-356v74h60l-4 274q4 32 38 52t81 35t101 29t100 37t78 57t36 90q6 92 -9 165t-45 128t-73 95t-91 68q-88 52 -166 52t-143 -31 t-112 -82t-71 -101t-22 -89t36 -45q64 74 119 96t94 11t59 -46t17 -75t-32 -75t-89 -47q-70 -14 -125 2t-90 52t-46 88zM313 191q15 57 62 88t113 37t119 -13t80 -65t-1 -118q-28 -36 -71 -66t-92 -44t-96 -6t-81 50q-48 80 -33 137z" />
<glyph unicode="@" horiz-adv-x="1724" d="M56 612q24 134 95 263t174 233t232 172t271 82q84 8 190 -10t212 -57t201 -100t155 -139t75 -173t-39 -201q-30 -60 -77 -98t-98 -70t-101 -66t-86 -84h-250q-18 0 -37 27t-35 62t-27 68t-15 47q-92 -116 -181 -161t-159 -39t-115 53t-49 118t39 156t147 167q34 26 81 42 t93 14t85 -26t59 -74q2 8 10 34t12 32t12 15t10 9h184q12 0 19 -18t3 -28q-2 -4 -8 -14t-14 -20t-15 -20t-9 -14v-294q0 -22 16 -26t36 0t38 13t22 13q122 102 155 215t3 217t-112 188t-190 130t-230 42t-233 -76t-197 -224t-124 -402q-10 -52 -7 -116t18 -127t46 -119 t79 -92q32 -10 86 -26t115 -28t122 -18t107 4q66 12 115 28t91 37t84 44t96 51q8 4 19 0t19 -11t11 -18t-3 -19q-18 -28 -52 -49t-71 -38t-72 -29t-55 -20q-202 -70 -402 -48t-394 118q-114 90 -160 222t-20 276zM600 615q2 -43 24 -71q26 -38 58 -43t62 12t55 50t39 73 t13 82t-23 76q-30 46 -63 53t-63 -11t-54 -55t-37 -80t-11 -86z" />
<glyph unicode="A" d="M28 6l6 88h114l682 1446l-162 -12l-6 82l526 12l324 -1540l138 -4h2v-76l-636 -12v76l124 6l-92 630l-522 -22l-296 -580h130v-82zM570 792l462 16l-98 712z" />
<glyph unicode="B" horiz-adv-x="1330" d="M28 1384v208h74v-48q82 56 200 86t245 34q18 1 36 1q108 0 213 -21q122 -24 211 -75t133 -131q27 -49 27 -109q0 -38 -11 -81q-22 -48 -54 -84t-61 -62t-49 -40t-16 -18q166 -84 245 -184t90 -205q2 -20 2 -39q0 -85 -39 -167q-48 -101 -137 -187t-209 -149t-252 -90 q-83 -17 -168 -17q-50 0 -101 6q-137 16 -259 86l4 -52h-74v208h74v-88l234 -74q1 21 1 47q0 52 -3 126q-4 111 -13 247t-20 285t-22 287t-21 255t-14 189q-76 -24 -118 -41t-74 -41v-62h-74zM568 1558l44 -498q14 -3 31 -2q23 0 53 4q52 8 106 23t102 34t72 37 q78 56 93 111q5 20 5 38q0 34 -17 65q-27 48 -87 87t-131 65t-144 36q-36 5 -68 5t-59 -5zM636 946l32 -828h6q49 0 125 32q81 34 162 93t148 138t90 169q9 36 9 72q0 56 -21 114q-35 96 -159 186q-36 30 -88 45t-108 18q-13 1 -26 1q-42 0 -82 -8q-52 -10 -88 -32z" />
<glyph unicode="C" horiz-adv-x="1222" d="M74 739q12 157 59 307t123 279t173 214t210 113q39 10 78 10q76 0 157 -36q42 -20 96 -43t90 -53v130l86 2v-384l-86 -2v160q-30 32 -82 60t-109 48t-109 27q-19 3 -36 3q-28 0 -48 -8q-76 -76 -126 -196t-74 -259q-21 -124 -21 -252v-32q3 -145 30 -271t80 -221 t130 -132q41 -20 90 -19q42 0 89 14q102 32 228 158v110h70v-286h-70v48q-66 -60 -150 -114t-176 -87t-187 -37h-19q-85 0 -162 32q-132 56 -209 168t-107 252q-21 100 -21 209q0 43 3 88z" />
<glyph unicode="D" horiz-adv-x="1302" d="M20 -58l10 218l62 -2l-4 -76l148 -4l24 1466l-126 -30l-4 -70l-64 2l10 200l64 -2l-4 -52q197 52 376 52h13q185 -2 333 -59t250 -166t142 -267q23 -89 22 -193q0 -80 -13 -169q-31 -204 -151 -452q-110 -130 -239 -201t-263 -102t-268 -32h-30q-118 0 -224 7l-2 -70z M614 1538l40 -1388q110 12 203 78t162 168t110 228t50 254q2 32 2 64q0 95 -20 186q-27 122 -94 215t-179 147q-101 49 -242 49q-16 0 -32 -1z" />
<glyph unicode="E" horiz-adv-x="1140" d="M60 38l12 1576l860 4l-4 58h90l8 -290h-90l-4 140h-554l-10 -666l186 4v72h72v-236h-72v78q-24 0 -53 -2t-56 -3t-49 -2t-30 -1l-16 -632h638l-4 130l90 -4l4 -262l-90 4v40z" />
<glyph unicode="F" horiz-adv-x="1028" d="M28 1502l4 82l992 28v58h86v-254h-86v104l-554 -12l4 -536l230 6v76h90v-210h-90v52l-226 -8l-10 -772h80v-100h-512v100h142q2 152 4 332q1 120 1 241v122q-1 183 -6 360t-13 325z" />
<glyph unicode="G" horiz-adv-x="1482" d="M35 644q7 142 49 284t118 274t186 232q48 42 117 83t149 73t165 50q64 14 125 14q20 0 40 -2q80 -6 149 -39t115 -103q44 -70 44 -126q0 -8 -1 -15q-7 -61 -44 -100t-94 -52q-26 -6 -49 -6q-30 0 -56 9q-46 14 -74 56q-25 38 -25 79v9q3 46 46 87t139 55q-16 26 -51 39 t-82 16q-18 1 -36 1q-30 0 -62 -3q-51 -5 -96 -15t-80 -22t-47 -24q-66 -88 -116 -208t-80 -253t-38 -269q-2 -38 -2 -74q0 -95 15 -181q21 -119 72 -212t137 -141h6q22 0 63 12q47 14 104 41t114 67t102 91t69 114q16 42 16 89q0 23 -4 48q-10 2 -23 3t-61 3l4 78l388 -2 l-4 -78l-72 2l4 -512h78v-86h-352v86h56l-10 208q-16 -22 -47 -49t-66 -53t-66 -47t-45 -27q-190 -104 -337 -127q-54 -8 -102 -8q-84 0 -152 25q-107 40 -175 130t-98 212q-24 99 -24 211q0 26 1 53z" />
<glyph unicode="H" horiz-adv-x="1326" d="M44 12v94h104l8 1450h-110v94l430 2v-94h-82l-2 -672l578 28l-2 638h-54v94h382v-94h-110l28 -1450h80v-94h-382v94h80l-12 740l-584 -28v-706h78v-94z" />
<glyph unicode="I" horiz-adv-x="1208" d="M76 1566v80l1096 4l-8 -86l-452 4v-1458l460 12v-102l-1090 -6v80l360 8l-2 1464h-364z" />
<glyph unicode="J" horiz-adv-x="1306" d="M45 483q13 105 103 199q48 44 101 70q49 24 98 24h8q53 -2 99 -34t78 -106q20 -71 20 -123q0 -26 -5 -48q-15 -65 -54 -93q-31 -22 -70 -22q-10 0 -20 1q-51 7 -94 45t-66 105q-13 38 -13 82q0 35 8 75q-90 -74 -105 -163q-4 -26 -4 -52q0 -61 25 -120q36 -83 111 -147 t166 -85q35 -8 70 -8q57 0 114 21q93 34 167 146q32 64 50 157t25 204q5 86 5 180v54q-2 123 -7 247t-11 245t-8 227l-266 2l6 94q206 4 353 6t248 2h163h97t50 -1t25 -1l-6 -86l-290 -8q2 -130 10 -275t12 -292q1 -53 1 -106q0 -93 -4 -184q-7 -143 -35 -267t-83 -223 t-150 -159t-235 -74q-34 -3 -71 -3q-116 0 -265 33q-106 24 -192 96t-129 166q-33 72 -33 151q0 24 3 48z" />
<glyph unicode="K" horiz-adv-x="1424" d="M18 1542v108l568 12h2q8 0 8 -2v-106l-162 -4l-24 -738l726 734h-212v108h474v-108h-138l-484 -522l434 -914l192 -4v-108l-482 10v108l168 -4l-404 846l-274 -246l-22 -596l216 4v-108l-580 -10v108h58l56 1434z" />
<glyph unicode="L" horiz-adv-x="1278" d="M32 1560v108h528v-108h-104l-2 -1404h696v102h94v-250h-94v40h-1016l22 1512h-124z" />
<glyph unicode="M" horiz-adv-x="1552" d="M42 12v108h84q10 256 14 615t8 823l-90 -2q-2 38 -2 45v9l2 2v52l544 4v-108l-88 -2l242 -530l210 536h-24v110h578v-110l-156 -6l28 -1438l108 4v-108l-574 -4v108h92q8 98 8 242t-2 318t-4 369v98q0 147 4 297l-204 -552h-88l-260 538l-4 -1308l118 2v-108z" />
<glyph unicode="N" horiz-adv-x="1646" d="M46 4v108h78l4 1420h-82v108l558 4v-108l-128 -2l732 -1386l14 1384h-124v108l498 4v-108l-114 -2l-12 -1440l126 2v-108l-494 -6v108h36l-694 1330l12 -1292q2 -4 3 -7t3 -7l142 2v-108z" />
<glyph unicode="O" horiz-adv-x="1670" d="M50 835q4 159 56 304t148 264t226 187t290 73h18q152 0 324 -77q176 -92 292 -219t177 -270t68 -291q1 -21 1 -42q0 -125 -36 -241q-42 -135 -131 -247t-222 -182t-307 -88q-44 -4 -89 -4q-138 0 -297 40q-186 80 -301 208t-168 277q-49 139 -49 286v22zM511 964 q-1 -29 -1 -57q0 -118 23 -234q29 -143 90 -259t151 -195t206 -97q108 14 176 90t102 188t37 246v37q0 115 -16 229q-19 132 -58 247t-89 189q-26 48 -84 97t-125 79t-132 31h-3q-63 0 -102 -47q-82 -114 -125 -255t-50 -289z" />
<glyph unicode="P" horiz-adv-x="1380" d="M36 1646q98 4 217 13t245 14q70 3 140 3q56 0 111 -2q125 -4 235 -26t197 -66t135 -119t50 -185v-7q0 -108 -56 -259q-36 -70 -94 -117t-127 -76t-144 -41t-146 -13h-14q-63 0 -119 8q-62 9 -102 25v-708l202 -4l-6 -84q-32 4 -89 5q-28 0 -59.5 0.5t-64.5 -0.5 q-67 -1 -138 -3t-134 -3t-111 -2h-29q-26 0 -39 1l2 74l122 4l6 1474l-184 -4zM560 1556l10 -660q58 -11 110 -11q49 0 91 10q87 21 148 70t93 118t34 142v10q0 68 -26 132q-28 69 -88 118t-153 71q-46 11 -101 11t-118 -11z" />
<glyph unicode="Q" horiz-adv-x="1876" d="M0 716q22 156 96 307t192 284t264 225t312 131q84 20 169 20q82 0 165 -19q174 -40 296 -145t193 -247t89 -307q6 -55 6 -109q0 -109 -24 -214q-36 -158 -126 -295t-236 -223q6 -34 44 -61t91 -40q41 -10 85 -10q14 0 28 1q60 4 108 32v70h94v-204h-94v26 q-58 -26 -131 -35q-19 -2 -37 -2q-52 0 -98 19q-36 16 -62 30t-49 31t-44 40t-49 57q-72 -40 -178 -60t-215 -27q-59 -4 -114 -4q-47 0 -92 3q-97 6 -151 22q-216 54 -339 163t-169 247q-31 93 -31 195q0 49 7 99zM467 583q13 -119 59 -236t138 -225q-22 4 -3 -1t65 -11 t109 -10q25 -2 51 -2q38 0 78 4q66 6 126 26t100 64q-28 52 -62 131t-78 149t-100 114q-38 30 -84 30q-20 0 -42 -6v-90h-86v180h86v-32q39 16 73 16q18 0 34 -4q49 -12 92 -46t79 -85t65 -105t52 -103t41 -81q11 -5 21 -5q23 0 42 29q27 42 44 124t20 194q1 24 1 48 q0 90 -9 186q-11 122 -39 242t-74 220t-113 168t-157 84q-38 7 -76 7q-45 0 -88 -10q-80 -19 -132 -89q-50 -88 -97 -191t-82 -216t-51 -231q-9 -65 -9 -131q0 -53 6 -106z" />
<glyph unicode="R" horiz-adv-x="1326" d="M34 2v108h58v1424l-58 2v108l354 -2v-108h-36v-84q126 114 245 159q105 40 196 39h24q101 -6 180 -56t126 -125t59 -168q3 -24 3 -49q0 -69 -25 -137q-34 -93 -118 -178t-226 -143l370 -686h122v-108h-322v108h86l-376 710q-24 -12 -66 -24t-90 -18q-29 -4 -58 -4 q-19 0 -39 2q-49 4 -87 26v-684h36v-108zM352 1368l4 -504q57 -14 105.5 -14t89.5 14q81 28 131 89t71 143q16 64 16 126q0 18 -1 35q-6 79 -37 143t-85 90q-28 13 -60 13q-31 0 -68 -12q-74 -25 -166 -123z" />
<glyph unicode="S" horiz-adv-x="1496" d="M8 1087v7q0 76 43 154q45 82 123 152t183 123t222 76q71 14 144 14q48 0 96 -6q123 -15 239 -79v116l88 2l6 -322l-88 -2v62q-6 18 -42 38t-84 37t-101 30t-91 19q-20 3 -39 3q-54 0 -98 -22q-59 -29 -99 -82t-59 -119q-18 -63 -18 -126v-7q1 -67 23 -124t66 -89 q58 -42 139 -47q34 -2 69 -2q49 0 102 4q90 7 184 13q20 1 40 1q72 0 138 -17q84 -22 151 -85t103 -193q5 -41 5 -79q0 -109 -42 -195q-57 -116 -163 -190t-246 -108q-119 -29 -243 -29q-22 0 -44 1q-147 6 -285 53t-240 135h-6v-100h-92v316h92v-102q134 -90 249 -138 t211 -62q48 -7 90 -7t79 7q73 14 123 48q56 38 86 96t39 123q5 34 5 70q0 31 -4 63q-8 68 -29 125t-53 98t-70 55l-664 24q-124 48 -180 118t-58 149z" />
<glyph unicode="T" horiz-adv-x="1316" d="M20 1336v296h120v-104h1244v108h120v-296h-120v84h-480l-4 -1328h104v-104h-598v104h140l2 1328h-408v-88h-120z" />
<glyph unicode="U" horiz-adv-x="1664" d="M44 1530v92h600v-92h-130q-16 -108 -24 -240q-6 -96 -6 -195q0 -37 1 -74q3 -137 20 -271t49 -247t82 -198t119 -123q49 -27 108 -27q25 0 52 5q91 16 205 104q78 88 122 202t66 237t27 248q3 78 3 151q0 44 -1 86q-3 112 -9 202q-4 68 -4 115v29l-228 -4v92h600v-92 l-248 12q26 -264 28 -493v-28q0 -213 -29 -385q-31 -184 -101 -319t-191 -212t-299 -91q-35 -3 -72 -3q-154 0 -352 47q-58 44 -105 97t-83 130t-58 182t-31 254q-5 84 -5 183q0 77 3 165q7 199 31 461h-140z" />
<glyph unicode="V" horiz-adv-x="1622" d="M-10 1656h512l2 -92h-78l660 -1064q8 28 28 99t48 168t60 209t64 222t62 207t52 163h-136v92h398v-92h-162l-450 -1540l-84 4l-886 1532h-88z" />
<glyph unicode="W" horiz-adv-x="2506" d="M122 1566v92h734v-92l-198 -12l478 -1006q4 14 17 55t31 95l38 114l38 114t31 94t17 56l68 4l336 -870l264 1362h-106v92h612v-92h-156q-70 -412 -118 -686t-79 -443t-47 -253t-23 -118t-9 -34t-4 -4l-334 -8l-360 898l-258 -902l-110 -2l-724 1538l-4 1t-17 2t-41 2 t-76 3z" />
<glyph unicode="X" horiz-adv-x="1780" d="M28 1560v112h772v-112h-160l372 -528l504 516h-182v112h426v-112h-116l-572 -584l600 -844h84v-108h-708v108h36q-12 20 -38 61t-58 92t-68 108t-68 106t-56 86t-32 51l-468 -500h132v-112h-394v112h126l540 596l-534 840h-138z" />
<glyph unicode="Y" horiz-adv-x="1676" d="M48 1568v86h454v-86h-146l642 -618l236 618h-40v86h454v-86h-106l-498 -1446h64v-110h-526v110h98l280 746l-718 700h-194z" />
<glyph unicode="Z" horiz-adv-x="1622" d="M58 26l492 770h-224v108h278l410 584q-64 -20 -132 -20t-138 8t-142 20t-144 16q-26 1 -52 1l-92 -4q-72 -7 -142 -37v-76h-76v218h76v-44q56 28 136 33q40 2 85 2.5t94 -2.5q99 -5 213 -14t238 -9t254 14t262 58l-496 -752h224v-108h-268l-366 -668l950 -6v104h64v-256 h-64v56z" />
<glyph unicode="[" horiz-adv-x="732" d="M60 -164l10 1906l624 10l-8 -86l-328 4l-10 -1736l336 12v-102z" />
<glyph unicode="\" horiz-adv-x="802" d="M0 1556l4 94l298 -4l12 -70l-108 -4l510 -1440l80 -8l-4 -94l-328 -10l6 94h110l-490 1442h-90z" />
<glyph unicode="]" horiz-adv-x="658" d="M28 1774l618 -10l10 -1896l-618 8v102l332 -12l-10 1726l-324 -4z" />
<glyph unicode="^" horiz-adv-x="908" d="M28 664v80h70l284 376h-72v70l404 2v-72h-98l180 -384l66 -2v-78l-216 2v80l66 -2l-160 312l-164 -306h78v-80z" />
<glyph unicode="_" horiz-adv-x="1064" d="M40 -8v336l78 -4l-4 -78l808 4l2 70l80 4l4 -320l-80 -4l-6 50l-808 4l4 -66z" />
<glyph unicode="`" horiz-adv-x="404" d="M26 1546l66 190l290 -196l-58 -208z" />
<glyph unicode="a" horiz-adv-x="1440" d="M24 174q-6 27 -6 55q0 43 15 86q25 71 84 140t138 131t172 114t186 90t179 59q79 19 140 19h12q6 38 6 75q0 54 -13 104q-21 83 -74 128q-48 41 -120 41q-8 0 -16 -1q-83 -5 -193 -81q-6 -4 12 -29t37 -63t30 -84q4 -18 4 -36q0 -27 -10 -54q-17 -44 -72 -82t-169 -60 q-80 0 -127 39t-55 97q-1 11 -1 22q0 49 28 106q35 70 119 133t219 111t327 62q35 3 66 3q103 0 167 -31q83 -40 124 -120t49 -195q7 -102 7 -224v-31v-71q0 -109 2 -229q3 -160 31 -330l96 2l-4 -74l-574 -2l4 74h98l2 218q-44 -38 -109 -84t-140 -90t-156 -79t-158 -49 q-43 -8 -84 -8q-32 0 -64 5q-71 11 -123 59q-70 64 -86 134zM375 419q7 -71 69 -155q38 -28 66 -46t55 -25q15 -4 30 -4q13 0 26 3q29 6 72 29t103 63t148 100v394q-72 -2 -154 -17t-158 -44t-139 -72t-94 -99q-25 -46 -25 -101q0 -13 1 -26z" />
<glyph unicode="b" horiz-adv-x="1584" d="M-16 1590v82l470 -6l48 -588q116 114 244 155q95 31 189 30q32 0 63 -3q124 -14 233 -76t186 -154t114 -208q24 -74 24 -151q0 -44 -8 -88q-21 -123 -110 -243t-263 -224q-72 -42 -177 -63t-223 -28q-92 -5 -186 -5h-54q-122 2 -227 5t-184 3t-111 -12l32 78q6 -4 25 -6 t41 -3t41 0t25 3l-28 1508zM468 395q4 -141 28 -263q53 -17 108 -17q17 0 35 2q73 7 143 37t133 83t115 125q72 102 99 208q19 73 19 141q0 30 -4 58q-12 93 -56 166t-112 112q-62 35 -141 35h-16q-89 -4 -189 -64q-58 -36 -96 -133t-54 -223q-13 -101 -13 -211q0 -28 1 -56 z" />
<glyph unicode="c" horiz-adv-x="1114" d="M40 451q-4 37 -4 75q0 85 19 175q27 129 85 245t144 206t193 133q77 31 162 31q34 0 69 -5q124 -17 256 -115v108h74v-374h-74v92q-22 38 -58 75t-84 60t-107 28q-11 1 -22 1q-49 0 -105 -18q-28 -44 -57 -129t-49 -190t-28 -217q-4 -50 -4 -97q0 -59 6 -114 q10 -99 43 -173t95 -102q8 -4 51 4t104 32t132 67t135 113v106l76 2v-288h-76v76q-76 -82 -166 -139t-187 -84q-77 -21 -156 -21q-20 0 -41 1q-100 7 -198 55q-106 58 -161 159t-67 222z" />
<glyph unicode="d" horiz-adv-x="1314" d="M48 656q10 134 49 256t107 221t161 147q70 36 152 36q27 0 56 -4q115 -16 249 -122l8 398l-136 -12l6 76l576 2l-6 -68l-130 2l34 -1508l94 12l6 -72l-508 -10l-6 72l98 4v120q-182 -122 -321 -152q-61 -13 -115 -13q-68 0 -122 21q-98 38 -157 129t-82 211 q-16 84 -16 174q0 39 3 80zM406 683q-1 -27 -1 -53q0 -83 14 -160q19 -102 66 -183t127 -119q11 -5 26.5 -5t34.5 5q39 10 77 33t66 55t28 66l-12 738q-62 100 -122 123q-26 10 -50 10q-33 0 -63 -18q-53 -31 -94 -107t-66 -175t-31 -210z" />
<glyph unicode="e" horiz-adv-x="1236" d="M28 494q-3 30 -3 60q0 87 22 175q29 119 89 226t146 192t188 133q140 34 247 34q39 0 74 -5q129 -17 210 -84t121 -177t50 -252l-720 -82q-12 -38 -12 -96t8 -122t21 -129t28 -116t29 -83t26 -30q20 -2 41 -2q43 0 92 8q73 12 146 37t140 61t113 76l-4 92l104 -2l4 -310 l-104 2l-4 72q-102 -58 -211 -97t-217 -53q-50 -7 -99 -7q-56 0 -111 9q-102 16 -190 72q-106 74 -160 178t-64 220zM452 808l388 44l-64 312q-8 38 -51 45q-19 3 -39 3q-26 0 -53 -5q-49 -9 -89 -27t-42 -30q-4 -2 -9 -27t-11 -61t-11 -79t-10 -80t-7 -64t-2 -31z" />
<glyph unicode="f" horiz-adv-x="1032" d="M32 1028l172 4q14 196 71 338t154 222t230 94q25 3 52 3q112 0 247 -49q94 -36 138 -105t50 -146q1 -14 1 -29q0 -62 -21 -120q-26 -72 -74 -115t-111 -44h-2q-62 0 -129 65q-22 47 -22 85q0 22 7 40q19 51 63 77t101 28h10q51 0 93 -18q2 12 2 23q0 34 -19 62 q-25 37 -68 63t-97 41t-106 20q-26 3 -49 3t-44 -3q-41 -5 -59 -19q-12 -10 -23 -47t-20 -89t-16 -113t-11 -116t-4 -99t6 -62h174v-106q-62 6 -97 7t-52 1t-22 -1l-5 -1q-4 -104 -7 -212t-3 -211t3 -197t15 -168h104l-6 -100l-550 -6l-10 104l118 2q0 8 4 36t5 109v21 q0 79 -6 210q-7 150 -27 406l-154 6z" />
<glyph unicode="g" horiz-adv-x="1236" d="M45 450q-5 38 -5 77q0 71 16 144q24 113 82 222t146 196t202 143t250 62q24 100 63 202t107 182q34 42 82 63q42 18 83 18h12q47 -3 85 -34t52 -93q3 -18 3 -35q0 -37 -16 -66q-23 -41 -60 -61q-35 -19 -71 -19h-4q-38 1 -58 26q-13 17 -13 44q0 14 3 30q10 49 70 127 q-22 14 -53 -3t-63 -54t-62 -86t-49 -97t-24 -87t11 -57q98 -38 162 -111t95 -166t34 -199v-25q0 -93 -19 -184q-22 -103 -67 -198t-108 -166t-141 -112q-68 -36 -145 -36q-12 0 -23 1q-2 0 0 -8t4 -17t4 -17t2 -10q106 30 194 30q53 0 99 -11q123 -29 201 -109t110 -194 q23 -81 23 -165q0 -34 -4 -69q-13 -120 -70 -231t-159 -184t-246 -94q-36 -5 -76 -5q-116 0 -256 46q-106 58 -153 130t-51 146v16q0 66 28 129q32 71 87 129t126 98t144 49q19 2 38 2q53 0 103 -18q68 -25 118 -97q10 -28 10 -50q0 -17 -5 -30q-13 -32 -42 -49t-66 -21 q-13 -1 -26 -1q-22 0 -41 4q-30 7 -46 22t-2 35q27 -5 49 -5q25 0 42 7q31 12 39 34t-8 45t-52 35q-21 7 -47 7q-19 0 -42 -4q-53 -9 -121 -51q-34 -57 -34 -110q0 -12 2 -25q10 -65 51 -118t104 -88t131 -43q16 -2 33 -2q50 0 96 19q61 25 99 90t41 177v13q0 109 -45 267 q-26 80 -74 122t-107 58q-39 11 -81 11q-21 0 -43 -3q-65 -8 -126 -26t-113 -44t-84 -48l-28 54q8 10 32 23t51 27t51 27t34 21v56h-12q-142 0 -238 47q-100 49 -156 132t-69 191zM450 512q0 -86 17 -158t59 -118l18 136l46 -38l-6 -132q62 6 108 69t75 155t43 202 q13 103 13 200v14q-1 104 -17 189t-44 127q-23 31 -49 31q-6 0 -12 -2q-33 -9 -68 -53t-67 -114t-58 -155t-42 -176t-16 -177z" />
<glyph unicode="h" horiz-adv-x="1304" d="M6 1670h606l10 -92h-132l22 -404q116 92 209 120q51 15 95 15q36 0 69 -10q71 -23 123 -88t89 -161t59 -213t33 -243t13 -254q1 -43 1 -84q0 -82 -3 -158l78 6l4 -88l-458 -6l6 88h48q2 36 4 117q1 32 1 68q0 54 -2 116q-3 103 -10 217t-24 217t-44 186t-68 122 q-30 28 -67 28q-14 0 -30 -4q-56 -15 -130 -105l-8 -962l100 6l12 -104l-568 -6l-2 108l72 -4l24 1480h-122z" />
<glyph unicode="i" horiz-adv-x="610" d="M78 1172l6 94h384l2 -1182l112 10l2 -88l-502 -4l6 86l122 -4l2 1088h-134zM147 1464q-4 18 -3.5 36.5t3.5 37.5q7 38 31 68t67 48q35 15 87 14h24q88 -36 110 -100q10 -29 10 -56q0 -34 -15 -66q-27 -58 -93 -90q-34 -17 -74 -17q-37 0 -80 15q-24 14 -42 44t-25 66z " />
<glyph unicode="j" horiz-adv-x="638" d="M-524 -446q4 86 38 161t90 129t117 69q20 5 39 5q41 0 79 -21q57 -31 93 -129q1 -9 1 -17q0 -55 -24 -98q-27 -49 -68 -78t-89 -39q-22 -5 -42 -5q-25 0 -47 7q-41 12 -66 45q-20 27 -20 69q0 11 1 22q-17 -52 -17 -98q0 -44 15 -84q30 -82 94 -139t148 -86 q70 -24 134 -24q14 0 27 1q77 6 135 48t70 128l8 1720v2h-112v78l492 6v-78h-82q10 -132 21 -287t16 -319q3 -91 3 -183q0 -73 -2 -147q-4 -166 -25 -319t-63 -287t-110 -234t-166 -158t-234 -62q-172 30 -271 94t-143 143q-40 72 -40 151v14zM139 1448q-3 18 -3 36.5 t3 37.5q7 38 31 68t67 48q35 15 87 15q12 0 24 -1q88 -36 110 -100q10 -29 10 -56q0 -34 -15 -66q-27 -58 -93 -90q-34 -17 -74 -17q-37 0 -80 15q-24 14 -42 44t-25 66z" />
<glyph unicode="k" horiz-adv-x="1376" d="M6 1556l8 82v4h650l6 -86h-176l16 -722l282 324h-42v104l328 -6v-104h-133h-44t3 0h10q-14 -10 -37 -38t-46 -59t-39 -56t-14 -27l432 -846h140v-104h-352v104h118l-402 800l-180 -228l4 -606h130v-82h-606v82q8 0 16 1t21 1t34 -1t57 -1l-24 1464h-160z" />
<glyph unicode="l" horiz-adv-x="596" d="M32 10v104h132l-2 1458l-84 4v104l392 -2l-14 -1564h90v-104h-514z" />
<glyph unicode="m" horiz-adv-x="2236" d="M16 1102v104q186 2 286 2h147t56 -1t13 -1v-104l-54 -4v-274q40 110 110 197t153 145t169 81q49 13 94 13q33 0 64 -7q72 -17 121 -80t59 -179q166 164 295 239t225 81q10 1 19 1q84 0 143 -49q66 -54 107 -149t60 -219t21 -259v-39q0 -116 -10 -231q-12 -135 -32 -251 l144 2v-104l-512 -4v104h98q7 50 7 141v23q-1 108 -13 232t-36 248t-62 216t-90 133q-26 20 -55 20q-30 0 -63 -21q-40 -26 -83 -62t-77 -80t-57 -95t-23 -105q-2 -62 -3 -140q0 -39 -0.5 -78.5t0.5 -78.5q1 -79 3 -152t8 -123l100 2v-104l-512 -4v104h72q6 42 14 111 t15 152t12 176q3 52 3 102q0 40 -2 80q-4 89 -19 169t-43 138q-112 -52 -183 -119t-115 -146t-64 -169t-30 -184t-13 -193t-13 -195l98 -4q2 -46 2 -61t-2 -43l-514 4v104h110l6 988h-154z" />
<glyph unicode="n" horiz-adv-x="1400" d="M18 -10v104h78l46 1114h-120v104l480 4v-104h-66v-238q40 68 101 136t134 120t151 78q45 15 88 15q32 0 63 -8q73 -19 137 -90t107 -213t60 -365q8 -108 8 -240q0 -139 -9 -305l100 2v-104l-484 -8v104h54q10 90 14 200q2 63 2 127q0 48 -1 98q-3 115 -13 227t-26 205 t-39 161t-51 94q-144 -58 -226 -159t-122 -240t-48 -318q-5 -102 -5 -216q0 -85 3 -177l78 2v-104z" />
<glyph unicode="o" horiz-adv-x="1352" d="M26 495q0 107 24 214t69 209t105 184t132 140t152 76q92 12 172 13q128 0 229 -32q163 -51 258 -153t125 -241q16 -73 16 -147q0 -67 -13 -135q-27 -143 -108 -275t-208 -223t-297 -125q-64 -13 -134 -13q-114 0 -242 35q-100 38 -161 110t-90 164t-29 199zM397 644 q1 -116 19 -223t53 -197t87 -146q104 2 180 56t124 138t69 191q18 90 18 181q0 17 -1 35q-4 109 -33 211t-81 178t-125 116q-52 29 -115 29q-25 0 -52 -5q-48 -54 -80 -144t-48 -197q-15 -101 -15 -209v-14z" />
<glyph unicode="p" horiz-adv-x="1416" d="M38 1208v104l434 4v-104h-60l-16 -272q182 158 333 224q140 61 252 61h17q118 -5 201 -68t129 -162t55 -220q2 -27 2 -53q0 -94 -25 -188q-32 -120 -106 -228t-191 -180t-280 -96q-54 -8 -114 -8q-119 0 -259 32l-28 -1144h94v-104l-434 -4v104l70 2l-4 2300h-70z M408 828l2 -688q0 -18 39 -27t89 -14t96 -5t58 2q92 28 156 106t101 179t47 214q4 40 4 79q0 69 -12 132q-18 98 -63 167t-117 85q-17 4 -36 4q-60 0 -136 -39q-100 -51 -228 -195z" />
<glyph unicode="q" horiz-adv-x="1250" d="M40 506q16 140 71 273t142 243t193 166q84 44 175 44q24 0 49 -3q118 -15 234 -131v132h-54l-4 84l394 -2l4 -76h-86l20 -2310h62v-104l-450 -8v104l74 2l12 1376q-24 -52 -69 -107t-103 -100t-123 -73t-131 -28q-166 2 -261 75t-130 188q-24 79 -24 170q0 41 5 85z M389 377q7 -107 40 -185t99 -96q14 -4 27 -4l77 29q52 39 98 111t83 169t57 199t21 200v7q0 94 -25 166q-26 75 -82 118q-45 35 -115 35q-16 0 -33 -2q-56 -22 -105 -102t-82 -188t-50 -229q-12 -86 -12 -164q0 -33 2 -64z" />
<glyph unicode="r" horiz-adv-x="1244" d="M44 1198v86l562 8v-86h-134l8 -434q22 36 51 94t66 123t84 129t109 110t140 66q39 10 83 10t93 -10q54 -12 81 -58t31 -106q1 -11 1 -23q0 -49 -14 -100q-17 -63 -52 -108t-85 -60q-15 -4 -30 -4q-37 0 -80 25q-60 36 -66 97q-1 11 -1 22q0 50 22 99q27 60 77 103 q48 41 99 41h5q-35 8 -68 8q-68 0 -128 -33q-90 -49 -163 -144t-127 -222t-85 -260t-39 -260q-2 -36 -2 -70q0 -84 14 -149l114 -2l2 -78l-556 -8l-2 78h106l-30 1116h-86z" />
<glyph unicode="s" horiz-adv-x="1148" d="M8 898q-9 40 -9 78q0 51 16 100q29 86 102 152t181 91q51 12 108 11q64 0 136 -14q136 -28 290 -132l8 60l74 2l8 -208l-90 6l-4 58q-12 14 -47 33t-83 37t-104 33t-106 23q-40 6 -74 6h-17q-41 -2 -61 -18q-32 -48 -47 -122q-11 -56 -11 -108q0 -17 1 -34q5 -68 29 -116 q23 -46 66 -46h4q125 20 227 20q92 0 165 -16q156 -34 240 -110t103 -180q6 -35 6 -69q0 -69 -25 -136q-38 -101 -127 -186t-218 -122q-78 -22 -169 -22q-59 0 -124 9q-164 24 -354 140l4 -70h-80l-4 280h80v-94q40 -48 105 -87t138 -59q61 -17 123 -16h25q75 4 136 43 t100 116t43 205q-6 98 -50 149t-109 73t-142 24t-148 2t-128 6t-81 38q-84 78 -106 170z" />
<glyph unicode="t" horiz-adv-x="1060" d="M-6 984v104h236l20 498l-88 2l4 72h496l-4 -72h-72l-16 -500h208v-104h-206q2 -124 2 -246t9 -224t30 -177t64 -106q27 -19 63 -19q22 0 49 7q69 19 173 105l-4 98h76l4 -272h-76v56q-212 -174 -354 -197q-25 -4 -48 -4q-109 0 -179 89q-85 108 -119 336q-32 215 -32 518 v36h-236z" />
<glyph unicode="u" horiz-adv-x="1340" d="M64 1208v104l520 4v-104l-70 -2q0 -94 -6 -205t-10 -223q-2 -50 -2 -98q0 -60 3 -119q5 -105 28 -187t71 -131t130 -51q22 10 50 77t56 167t54 217t45 227t29 198q7 63 7 102q0 16 -1 28h-128v104l464 4v-104l-68 -2v-1110h72v-88q-67 -5 -116 -5q-25 0 -46 1 q-62 4 -97 26t-49 65t-18 112t-5 165t-11 224q-8 -76 -32 -162t-57 -163t-74 -136t-83 -81q-126 -56 -219 -56q-13 0 -26 1q-101 9 -166 76t-100 183t-48 265q-10 114 -10 242q0 39 1 80q4 173 16 355h-104z" />
<glyph unicode="v" horiz-adv-x="1248" d="M20 1196v104l512 4v-104l-92 -2l340 -934l212 940l-140 -4v104l372 8v-104l-134 -6l-236 -1094h114v-104l-472 4v104h84l-478 1084h-82z" />
<glyph unicode="w" horiz-adv-x="1732" d="M14 1146v104l476 4v-104l-94 -2l318 -598l108 464l88 4l256 -608l190 756h-66v104l424 4v-104l-98 -2l-282 -1154l-84 -6l-380 804l-228 -796h-68l-478 1130h-82z" />
<glyph unicode="x" horiz-adv-x="1416" d="M20 1204l4 100l458 8v-104h-52l298 -376l326 374h-160v104l488 4v-104l-212 -2l-392 -438l502 -660l106 4v-104l-654 -6v104h144l-296 430l-336 -430l218 2v-104l-440 -8v104l136 6l378 502l-408 592l-104 -2z" />
<glyph unicode="y" horiz-adv-x="1398" d="M-51 -439q-1 17 -1 34q0 82 28 164q34 99 106 167q80 76 146 96q36 11 66 11q25 0 47 -8q47 -17 75 -60t33 -91q1 -10 1 -21q0 -37 -14 -71q-18 -44 -62 -61q-21 -8 -50 -8t-67 9q-73 18 -175 92q-35 -118 -35 -207q0 -47 10 -86q29 -111 108 -153q50 -26 112 -26 q37 0 78 9q111 25 218 113t192 238t115 360l-708 1144l-140 2v104l512 4v-104l-246 -2l616 -998l52 1010h-106v104h508v-104l-106 8q-6 -178 -10 -369t-15 -382t-36 -372t-72 -337t-124 -278t-192 -194t-275 -87q-32 -3 -66 -3q-137 0 -310 48q-102 38 -154 122t-59 183z " />
<glyph unicode="z" horiz-adv-x="1286" d="M50 82l480 606h-136v70l212 12l368 450q-58 -28 -130 -46t-148 -28t-148 -14q-58 -3 -105 -3h-23q-56 1 -91 4t-35 9v-84h-68v252h68v-68q79 -23 168 -23h7q93 1 188 13t189 32t178 32t156 13h6q68 0 116 -23l-348 -512l180 -6l-1 -12t-3 -27t-3 -27t-1 -14l-226 4 q-10 -14 -39 -54t-68 -92t-84 -111t-84 -112t-68 -93t-37 -54q36 -22 123 -41t187 -25q32 -2 62 -2q66 0 128 9q90 13 132 55l-6 102h84l6 -258h-84l-6 66q-110 -52 -208 -58q-28 -2 -55 -2q-68 0 -132 11q-89 15 -172 39t-163 32q-23 2 -46 2q-57 0 -112 -14 q-78 -20 -158 -92z" />
<glyph unicode="{" horiz-adv-x="1004" d="M126 592l14 112q8 4 37 6t70 10t88 24t90 46t76 76t47 114q-12 56 -44 92t-71 66t-79 60t-67 72t-37 104t12 158q18 74 71 121t122 71t146 29t143 -5l22 -62q-72 16 -133 -2t-105 -59t-68 -99t-21 -124t35 -134t100 -126q62 -84 68 -154t-29 -128t-102 -106t-147 -90 q94 -14 146 -65t76 -123t29 -155t7 -161t9 -140t37 -92t88 -20t164 80l42 -36q-18 -38 -59 -83t-93 -84t-109 -63t-109 -19t-93 46t-59 133q-16 76 -10 164t14 173t9 161t-28 129t-99 77t-200 6z" />
<glyph unicode="|" horiz-adv-x="582" d="M34 -16h132l-4 1588l-84 4v104l484 -2v-106h-94l-10 -1588h90v-104h-514v104z" />
<glyph unicode="}" horiz-adv-x="1008" d="M62 -68l48 38q116 -70 181 -81t97 20t40 94t10 142t8 163t32 157t83 125t161 66q-88 42 -161 91t-112 108t-33 130t76 157q74 60 110 128t39 135t-23 127t-75 101t-117 59t-148 2l26 64q74 10 158 5t160 -29t134 -72t78 -124q24 -96 14 -160t-40 -107t-74 -73t-87 -60 t-78 -67t-49 -93q14 -70 51 -116t84 -76t99 -47t97 -25t78 -11t41 -7l16 -112q-144 18 -220 -7t-109 -79t-33 -131t10 -163t16 -175t-12 -167q-20 -94 -65 -135t-102 -46t-121 19t-121 63t-102 85t-65 84z" />
<glyph unicode="~" horiz-adv-x="962" d="M34 710q-2 8 15 47t47 87t71 96t89 73t99 16t103 -73q74 -102 137 -129t117 -4t100 79t84 120l38 -48q-36 -116 -113 -199t-167 -104t-180 35t-154 218q-46 16 -77 -11t-52 -70t-38 -85t-35 -56z" />
<glyph unicode="&#xa1;" horiz-adv-x="698" d="M65 930h161l25 -908h-171v-121h585v121h-151l-31 908h167v121h-585v-121zM190.5 1348q-4.5 -34 9.5 -63t44 -51t65.5 -33t71 -11t63.5 16q25 26 27 59.5t-13 66t-43 60t-60.5 41.5t-66 12.5t-60.5 -27.5q-33 -36 -37.5 -70z" />
<glyph unicode="&#xa3;" horiz-adv-x="1282" d="M48 922h176q-4 130 30 251t93 214t135 149t157 54t161 -72t146 -226q12 -78 -16 -114t-71 -42t-86 14t-62 53t0 74t103 79q-8 46 -38 81t-67 44t-79 -12t-75 -85t-53 -178t-14 -288h154l-4 -104h-160q-4 -88 -18 -181t-36 -178t-51 -157t-63 -116q60 4 106 -8t89 -30 t88 -36t101 -26t129 -1t171 41l39 13t31 17q-36 106 -19 159t56 66t84 -7t66 -61t2 -95t-109 -108q-78 -48 -157 -77t-165 -37t-179 10t-197 66q-88 30 -144 26t-95 -24t-68 -46t-63 -36q0 2 -5 14t-9 27t-7 27l-3 12q34 26 78 58t81 83t59 125t16 186q0 16 -8 58t-17 91 t-18 94t-11 69h-178z" />
<glyph unicode="&#xa8;" horiz-adv-x="862" d="M73 1531q15 61 55 97t94 46t100 -5t71 -57t9 -112q-12 -54 -48 -95t-83 -61t-95 -12t-84 54q-34 84 -19 145zM477 1537q15 61 55 97t94 46t100 -5t71 -57t9 -112q-12 -54 -48 -95t-83 -61t-95 -12t-84 54q-34 84 -19 145z" />
<glyph unicode="&#xad;" horiz-adv-x="926" d="M104 602v336l78 -4l-4 -78l584 4l2 70l80 4l4 -320l-80 -4l-6 50l-584 4l4 -66z" />
<glyph unicode="&#xaf;" horiz-adv-x="926" d="M62 1372v272l78 -4l-4 -38l584 4l2 30l80 4l4 -256l-80 -4l-6 26l-584 4l4 -42z" />
<glyph unicode="&#xb4;" horiz-adv-x="470" d="M42 1554l302 240l70 -162l-312 -256z" />
<glyph unicode="&#xb8;" horiz-adv-x="694" d="M174 -438q30 -48 83 -80t105 -26t92 60t42 180q-2 64 -23 98t-53 48t-69 16t-71 1t-61 4t-39 25q-6 26 -3 55t9 54t11 47t3 34l94 -26q4 -58 -3 -89t15 -33q114 26 189 3t116 -73t50 -119t-9 -136t-61 -123t-105 -80t-141 -8t-171 92v76z" />
<glyph unicode="&#xbf;" horiz-adv-x="962" d="M-87.5 342q-14.5 78 16 156.5t111.5 152t224 132.5l18 262h-65v70h335v-70h-57l4 -259q-4 -30 -36 -49t-76 -33t-95 -27t-94.5 -35t-73.5 -54t-34 -85q-5 -86 9 -155t42.5 -121t68.5 -89.5t86 -64.5q83 -49 156 -49t134.5 29.5t105.5 77.5t66.5 95t21 84t-33.5 42 q-61 -69 -112.5 -90t-88.5 -10.5t-55.5 43.5t-16 70.5t30 70.5t84.5 45q65 13 117 -2t85 -49t43.5 -83t-6.5 -104q-40 -121 -106 -190.5t-146 -99t-166.5 -22t-168.5 41.5t-152.5 91.5t-115.5 128.5t-59.5 149zM238.5 1267.5q-25.5 43.5 0.5 111.5q27 34 67.5 62t86.5 41.5 t90 6t76 -47.5q45 -75 31 -129t-58 -83t-106.5 -35t-112 12t-75 61.5z" />
<glyph unicode="&#xc0;" d="M28 6l6 88h114l682 1446l-162 -12l-6 82l526 12l324 -1540l138 -4h2v-76l-636 -12v76l124 6l-92 630l-522 -22l-296 -580h130v-82zM570 792l462 16l-98 712zM726 1896l66 190l290 -196l-58 -208z" />
<glyph unicode="&#xc1;" d="M28 6l6 88h114l682 1446l-162 -12l-6 82l526 12l324 -1540l138 -4h2v-76l-636 -12v76l124 6l-92 630l-522 -22l-296 -580h130v-82zM570 792l462 16l-98 712zM810 1834l302 240l70 -162l-312 -256z" />
<glyph unicode="&#xc2;" d="M28 6l6 88h114l682 1446l-162 -12l-6 82l526 12l324 -1540l138 -4h2v-76l-636 -12v76l124 6l-92 630l-522 -22l-296 -580h130v-82zM554 1734l326 344l246 8l192 -376h-84l-156 262l-270 -254zM570 792l462 16l-98 712z" />
<glyph unicode="&#xc3;" d="M28 6l6 88h114l682 1446l-162 -12l-6 82l526 12l324 -1540l138 -4h2v-76l-636 -12v76l124 6l-92 630l-522 -22l-296 -580h130v-82zM494 1720q0 8 16 47t46 87t71 96t89 73t99 16t103 -73q74 -102 137 -129t117 -4t100 79t84 120l38 -48q-36 -116 -113 -199t-167 -104 t-180 35t-154 218q-46 16 -77 -11t-52 -70t-38 -85t-35 -56zM570 792l462 16l-98 712z" />
<glyph unicode="&#xc4;" d="M28 6l6 88h114l682 1446l-162 -12l-6 82l526 12l324 -1540l138 -4h2v-76l-636 -12v76l124 6l-92 630l-522 -22l-296 -580h130v-82zM570 792l462 16l-98 712zM607 1879q15 61 55 97t94 46t100 -5t71 -57t9 -112q-12 -54 -48 -95t-83 -61t-95 -12t-84 54q-34 84 -19 145z M1011 1885q15 61 55 97t94 46t100 -5t71 -57t9 -112q-12 -54 -48 -95t-83 -61t-95 -12t-84 54q-34 84 -19 145z" />
<glyph unicode="&#xc5;" d="M28 6l6 88h114l682 1446l-162 -12l-6 82l526 12l324 -1540l138 -4h2v-76l-636 -12v76l124 6l-92 630l-522 -22l-296 -580h130v-82zM570 792l462 16l-98 712zM612 1812q-20 54 2 105t76 91t125 55t149 -4t150 -85q46 -44 48 -88t-26 -82t-79 -68t-111 -44t-123 -10 t-115 34q-76 42 -96 96zM755 1834q-1 -28 59 -58q36 -18 78 -19t81 10t70 34t41 53q14 40 -17 58t-81 20t-106 -12t-90 -36t-35 -50z" />
<glyph unicode="&#xc6;" horiz-adv-x="2036" d="M28 6l6 88l54 6l786 1434l-124 -6l4 70l1016 12l22 14h90l8 -262h-90l-4 140h-554l-10 -666l186 4v72h72v-236h-72v78q-24 0 -53 -2t-56 -3t-49 -2t-30 -1v-650l622 18l-4 130l90 -4l4 -262l-90 4v40l-956 -34v76l100 6l20 626l-490 -16l-296 -580h130v-82zM570 792 l430 10l10 704z" />
<glyph unicode="&#xc7;" horiz-adv-x="1222" d="M74 739q12 157 59 307t123 279t173 214t210 113t235 -26q42 -20 96 -43t90 -53v130l86 2v-384l-86 -2v160q-30 32 -82 60t-109 48t-109 27t-84 -5q-76 -76 -126 -196t-74 -259t-21 -284t30 -271t80 -221t130 -132t179 -5t228 158v110h70v-286h-70v48q-66 -60 -150 -114 t-176 -87t-187 -37t-181 32q-132 56 -209 168t-107 252t-18 297zM554 -444q30 -48 83 -80t105 -26t92 60t42 180q-2 64 -23 98t-53 48t-69 16t-71 1t-61 4t-39 25q-6 26 -3 55t9 54t11 47t3 34l94 -26q4 -58 -3 -89t15 -33q114 26 189 3t116 -73t50 -119t-9 -136t-61 -123 t-105 -80t-141 -8t-171 92v76z" />
<glyph unicode="&#xc8;" horiz-adv-x="1140" d="M60 38l12 1576l860 4l-4 58h90l8 -290h-90l-4 140h-554l-10 -666l186 4v72h72v-236h-72v78q-24 0 -53 -2t-56 -3t-49 -2t-30 -1l-16 -632h638l-4 130l90 -4l4 -262l-90 4v40zM392 1892l66 190l290 -196l-58 -208z" />
<glyph unicode="&#xc9;" horiz-adv-x="1140" d="M60 38l12 1576l860 4l-4 58h90l8 -290h-90l-4 140h-554l-10 -666l186 4v72h72v-236h-72v78q-24 0 -53 -2t-56 -3t-49 -2t-30 -1l-16 -632h638l-4 130l90 -4l4 -262l-90 4v40zM384 1900l302 240l70 -162l-312 -256z" />
<glyph unicode="&#xca;" horiz-adv-x="1140" d="M60 38l12 1576l860 4l-4 58h90l8 -290h-90l-4 140h-554l-10 -666l186 4v72h72v-236h-72v78q-24 0 -53 -2t-56 -3t-49 -2t-30 -1l-16 -632h638l-4 130l90 -4l4 -262l-90 4v40zM188 1738l326 344l246 8l192 -376h-84l-156 262l-270 -254z" />
<glyph unicode="&#xcb;" horiz-adv-x="1140" d="M60 38l12 1576l860 4l-4 58h90l8 -290h-90l-4 140h-554l-10 -666l186 4v72h72v-236h-72v78q-24 0 -53 -2t-56 -3t-49 -2t-30 -1l-16 -632h638l-4 130l90 -4l4 -262l-90 4v40zM227 1877q15 61 55 97t94 46t100 -5t71 -57t9 -112q-12 -54 -48 -95t-83 -61t-95 -12t-84 54 q-34 84 -19 145zM631 1883q15 61 55 97t94 46t100 -5t71 -57t9 -112q-12 -54 -48 -95t-83 -61t-95 -12t-84 54q-34 84 -19 145z" />
<glyph unicode="&#xcc;" horiz-adv-x="1208" d="M76 1566v80l1096 4l-8 -86l-452 4v-1458l460 12v-102l-1090 -6v80l360 8l-2 1464h-364zM426 1892l66 190l290 -196l-58 -208z" />
<glyph unicode="&#xcd;" horiz-adv-x="1208" d="M76 1566v80l1096 4l-8 -86l-452 4v-1458l460 12v-102l-1090 -6v80l360 8l-2 1464h-364zM418 1900l302 240l70 -162l-312 -256z" />
<glyph unicode="&#xce;" horiz-adv-x="1208" d="M76 1566v80l1096 4l-8 -86l-452 4v-1458l460 12v-102l-1090 -6v80l360 8l-2 1464h-364zM222 1738l326 344l246 8l192 -376h-84l-156 262l-270 -254z" />
<glyph unicode="&#xcf;" horiz-adv-x="1208" d="M76 1566v80l1096 4l-8 -86l-452 4v-1458l460 12v-102l-1090 -6v80l360 8l-2 1464h-364zM261 1877q15 61 55 97t94 46t100 -5t71 -57t9 -112q-12 -54 -48 -95t-83 -61t-95 -12t-84 54q-34 84 -19 145zM665 1883q15 61 55 97t94 46t100 -5t71 -57t9 -112q-12 -54 -48 -95 t-83 -61t-95 -12t-84 54q-34 84 -19 145z" />
<glyph unicode="&#xd0;" horiz-adv-x="1302" d="M20 -58l10 218l62 -2l-4 -76l148 -4l10 660l-108 2l4 -42l-78 4v272l78 -4l-4 -38h112l10 612l-126 -30l-4 -70l-64 2l10 200l64 -2l-4 -52q204 54 389 52t333 -59t250 -166t142 -267t9 -362t-151 -452q-110 -130 -239 -201t-263 -102t-268 -32t-254 7l-2 -70zM614 1538 l16 -604l92 2l2 30l80 4l4 -256l-80 -4l-6 26h-86l18 -586q110 12 203 78t162 168t110 228t50 254t-18 250t-94 215t-179 147t-274 48z" />
<glyph unicode="&#xd1;" horiz-adv-x="1646" d="M46 4v108h78l4 1420h-82v108l558 4v-108l-128 -2l732 -1386l14 1384h-124v108l498 4v-108l-114 -2l-12 -1440l126 2v-108l-494 -6v108h36l-694 1330l12 -1292q2 -4 3 -7t3 -7l142 2v-108zM374 1726q0 8 16 47t46 87t71 96t89 73t99 16t103 -73q74 -102 137 -129t117 -4 t100 79t84 120l38 -48q-36 -116 -113 -199t-167 -104t-180 35t-154 218q-46 16 -77 -11t-52 -70t-38 -85t-35 -56z" />
<glyph unicode="&#xd2;" horiz-adv-x="1670" d="M50 835q4 159 56 304t148 264t226 187t290 73t342 -77q176 -92 292 -219t177 -270t68 -291t-35 -283t-131 -247t-222 -182t-307 -88t-386 36q-186 80 -301 208t-168 277t-49 308zM511 964q-7 -148 22 -291t90 -259t151 -195t206 -97q108 14 176 90t102 188t37 246 t-16 266t-58 247t-89 189q-26 48 -84 97t-125 79t-132 31t-105 -47q-82 -114 -125 -255t-50 -289zM656 1900l66 190l290 -196l-58 -208z" />
<glyph unicode="&#xd3;" horiz-adv-x="1670" d="M50 835q4 159 56 304t148 264t226 187t290 73t342 -77q176 -92 292 -219t177 -270t68 -291t-35 -283t-131 -247t-222 -182t-307 -88t-386 36q-186 80 -301 208t-168 277t-49 308zM511 964q-7 -148 22 -291t90 -259t151 -195t206 -97q108 14 176 90t102 188t37 246 t-16 266t-58 247t-89 189q-26 48 -84 97t-125 79t-132 31t-105 -47q-82 -114 -125 -255t-50 -289zM648 1900l302 240l70 -162l-312 -256z" />
<glyph unicode="&#xd4;" horiz-adv-x="1670" d="M50 835q4 159 56 304t148 264t226 187t290 73t342 -77q176 -92 292 -219t177 -270t68 -291t-35 -283t-131 -247t-222 -182t-307 -88t-386 36q-186 80 -301 208t-168 277t-49 308zM452 1738l326 344l246 8l192 -376h-84l-156 262l-270 -254zM511 964q-7 -148 22 -291 t90 -259t151 -195t206 -97q108 14 176 90t102 188t37 246t-16 266t-58 247t-89 189q-26 48 -84 97t-125 79t-132 31t-105 -47q-82 -114 -125 -255t-50 -289z" />
<glyph unicode="&#xd5;" horiz-adv-x="1670" d="M50 835q4 159 56 304t148 264t226 187t290 73t342 -77q176 -92 292 -219t177 -270t68 -291t-35 -283t-131 -247t-222 -182t-307 -88t-386 36q-186 80 -301 208t-168 277t-49 308zM386 1726q0 8 16 47t46 87t71 96t89 73t99 16t103 -73q74 -102 137 -129t117 -4t100 79 t84 120l38 -48q-36 -116 -113 -199t-167 -104t-180 35t-154 218q-46 16 -77 -11t-52 -70t-38 -85t-35 -56zM511 964q-7 -148 22 -291t90 -259t151 -195t206 -97q108 14 176 90t102 188t37 246t-16 266t-58 247t-89 189q-26 48 -84 97t-125 79t-132 31t-105 -47 q-82 -114 -125 -255t-50 -289z" />
<glyph unicode="&#xd6;" horiz-adv-x="1670" d="M50 835q4 159 56 304t148 264t226 187t290 73t342 -77q176 -92 292 -219t177 -270t68 -291t-35 -283t-131 -247t-222 -182t-307 -88t-386 36q-186 80 -301 208t-168 277t-49 308zM491 1877q15 61 55 97t94 46t100 -5t71 -57t9 -112q-12 -54 -48 -95t-83 -61t-95 -12 t-84 54q-34 84 -19 145zM511 964q-7 -148 22 -291t90 -259t151 -195t206 -97q108 14 176 90t102 188t37 246t-16 266t-58 247t-89 189q-26 48 -84 97t-125 79t-132 31t-105 -47q-82 -114 -125 -255t-50 -289zM895 1883q15 61 55 97t94 46t100 -5t71 -57t9 -112 q-12 -54 -48 -95t-83 -61t-95 -12t-84 54q-34 84 -19 145z" />
<glyph unicode="&#xd8;" horiz-adv-x="1670" d="M50 835q4 159 56 304t148 264t226 187t290 73t342 -77q176 -92 292 -219t177 -270t68 -291t-35 -283t-131 -247t-222 -182t-307 -88t-386 36q-186 80 -301 208t-168 277t-49 308zM511 964q-7 -148 22 -291t90 -259t151 -195t206 -97q108 14 176 90t102 188t37 246 t-16 266t-58 247t-89 189q-26 48 -84 97t-125 79t-132 31t-105 -47q-82 -114 -125 -255t-50 -289zM611 -60l93 10l595 1733l-126 5l14 84l345 5l5 -113h-104l-570 -1736h129l6 -113l-381 12z" />
<glyph unicode="&#xd9;" horiz-adv-x="1664" d="M44 1530v92h600v-92h-130q-16 -108 -24 -240t-5 -269t20 -271t49 -247t82 -198t119 -123t160 -22t205 104q78 88 122 202t66 237t27 248t2 237t-9 202t-4 144l-228 -4v92h600v-92l-248 12q26 -264 28 -493t-29 -413t-101 -319t-191 -212t-299 -91t-424 44q-58 44 -105 97 t-83 130t-58 182t-31 254t-2 348t31 461h-140zM654 1892l66 190l290 -196l-58 -208z" />
<glyph unicode="&#xda;" horiz-adv-x="1664" d="M44 1530v92h600v-92h-130q-16 -108 -24 -240t-5 -269t20 -271t49 -247t82 -198t119 -123t160 -22t205 104q78 88 122 202t66 237t27 248t2 237t-9 202t-4 144l-228 -4v92h600v-92l-248 12q26 -264 28 -493t-29 -413t-101 -319t-191 -212t-299 -91t-424 44q-58 44 -105 97 t-83 130t-58 182t-31 254t-2 348t31 461h-140zM646 1900l302 240l70 -162l-312 -256z" />
<glyph unicode="&#xdb;" horiz-adv-x="1664" d="M44 1530v92h600v-92h-130q-16 -108 -24 -240t-5 -269t20 -271t49 -247t82 -198t119 -123t160 -22t205 104q78 88 122 202t66 237t27 248t2 237t-9 202t-4 144l-228 -4v92h600v-92l-248 12q26 -264 28 -493t-29 -413t-101 -319t-191 -212t-299 -91t-424 44q-58 44 -105 97 t-83 130t-58 182t-31 254t-2 348t31 461h-140zM450 1738l326 344l246 8l192 -376h-84l-156 262l-270 -254z" />
<glyph unicode="&#xdc;" horiz-adv-x="1664" d="M44 1530v92h600v-92h-130q-16 -108 -24 -240t-5 -269t20 -271t49 -247t82 -198t119 -123t160 -22t205 104q78 88 122 202t66 237t27 248t2 237t-9 202t-4 144l-228 -4v92h600v-92l-248 12q26 -264 28 -493t-29 -413t-101 -319t-191 -212t-299 -91t-424 44q-58 44 -105 97 t-83 130t-58 182t-31 254t-2 348t31 461h-140zM489 1877q15 61 55 97t94 46t100 -5t71 -57t9 -112q-12 -54 -48 -95t-83 -61t-95 -12t-84 54q-34 84 -19 145zM893 1883q15 61 55 97t94 46t100 -5t71 -57t9 -112q-12 -54 -48 -95t-83 -61t-95 -12t-84 54q-34 84 -19 145z" />
<glyph unicode="&#xdd;" horiz-adv-x="1676" d="M48 1568v86h454v-86h-146l642 -618l236 618h-40v86h454v-86h-106l-498 -1446h64v-110h-526v110h98l280 746l-718 700h-194zM652 1900l302 240l70 -162l-312 -256z" />
<glyph unicode="&#xde;" horiz-adv-x="1416" d="M38 1416v104l434 4v-104h-60l-16 -480q182 158 333 224t269 61t201 -68t129 -162t55 -220t-23 -241t-106 -228t-191 -180t-280 -96t-373 24l-28 -526h94v-104l-434 -4v104l70 2l-4 1890h-70zM408 828l2 -688q0 -18 39 -27t89 -14t96 -5t58 2q92 28 156 106t101 179 t47 214t-8 211t-63 167t-117 85t-172 -35t-228 -195z" />
<glyph unicode="&#xdf;" horiz-adv-x="1142" d="M44 -124h54q2 78 2 219v312t-3 355t-5 352t-6 301t-8 203q220 32 374 27t254 -37t152 -83t68 -111t4 -121t-40 -113t-67 -87t-75 -41q168 -84 247 -186t92 -208t-31 -208t-124 -188t-185 -148t-213 -88l-8 134q56 -6 129 25t140 86t117 131t61 164t-27 181t-146 183 q-46 40 -121 55t-145 7l-10 88q66 16 130 39t94 45q78 58 93 112t-12 102t-87 87t-131 65t-144 36t-127 0l40 -1690h36v-86h-372v86z" />
<glyph unicode="&#xe0;" horiz-adv-x="1440" d="M24 174q-16 70 9 141t84 140t138 131t172 114t186 90t179 59t152 19q14 96 -7 179t-74 128t-136 40t-193 -81q-6 -4 12 -29t37 -63t30 -84t-6 -90t-72 -82t-169 -60q-80 0 -127 39t-55 97t27 128t119 133t219 111t327 62q150 12 233 -28t124 -120t49 -195t7 -255t2 -300 t31 -330l96 2l-4 -74l-574 -2l4 74h98l2 218q-44 -38 -109 -84t-140 -90t-156 -79t-158 -49t-148 -3t-123 59q-70 64 -86 134zM375 419q7 -71 69 -155q38 -28 66 -46t55 -25t56 -1t72 29t103 63t148 100v394q-72 -2 -154 -17t-158 -44t-139 -72t-94 -99t-24 -127zM542 1546 l66 190l290 -196l-58 -208z" />
<glyph unicode="&#xe1;" horiz-adv-x="1440" d="M24 174q-16 70 9 141t84 140t138 131t172 114t186 90t179 59t152 19q14 96 -7 179t-74 128t-136 40t-193 -81q-6 -4 12 -29t37 -63t30 -84t-6 -90t-72 -82t-169 -60q-80 0 -127 39t-55 97t27 128t119 133t219 111t327 62q150 12 233 -28t124 -120t49 -195t7 -255t2 -300 t31 -330l96 2l-4 -74l-574 -2l4 74h98l2 218q-44 -38 -109 -84t-140 -90t-156 -79t-158 -49t-148 -3t-123 59q-70 64 -86 134zM375 419q7 -71 69 -155q38 -28 66 -46t55 -25t56 -1t72 29t103 63t148 100v394q-72 -2 -154 -17t-158 -44t-139 -72t-94 -99t-24 -127zM534 1554 l302 240l70 -162l-312 -256z" />
<glyph unicode="&#xe2;" horiz-adv-x="1440" d="M24 174q-16 70 9 141t84 140t138 131t172 114t186 90t179 59t152 19q14 96 -7 179t-74 128t-136 40t-193 -81q-6 -4 12 -29t37 -63t30 -84t-6 -90t-72 -82t-169 -60q-80 0 -127 39t-55 97t27 128t119 133t219 111t327 62q150 12 233 -28t124 -120t49 -195t7 -255t2 -300 t31 -330l96 2l-4 -74l-574 -2l4 74h98l2 218q-44 -38 -109 -84t-140 -90t-156 -79t-158 -49t-148 -3t-123 59q-70 64 -86 134zM338 1392l326 344l246 8l192 -376h-84l-156 262l-270 -254zM375 419q7 -71 69 -155q38 -28 66 -46t55 -25t56 -1t72 29t103 63t148 100v394 q-72 -2 -154 -17t-158 -44t-139 -72t-94 -99t-24 -127z" />
<glyph unicode="&#xe3;" horiz-adv-x="1440" d="M24 174q-16 70 9 141t84 140t138 131t172 114t186 90t179 59t152 19q14 96 -7 179t-74 128t-136 40t-193 -81q-6 -4 12 -29t37 -63t30 -84t-6 -90t-72 -82t-169 -60q-80 0 -127 39t-55 97t27 128t119 133t219 111t327 62q150 12 233 -28t124 -120t49 -195t7 -255t2 -300 t31 -330l96 2l-4 -74l-574 -2l4 74h98l2 218q-44 -38 -109 -84t-140 -90t-156 -79t-158 -49t-148 -3t-123 59q-70 64 -86 134zM272 1380q0 8 16 47t46 87t71 96t89 73t99 16t103 -73q74 -102 137 -129t117 -4t100 79t84 120l38 -48q-36 -116 -113 -199t-167 -104t-180 35 t-154 218q-46 16 -77 -11t-52 -70t-38 -85t-35 -56zM375 419q7 -71 69 -155q38 -28 66 -46t55 -25t56 -1t72 29t103 63t148 100v394q-72 -2 -154 -17t-158 -44t-139 -72t-94 -99t-24 -127z" />
<glyph unicode="&#xe4;" horiz-adv-x="1440" d="M24 174q-16 70 9 141t84 140t138 131t172 114t186 90t179 59t152 19q14 96 -7 179t-74 128t-136 40t-193 -81q-6 -4 12 -29t37 -63t30 -84t-6 -90t-72 -82t-169 -60q-80 0 -127 39t-55 97t27 128t119 133t219 111t327 62q150 12 233 -28t124 -120t49 -195t7 -255t2 -300 t31 -330l96 2l-4 -74l-574 -2l4 74h98l2 218q-44 -38 -109 -84t-140 -90t-156 -79t-158 -49t-148 -3t-123 59q-70 64 -86 134zM375 419q7 -71 69 -155q38 -28 66 -46t55 -25t56 -1t72 29t103 63t148 100v394q-72 -2 -154 -17t-158 -44t-139 -72t-94 -99t-24 -127zM377 1531 q15 61 55 97t94 46t100 -5t71 -57t9 -112q-12 -54 -48 -95t-83 -61t-95 -12t-84 54q-34 84 -19 145zM781 1537q15 61 55 97t94 46t100 -5t71 -57t9 -112q-12 -54 -48 -95t-83 -61t-95 -12t-84 54q-34 84 -19 145z" />
<glyph unicode="&#xe5;" horiz-adv-x="1440" d="M24 174q-16 70 9 141t84 140t138 131t172 114t186 90t179 59t152 19q14 96 -7 179t-74 128t-136 40t-193 -81q-6 -4 12 -29t37 -63t30 -84t-6 -90t-72 -82t-169 -60q-80 0 -127 39t-55 97t27 128t119 133t219 111t327 62q150 12 233 -28t124 -120t49 -195t7 -255t2 -300 t31 -330l96 2l-4 -74l-574 -2l4 74h98l2 218q-44 -38 -109 -84t-140 -90t-156 -79t-158 -49t-148 -3t-123 59q-70 64 -86 134zM375 419q7 -71 69 -155q38 -28 66 -46t55 -25t56 -1t72 29t103 63t148 100v394q-72 -2 -154 -17t-158 -44t-139 -72t-94 -99t-24 -127zM484 1466 q-20 54 2 105t76 91t125 55t149 -4t150 -85q46 -44 48 -88t-26 -82t-79 -68t-111 -44t-123 -10t-115 34q-76 42 -96 96zM627 1488q-1 -28 59 -58q36 -18 78 -19t81 10t70 34t41 53q14 40 -17 58t-81 20t-106 -12t-90 -36t-35 -50z" />
<glyph unicode="&#xe6;" horiz-adv-x="2440" d="M24 174q-16 70 9 141t84 140t138 131t172 114t186 90t179 59t152 19q14 96 -7 179t-74 128t-136 40t-193 -81q-6 -4 12 -29t37 -63t30 -84t-6 -90t-72 -82t-169 -60q-80 0 -127 39t-55 97t27 128t119 133t219 111t327 62q126 10 204 -17t123 -83t62 -140t21 -188 q60 126 153 226t209 154q192 46 321 29t210 -84t121 -177t50 -252l-720 -82q-12 -38 -12 -96t8 -122t21 -129t28 -116t29 -83t26 -30q60 -6 133 6t146 37t140 61t113 76l-4 92l104 -2l4 -310l-104 2l-4 72q-102 -58 -211 -97t-217 -53t-210 2t-190 72q-72 50 -124 120 q4 -28 7 -58t9 -58l96 2l-4 -74l-574 -2l4 74h98l2 218q-44 -38 -109 -84t-140 -90t-156 -79t-158 -49t-148 -3t-123 59q-70 64 -86 134zM375 419q7 -71 69 -155q38 -28 66 -46t55 -25t56 -1t72 29t103 63t148 100v394q-72 -2 -154 -17t-158 -44t-139 -72t-94 -99t-24 -127z M1630 776l388 44l-64 312q-8 38 -51 45t-92 -2t-89 -27t-42 -30q-4 -2 -9 -27t-11 -61t-11 -79t-10 -80t-7 -64t-2 -31z" />
<glyph unicode="&#xe7;" horiz-adv-x="1114" d="M40 451q-12 121 15 250t85 245t144 206t193 133t231 26t256 -115v108h74v-374h-74v92q-22 38 -58 75t-84 60t-107 28t-127 -17q-28 -44 -57 -129t-49 -190t-28 -217t2 -211t43 -173t95 -102q8 -4 51 4t104 32t132 67t135 113v106l76 2v-288h-76v76q-76 -82 -166 -139 t-187 -84t-197 -20t-198 55q-106 58 -161 159t-67 222zM518 -428q30 -48 83 -80t105 -26t92 60t42 180q-2 64 -23 98t-53 48t-69 16t-71 1t-61 4t-39 25q-6 26 -3 55t9 54t11 47t3 34l94 -26q4 -58 -3 -89t15 -33q114 26 189 3t116 -73t50 -119t-9 -136t-61 -123t-105 -80 t-141 -8t-171 92v76z" />
<glyph unicode="&#xe8;" horiz-adv-x="1236" d="M28 494q-10 116 19 235t89 226t146 192t188 133q192 46 321 29t210 -84t121 -177t50 -252l-720 -82q-12 -38 -12 -96t8 -122t21 -129t28 -116t29 -83t26 -30q60 -6 133 6t146 37t140 61t113 76l-4 92l104 -2l4 -310l-104 2l-4 72q-102 -58 -211 -97t-217 -53t-210 2 t-190 72q-106 74 -160 178t-64 220zM440 1546l66 190l290 -196l-58 -208zM452 808l388 44l-64 312q-8 38 -51 45t-92 -2t-89 -27t-42 -30q-4 -2 -9 -27t-11 -61t-11 -79t-10 -80t-7 -64t-2 -31z" />
<glyph unicode="&#xe9;" horiz-adv-x="1236" d="M28 494q-10 116 19 235t89 226t146 192t188 133q192 46 321 29t210 -84t121 -177t50 -252l-720 -82q-12 -38 -12 -96t8 -122t21 -129t28 -116t29 -83t26 -30q60 -6 133 6t146 37t140 61t113 76l-4 92l104 -2l4 -310l-104 2l-4 72q-102 -58 -211 -97t-217 -53t-210 2 t-190 72q-106 74 -160 178t-64 220zM432 1554l302 240l70 -162l-312 -256zM452 808l388 44l-64 312q-8 38 -51 45t-92 -2t-89 -27t-42 -30q-4 -2 -9 -27t-11 -61t-11 -79t-10 -80t-7 -64t-2 -31z" />
<glyph unicode="&#xea;" horiz-adv-x="1236" d="M28 494q-10 116 19 235t89 226t146 192t188 133q192 46 321 29t210 -84t121 -177t50 -252l-720 -82q-12 -38 -12 -96t8 -122t21 -129t28 -116t29 -83t26 -30q60 -6 133 6t146 37t140 61t113 76l-4 92l104 -2l4 -310l-104 2l-4 72q-102 -58 -211 -97t-217 -53t-210 2 t-190 72q-106 74 -160 178t-64 220zM236 1392l326 344l246 8l192 -376h-84l-156 262l-270 -254zM452 808l388 44l-64 312q-8 38 -51 45t-92 -2t-89 -27t-42 -30q-4 -2 -9 -27t-11 -61t-11 -79t-10 -80t-7 -64t-2 -31z" />
<glyph unicode="&#xeb;" horiz-adv-x="1236" d="M28 494q-10 116 19 235t89 226t146 192t188 133q192 46 321 29t210 -84t121 -177t50 -252l-720 -82q-12 -38 -12 -96t8 -122t21 -129t28 -116t29 -83t26 -30q60 -6 133 6t146 37t140 61t113 76l-4 92l104 -2l4 -310l-104 2l-4 72q-102 -58 -211 -97t-217 -53t-210 2 t-190 72q-106 74 -160 178t-64 220zM275 1531q15 61 55 97t94 46t100 -5t71 -57t9 -112q-12 -54 -48 -95t-83 -61t-95 -12t-84 54q-34 84 -19 145zM452 808l388 44l-64 312q-8 38 -51 45t-92 -2t-89 -27t-42 -30q-4 -2 -9 -27t-11 -61t-11 -79t-10 -80t-7 -64t-2 -31z M679 1537q15 61 55 97t94 46t100 -5t71 -57t9 -112q-12 -54 -48 -95t-83 -61t-95 -12t-84 54q-34 84 -19 145z" />
<glyph unicode="&#xec;" horiz-adv-x="610" d="M78 1172l6 94h384l2 -1182l112 10l2 -88l-502 -4l6 86l122 -4l2 1088h-134zM126 1546l66 190l290 -196l-58 -208z" />
<glyph unicode="&#xed;" horiz-adv-x="610" d="M78 1172l6 94h384l2 -1182l112 10l2 -88l-502 -4l6 86l122 -4l2 1088h-134zM118 1554l302 240l70 -162l-312 -256z" />
<glyph unicode="&#xee;" horiz-adv-x="610" d="M-74 1392l326 344l246 8l192 -376h-84l-156 262l-270 -254zM78 1172l6 94h384l2 -1182l112 10l2 -88l-502 -4l6 86l122 -4l2 1088h-134z" />
<glyph unicode="&#xef;" horiz-adv-x="610" d="M-35 1531q15 61 55 97t94 46t100 -5t71 -57t9 -112q-12 -54 -48 -95t-83 -61t-95 -12t-84 54q-34 84 -19 145zM78 1172l6 94h384l2 -1182l112 10l2 -88l-502 -4l6 86l122 -4l2 1088h-134zM369 1537q15 61 55 97t94 46t100 -5t71 -57t9 -112q-12 -54 -48 -95t-83 -61 t-95 -12t-84 54q-34 84 -19 145z" />
<glyph unicode="&#xf1;" horiz-adv-x="1400" d="M18 -10v104h78l46 1114h-120v104l480 4v-104h-66v-238q40 68 101 136t134 120t151 78t151 7t137 -90t107 -213t60 -365t-1 -545l100 2v-104l-484 -8v104h54q10 90 14 200t1 225t-13 227t-26 205t-39 161t-51 94q-144 -58 -226 -159t-122 -240t-48 -318t-2 -393l78 2v-104 zM252 1414q0 8 16 47t46 87t71 96t89 73t99 16t103 -73q74 -102 137 -129t117 -4t100 79t84 120l38 -48q-36 -116 -113 -199t-167 -104t-180 35t-154 218q-46 16 -77 -11t-52 -70t-38 -85t-35 -56z" />
<glyph unicode="&#xf2;" horiz-adv-x="1352" d="M26 495q0 107 24 214t69 209t105 184t132 140t152 76q238 32 401 -19t258 -153t125 -241t3 -282t-108 -275t-208 -223t-297 -125t-376 22q-100 38 -161 110t-90 164t-29 199zM397 644q1 -116 19 -223t53 -197t87 -146q104 2 180 56t124 138t69 191t17 216t-33 211 t-81 178t-125 116t-167 24q-48 -54 -80 -144t-48 -197t-15 -223zM498 1560l66 190l290 -196l-58 -208z" />
<glyph unicode="&#xf3;" horiz-adv-x="1352" d="M26 495q0 107 24 214t69 209t105 184t132 140t152 76q238 32 401 -19t258 -153t125 -241t3 -282t-108 -275t-208 -223t-297 -125t-376 22q-100 38 -161 110t-90 164t-29 199zM397 644q1 -116 19 -223t53 -197t87 -146q104 2 180 56t124 138t69 191t17 216t-33 211 t-81 178t-125 116t-167 24q-48 -54 -80 -144t-48 -197t-15 -223zM490 1554l302 240l70 -162l-312 -256z" />
<glyph unicode="&#xf4;" horiz-adv-x="1352" d="M26 495q0 107 24 214t69 209t105 184t132 140t152 76q238 32 401 -19t258 -153t125 -241t3 -282t-108 -275t-208 -223t-297 -125t-376 22q-100 38 -161 110t-90 164t-29 199zM294 1392l326 344l246 8l192 -376h-84l-156 262l-270 -254zM397 644q1 -116 19 -223t53 -197 t87 -146q104 2 180 56t124 138t69 191t17 216t-33 211t-81 178t-125 116t-167 24q-48 -54 -80 -144t-48 -197t-15 -223z" />
<glyph unicode="&#xf5;" horiz-adv-x="1352" d="M26 495q0 107 24 214t69 209t105 184t132 140t152 76q238 32 401 -19t258 -153t125 -241t3 -282t-108 -275t-208 -223t-297 -125t-376 22q-100 38 -161 110t-90 164t-29 199zM228 1412q0 8 16 47t46 87t71 96t89 73t99 16t103 -73q74 -102 137 -129t117 -4t100 79t84 120 l38 -48q-36 -116 -113 -199t-167 -104t-180 35t-154 218q-46 16 -77 -11t-52 -70t-38 -85t-35 -56zM397 644q1 -116 19 -223t53 -197t87 -146q104 2 180 56t124 138t69 191t17 216t-33 211t-81 178t-125 116t-167 24q-48 -54 -80 -144t-48 -197t-15 -223z" />
<glyph unicode="&#xf6;" horiz-adv-x="1352" d="M26 495q0 107 24 214t69 209t105 184t132 140t152 76q238 32 401 -19t258 -153t125 -241t3 -282t-108 -275t-208 -223t-297 -125t-376 22q-100 38 -161 110t-90 164t-29 199zM333 1553q15 61 55 97t94 46t100 -5t71 -57t9 -112q-12 -54 -48 -95t-83 -61t-95 -12t-84 54 q-34 84 -19 145zM397 644q1 -116 19 -223t53 -197t87 -146q104 2 180 56t124 138t69 191t17 216t-33 211t-81 178t-125 116t-167 24q-48 -54 -80 -144t-48 -197t-15 -223zM737 1559q15 61 55 97t94 46t100 -5t71 -57t9 -112q-12 -54 -48 -95t-83 -61t-95 -12t-84 54 q-34 84 -19 145z" />
<glyph unicode="&#xf8;" horiz-adv-x="1352" d="M26 495q0 107 24 214t69 209t105 184t132 140t152 76q238 32 401 -19t258 -153t125 -241t3 -282t-108 -275t-208 -223t-297 -125t-376 22q-100 38 -161 110t-90 164t-29 199zM314 -38l68 8l434 1440l-92 4l10 70l252 4l4 -94h-76l-416 -1442h94l4 -94l-278 10zM397 644 q1 -116 19 -223t53 -197t87 -146q104 2 180 56t124 138t69 191t17 216t-33 211t-81 178t-125 116t-167 24q-48 -54 -80 -144t-48 -197t-15 -223z" />
<glyph unicode="&#xf9;" horiz-adv-x="1340" d="M64 1208v104l520 4v-104l-70 -2q0 -94 -6 -205t-10 -223t1 -217t28 -187t71 -131t130 -51q22 10 50 77t56 167t54 217t45 227t29 198t6 130h-128v104l464 4v-104l-68 -2v-1110h72v-88q-100 -8 -162 -4t-97 26t-49 65t-18 112t-5 165t-11 224q-8 -76 -32 -162t-57 -163 t-74 -136t-83 -81q-144 -64 -245 -55t-166 76t-100 183t-48 265t-9 322t16 355h-104zM484 1636l66 190l290 -196l-58 -208z" />
<glyph unicode="&#xfa;" horiz-adv-x="1340" d="M64 1208v104l520 4v-104l-70 -2q0 -94 -6 -205t-10 -223t1 -217t28 -187t71 -131t130 -51q22 10 50 77t56 167t54 217t45 227t29 198t6 130h-128v104l464 4v-104l-68 -2v-1110h72v-88q-100 -8 -162 -4t-97 26t-49 65t-18 112t-5 165t-11 224q-8 -76 -32 -162t-57 -163 t-74 -136t-83 -81q-144 -64 -245 -55t-166 76t-100 183t-48 265t-9 322t16 355h-104zM484 1554l302 240l70 -162l-312 -256z" />
<glyph unicode="&#xfb;" horiz-adv-x="1340" d="M64 1208v104l520 4v-104l-70 -2q0 -94 -6 -205t-10 -223t1 -217t28 -187t71 -131t130 -51q22 10 50 77t56 167t54 217t45 227t29 198t6 130h-128v104l464 4v-104l-68 -2v-1110h72v-88q-100 -8 -162 -4t-97 26t-49 65t-18 112t-5 165t-11 224q-8 -76 -32 -162t-57 -163 t-74 -136t-83 -81q-144 -64 -245 -55t-166 76t-100 183t-48 265t-9 322t16 355h-104zM288 1392l326 344l246 8l192 -376h-84l-156 262l-270 -254z" />
<glyph unicode="&#xfc;" horiz-adv-x="1340" d="M64 1208v104l520 4v-104l-70 -2q0 -94 -6 -205t-10 -223t1 -217t28 -187t71 -131t130 -51q22 10 50 77t56 167t54 217t45 227t29 198t6 130h-128v104l464 4v-104l-68 -2v-1110h72v-88q-100 -8 -162 -4t-97 26t-49 65t-18 112t-5 165t-11 224q-8 -76 -32 -162t-57 -163 t-74 -136t-83 -81q-144 -64 -245 -55t-166 76t-100 183t-48 265t-9 322t16 355h-104zM375 1605q15 61 55 97t94 46t100 -5t71 -57t9 -112q-12 -54 -48 -95t-83 -61t-95 -12t-84 54q-34 84 -19 145zM779 1611q15 61 55 97t94 46t100 -5t71 -57t9 -112q-12 -54 -48 -95 t-83 -61t-95 -12t-84 54q-34 84 -19 145z" />
<glyph unicode="&#xfd;" horiz-adv-x="1398" d="M-51 -439q-7 99 27 198t106 167q80 76 146 96t113 3t75 -60t33 -91t-13 -92t-62 -61t-117 1t-175 92q-54 -182 -25 -293t108 -153t190 -17t218 113t192 238t115 360l-708 1144l-140 2v104l512 4v-104l-246 -2l616 -998l52 1010h-106v104h508v-104l-106 8 q-6 -178 -10 -369t-15 -382t-36 -372t-72 -337t-124 -278t-192 -194t-275 -87t-376 45q-102 38 -154 122t-59 183zM536 1596l302 240l70 -162l-312 -256z" />
<glyph unicode="&#xfe;" horiz-adv-x="1416" d="M38 1544v104l434 4v-104h-60l-16 -272q182 160 333 225t269 60t201 -68t129 -162t55 -220t-23 -241t-106 -228t-191 -180t-280 -96t-373 24l-28 -288h94v-104l-434 -4v104l70 2l-4 1444h-70zM408 1164l2 -688q0 -18 39 -27t89 -14t96 -5t58 2q92 28 156 106t101 179 t47 214t-8 211t-63 167t-117 85t-172 -35t-228 -195z" />
<glyph unicode="&#xff;" horiz-adv-x="1398" d="M-51 -439q-7 99 27 198t106 167q80 76 146 96t113 3t75 -60t33 -91t-13 -92t-62 -61t-117 1t-175 92q-54 -182 -25 -293t108 -153t190 -17t218 113t192 238t115 360l-708 1144l-140 2v104l512 4v-104l-246 -2l616 -998l52 1010h-106v104h508v-104l-106 8 q-6 -178 -10 -369t-15 -382t-36 -372t-72 -337t-124 -278t-192 -194t-275 -87t-376 45q-102 38 -154 122t-59 183zM355 1621q15 61 55 97t94 46t100 -5t71 -57t9 -112q-12 -54 -48 -95t-83 -61t-95 -12t-84 54q-34 84 -19 145zM759 1627q15 61 55 97t94 46t100 -5t71 -57 t9 -112q-12 -54 -48 -95t-83 -61t-95 -12t-84 54q-34 84 -19 145z" />
<glyph unicode="&#x152;" horiz-adv-x="2358" d="M105 733q-9 139 21 273t95 256t154 214t198 146t229 54t245 -63t245 -207l6 196l818 32l-4 58h90l8 -290h-90l-4 140h-554l-10 -666l186 4v72h72v-236h-72v78q-24 0 -53 -2t-56 -3t-49 -2t-30 -1l-16 -632h638l-4 130l90 -4l4 -262l-90 4v40l-916 -28l6 232 q-46 -82 -107 -141t-140 -89t-175 -26t-212 50q-174 68 -286 174t-170 233t-67 266zM559 1035q-5 -143 25 -287t83 -264t124 -202t150 -101t159 38t152 215v876q-16 32 -53 70t-85 72t-101 62t-104 41t-94 8t-69 -37q-94 -90 -138 -219t-49 -272z" />
<glyph unicode="&#x153;" horiz-adv-x="2400" d="M26 495q0 107 24 214t69 209t105 184t132 140t152 76q238 32 401 -19t258 -153t125 -241t3 -282t-108 -275t-208 -223t-297 -125t-376 22q-100 38 -161 110t-90 164t-29 199zM397 644q1 -116 19 -223t53 -197t87 -146q104 2 180 56t124 138t69 191t17 216t-33 211 t-81 178t-125 116t-167 24q-48 -54 -80 -144t-48 -197t-15 -223zM1192 486q-10 116 19 235t89 226t146 192t188 133q192 46 321 29t210 -84t121 -177t50 -252l-720 -82q-12 -38 -12 -96t8 -122t21 -129t28 -116t29 -83t26 -30q60 -6 133 6t146 37t140 61t113 76l-4 92 l104 -2l4 -310l-104 2l-4 72q-102 -58 -211 -97t-217 -53t-210 2t-190 72q-106 74 -160 178t-64 220zM1616 800l388 44l-64 312q-8 38 -51 45t-92 -2t-89 -27t-42 -30q-4 -2 -9 -27t-11 -61t-11 -79t-10 -80t-7 -64t-2 -31z" />
<glyph unicode="&#x178;" horiz-adv-x="1676" d="M48 1568v86h454v-86h-146l642 -618l236 618h-40v86h454v-86h-106l-498 -1446h64v-110h-526v110h98l280 746l-718 700h-194zM495 1877q15 61 55 97t94 46t100 -5t71 -57t9 -112q-12 -54 -48 -95t-83 -61t-95 -12t-84 54q-34 84 -19 145zM899 1883q15 61 55 97t94 46 t100 -5t71 -57t9 -112q-12 -54 -48 -95t-83 -61t-95 -12t-84 54q-34 84 -19 145z" />
<glyph unicode="&#x2c6;" horiz-adv-x="908" d="M58 1392l326 344l246 8l192 -376h-84l-156 262l-270 -254z" />
<glyph unicode="&#x2dc;" horiz-adv-x="962" d="M46 1380q0 8 16 47t46 87t71 96t89 73t99 16t103 -73q74 -102 137 -129t117 -4t100 79t84 120l38 -48q-36 -116 -113 -199t-167 -104t-180 35t-154 218q-46 16 -77 -11t-52 -70t-38 -85t-35 -56z" />
<glyph unicode="&#x2000;" horiz-adv-x="1070" />
<glyph unicode="&#x2001;" horiz-adv-x="2140" />
<glyph unicode="&#x2002;" horiz-adv-x="1070" />
<glyph unicode="&#x2003;" horiz-adv-x="2140" />
<glyph unicode="&#x2004;" horiz-adv-x="713" />
<glyph unicode="&#x2005;" horiz-adv-x="535" />
<glyph unicode="&#x2006;" horiz-adv-x="356" />
<glyph unicode="&#x2007;" horiz-adv-x="356" />
<glyph unicode="&#x2008;" horiz-adv-x="267" />
<glyph unicode="&#x2009;" horiz-adv-x="428" />
<glyph unicode="&#x200a;" horiz-adv-x="118" />
<glyph unicode="&#x2010;" horiz-adv-x="926" d="M104 602v336l78 -4l-4 -78l584 4l2 70l80 4l4 -320l-80 -4l-6 50l-584 4l4 -66z" />
<glyph unicode="&#x2011;" horiz-adv-x="926" d="M104 602v336l78 -4l-4 -78l584 4l2 70l80 4l4 -320l-80 -4l-6 50l-584 4l4 -66z" />
<glyph unicode="&#x2012;" horiz-adv-x="926" d="M104 602v336l78 -4l-4 -78l584 4l2 70l80 4l4 -320l-80 -4l-6 50l-584 4l4 -66z" />
<glyph unicode="&#x2013;" horiz-adv-x="926" d="M104 602v336l78 -4l-4 -78l584 4l2 70l80 4l4 -320l-80 -4l-6 50l-584 4l4 -66z" />
<glyph unicode="&#x2014;" horiz-adv-x="2230" d="M104 602v336l215 -4l-11 -78l1607 4l6 70l220 4l11 -320l-220 -4l-17 50l-1607 4l11 -66z" />
<glyph unicode="&#x2018;" horiz-adv-x="420" d="M111 1307q7 41 41 61q42 24 75 9t54 -48t28 -73t-5 -67t-45 -30t-89 39q18 -56 49 -105t65 -89q-12 -22 -36 -10t-50 46t-49 82t-34 96t-4 89z" />
<glyph unicode="&#x2019;" horiz-adv-x="420" d="M109 1259q9 43 34 78t66 50t91 -9q42 -22 50 -66t-5 -94t-41 -101t-59 -86t-61 -49t-44 10q40 44 77 96t59 110q-70 -44 -109 -41t-53 31t-5 71z" />
<glyph unicode="&#x201a;" horiz-adv-x="420" d="M93 241q9 43 34 78t66 50t91 -9q42 -22 50 -66t-5 -94t-41 -101t-59 -86t-61 -49t-44 10q40 44 77 96t59 110q-70 -44 -109 -41t-53 31t-5 71z" />
<glyph unicode="&#x201c;" horiz-adv-x="698" d="M75 1326q-3 42 5 70q22 70 64 79t82 -17t69 -72t28 -87t-44 -64t-145 -1q12 -52 31 -75t37 -30t32 -5t16 0q-26 -44 -50 -48t-45 17t-38 61t-28 85t-14 87zM362 1278q-2 42 4 70q18 52 46 69t59 10t61 -32t50 -57t26 -66t-10 -59t-58 -34t-120 7q12 -52 31 -76t37 -31 t31 -6t15 1q-26 -44 -50 -48t-45 18t-38 62t-27 85t-12 87z" />
<glyph unicode="&#x201d;" horiz-adv-x="698" d="M36 1314q-2 42 33 90t82 74t96 16t75 -80q8 -28 5 -72t-15 -89t-31 -87t-44 -63t-54 -17t-59 48q2 2 18 0t37 6t43 32t38 76q-122 -22 -172 1t-52 65zM372 1364q-2 42 33 90t82 74t96 16t75 -80q8 -28 5 -72t-15 -89t-31 -87t-44 -63t-54 -17t-59 48q2 2 18 0t37 6t43 32 t38 76q-122 -22 -172 1t-52 65z" />
<glyph unicode="&#x201e;" horiz-adv-x="698" d="M46 224q-2 42 33 90t82 74t96 16t75 -80q8 -28 5 -72t-15 -89t-31 -87t-44 -63t-54 -17t-59 48q2 2 18 0t37 6t43 32t38 76q-122 -22 -172 1t-52 65zM382 274q-2 42 33 90t82 74t96 16t75 -80q8 -28 5 -72t-15 -89t-31 -87t-44 -63t-54 -17t-59 48q2 2 18 0t37 6t43 32 t38 76q-122 -22 -172 1t-52 65z" />
<glyph unicode="&#x2026;" horiz-adv-x="1500" d="M47 187q21 61 73 97t119 46t116 -10t65 -72t-32 -138q-26 -36 -67 -66t-87 -44t-90 -6t-76 50q-42 82 -21 143zM547 187q21 61 73 97t119 46t116 -10t65 -72t-32 -138q-26 -36 -67 -66t-87 -44t-90 -6t-76 50q-42 82 -21 143zM1047 187q21 61 73 97t119 46t116 -10 t65 -72t-32 -138q-26 -36 -67 -66t-87 -44t-90 -6t-76 50q-42 82 -21 143z" />
<glyph unicode="&#x202f;" horiz-adv-x="428" />
<glyph unicode="&#x205f;" horiz-adv-x="535" />
<glyph unicode="&#x20ac;" horiz-adv-x="1278" d="M24 812v106h156q26 110 68 215t98 195t124 159t146 109t162 44t172 -34q42 -20 96 -43t90 -53v130l86 2v-384l-86 -2v160q-30 32 -82 60t-109 48t-109 27t-84 -5q-50 -50 -89 -119t-66 -151t-43 -174t-22 -184l668 2v-106l-670 -2q0 -20 1 -38t3 -36l670 2v-106l-660 -2 q14 -102 42 -190t70 -152t98 -99t127 -29t155 57t182 159l20 -108q-60 -70 -149 -136t-191 -109t-209 -54t-205 31q-90 38 -154 103t-105 147t-60 179t-19 201h-118v106h124q2 18 3 36t5 38h-136z" />
<glyph unicode="&#xe000;" horiz-adv-x="1310" d="M0 0v1310h1310v-1310h-1310z" />
</font>
</defs>
</svg>
